STARTFONT 2.1
COMMENT 
COMMENT This file has been produced by ttf2bdf written by Subhabrata Biswas
COMMENT 
COMMENT For comments, questions, bug reports, send a mail to
COMMENT                                           subhabrata.biswas@usa.net
COMMENT 
FONT -*-Roboto Mono-Bold-R-Normal--19-140-96-96-c-11--fontspecific
SIZE 14 96 96
FONTBOUNDINGBOX 24 25 -9 -5
STARTPROPERTIES 15
FOUNDRY "Misc"
FAMILY_NAME "Roboto Mono"
WEIGHT_NAME "Bold"
SLANT "R"
SETWIDTH_NAME "Normal"
PIXEL_SIZE 15
POINT_SIZE 140
RESOLUTION_X 96
RESOLUTION_Y 96
SPACING "C"
CHARSET_ENCODING "fontspecific"
FONT_ASCENT 20
FONT_DESCENT 5
DEFAULT_CHAR 12
COPYRIGHT "You may wish to put your copyright here"
ENDPROPERTIES
CHARS 246
STARTCHAR C0010
ENCODING 10
SWIDTH 589 0
DWIDTH 11 0
BBX 1 1 0 -1
BITMAP
00
ENDCHAR
STARTCHAR C0011
ENCODING 11
SWIDTH 589 0
DWIDTH 11 0
BBX 1 1 0 -1
BITMAP
00
ENDCHAR
STARTCHAR C0012
ENCODING 12
SWIDTH 589 0
DWIDTH 11 0
BBX 1 1 0 -1
BITMAP
00
ENDCHAR
STARTCHAR C0013
ENCODING 13
SWIDTH 589 0
DWIDTH 11 0
BBX 1 1 0 -1
BITMAP
00
ENDCHAR
STARTCHAR C0014
ENCODING 14
SWIDTH 589 0
DWIDTH 11 0
BBX 1 1 0 -1
BITMAP
00
ENDCHAR
STARTCHAR C0015
ENCODING 15
SWIDTH 589 0
DWIDTH 11 0
BBX 1 1 0 -1
BITMAP
00
ENDCHAR
STARTCHAR C0016
ENCODING 16
SWIDTH 589 0
DWIDTH 11 0
BBX 1 1 0 -1
BITMAP
00
ENDCHAR
STARTCHAR C0017
ENCODING 17
SWIDTH 589 0
DWIDTH 11 0
BBX 1 1 0 -1
BITMAP
00
ENDCHAR
STARTCHAR C0018
ENCODING 18
SWIDTH 589 0
DWIDTH 11 0
BBX 1 1 0 -1
BITMAP
00
ENDCHAR
STARTCHAR C0019
ENCODING 19
SWIDTH 589 0
DWIDTH 11 0
BBX 1 1 0 -1
BITMAP
00
ENDCHAR
STARTCHAR C0020
ENCODING 20
SWIDTH 589 0
DWIDTH 11 0
BBX 1 1 0 -1
BITMAP
00
ENDCHAR
STARTCHAR C0021
ENCODING 21
SWIDTH 589 0
DWIDTH 11 0
BBX 1 1 0 -1
BITMAP
00
ENDCHAR
STARTCHAR C0022
ENCODING 22
SWIDTH 589 0
DWIDTH 11 0
BBX 1 1 0 -1
BITMAP
00
ENDCHAR
STARTCHAR C0023
ENCODING 23
SWIDTH 589 0
DWIDTH 11 0
BBX 1 1 0 -1
BITMAP
00
ENDCHAR
STARTCHAR C0024
ENCODING 24
SWIDTH 589 0
DWIDTH 11 0
BBX 1 1 0 -1
BITMAP
00
ENDCHAR
STARTCHAR C0025
ENCODING 25
SWIDTH 589 0
DWIDTH 11 0
BBX 1 1 0 -1
BITMAP
00
ENDCHAR
STARTCHAR C0026
ENCODING 26
SWIDTH 589 0
DWIDTH 11 0
BBX 1 1 0 -1
BITMAP
00
ENDCHAR
STARTCHAR C0027
ENCODING 27
SWIDTH 589 0
DWIDTH 11 0
BBX 1 1 0 -1
BITMAP
00
ENDCHAR
STARTCHAR C0028
ENCODING 28
SWIDTH 589 0
DWIDTH 11 0
BBX 1 1 0 -1
BITMAP
00
ENDCHAR
STARTCHAR C0029
ENCODING 29
SWIDTH 589 0
DWIDTH 11 0
BBX 1 1 0 -1
BITMAP
00
ENDCHAR
STARTCHAR C0030
ENCODING 30
SWIDTH 589 0
DWIDTH 11 0
BBX 1 1 0 -1
BITMAP
00
ENDCHAR
STARTCHAR C0031
ENCODING 31
SWIDTH 589 0
DWIDTH 11 0
BBX 1 1 0 -1
BITMAP
00
ENDCHAR
STARTCHAR C0032- 
ENCODING 32
SWIDTH 589 0
DWIDTH 11 0
BBX 1 1 0 -1
BITMAP
00
ENDCHAR
STARTCHAR C0033-!
ENCODING 33
SWIDTH 589 0
DWIDTH 11 0
BBX 3 14 4 0
BITMAP
E0
E0
E0
E0
E0
E0
E0
E0
60
00
00
60
E0
E0
ENDCHAR
STARTCHAR C0034-"
ENCODING 34
SWIDTH 589 0
DWIDTH 11 0
BBX 5 5 3 9
BITMAP
D8
98
98
98
98
ENDCHAR
STARTCHAR C0035-#
ENCODING 35
SWIDTH 589 0
DWIDTH 11 0
BBX 11 14 0 0
BITMAP
0C80
0C80
0D80
0980
7FE0
7FE0
1900
1B00
1300
FFC0
3300
3200
3200
3600
ENDCHAR
STARTCHAR C0036-$
ENCODING 36
SWIDTH 589 0
DWIDTH 11 0
BBX 10 18 1 -2
BITMAP
0C00
0C00
0E00
3F00
7380
6180
61C0
7000
3C00
1F00
0780
0180
E1C0
E180
7F80
3F00
0C00
0C00
ENDCHAR
STARTCHAR C0037-%
ENCODING 37
SWIDTH 589 0
DWIDTH 11 0
BBX 11 14 0 0
BITMAP
3000
7800
CC80
CD80
CB00
7A00
0600
0400
0DC0
0BE0
1B60
1360
0360
01C0
ENDCHAR
STARTCHAR C0038-&
ENCODING 38
SWIDTH 589 0
DWIDTH 11 0
BBX 10 14 1 0
BITMAP
1C00
3E00
7700
6700
6600
7E00
3C00
78C0
FCC0
CEC0
C7C0
E380
FF80
7DC0
ENDCHAR
STARTCHAR C0039-'
ENCODING 39
SWIDTH 589 0
DWIDTH 11 0
BBX 2 5 4 9
BITMAP
C0
C0
C0
C0
C0
ENDCHAR
STARTCHAR C0040-(
ENCODING 40
SWIDTH 589 0
DWIDTH 11 0
BBX 5 19 3 -4
BITMAP
08
18
30
30
60
60
60
E0
C0
C0
C0
E0
E0
60
60
70
30
18
08
ENDCHAR
STARTCHAR C0041-)
ENCODING 41
SWIDTH 589 0
DWIDTH 11 0
BBX 5 19 3 -4
BITMAP
80
C0
60
30
30
38
18
18
18
18
18
18
18
38
30
30
60
E0
C0
ENDCHAR
STARTCHAR C0042-*
ENCODING 42
SWIDTH 589 0
DWIDTH 11 0
BBX 10 10 1 4
BITMAP
0C00
0C00
0C00
4C80
FFC0
1F00
1E00
1B00
7380
2100
ENDCHAR
STARTCHAR C0043-+
ENCODING 43
SWIDTH 589 0
DWIDTH 11 0
BBX 9 10 1 1
BITMAP
1C00
1C00
1C00
FF80
FF80
FF80
1C00
1C00
1C00
1C00
ENDCHAR
STARTCHAR C0044-,
ENCODING 44
SWIDTH 589 0
DWIDTH 11 0
BBX 4 6 3 -4
BITMAP
70
70
70
60
E0
40
ENDCHAR
STARTCHAR C0045--
ENCODING 45
SWIDTH 589 0
DWIDTH 11 0
BBX 7 2 3 5
BITMAP
FE
FE
ENDCHAR
STARTCHAR C0046-.
ENCODING 46
SWIDTH 589 0
DWIDTH 11 0
BBX 4 3 4 0
BITMAP
E0
E0
E0
ENDCHAR
STARTCHAR C0047-/
ENCODING 47
SWIDTH 589 0
DWIDTH 11 0
BBX 8 15 2 -1
BITMAP
07
06
0E
0C
0C
1C
18
18
38
30
30
70
60
60
E0
ENDCHAR
STARTCHAR C0048-0
ENCODING 48
SWIDTH 589 0
DWIDTH 11 0
BBX 9 14 1 0
BITMAP
1C00
3F00
7700
6380
E380
E380
E780
FD80
F180
E380
E380
6380
7F00
3E00
ENDCHAR
STARTCHAR C0049-1
ENCODING 49
SWIDTH 589 0
DWIDTH 11 0
BBX 6 14 2 0
BITMAP
04
1C
FC
FC
9C
1C
1C
1C
1C
1C
1C
1C
1C
1C
ENDCHAR
STARTCHAR C0050-2
ENCODING 50
SWIDTH 589 0
DWIDTH 11 0
BBX 9 14 1 0
BITMAP
1C00
7F00
F700
C380
C380
0300
0700
0E00
1C00
3C00
3800
7000
FF80
FF80
ENDCHAR
STARTCHAR C0051-3
ENCODING 51
SWIDTH 589 0
DWIDTH 11 0
BBX 9 14 1 0
BITMAP
1C00
7F00
F780
E380
0380
0380
1F00
1F00
0380
0180
C180
E380
7F00
3E00
ENDCHAR
STARTCHAR C0052-4
ENCODING 52
SWIDTH 589 0
DWIDTH 11 0
BBX 9 14 1 0
BITMAP
0700
0700
0F00
1F00
1F00
3700
7700
6700
C700
FF80
FF80
0700
0700
0700
ENDCHAR
STARTCHAR C0053-5
ENCODING 53
SWIDTH 589 0
DWIDTH 11 0
BBX 9 14 1 0
BITMAP
7F80
7F80
7F80
6000
6000
7E00
7F00
E380
0380
0180
E380
E380
7F00
3E00
ENDCHAR
STARTCHAR C0054-6
ENCODING 54
SWIDTH 589 0
DWIDTH 11 0
BBX 9 14 1 0
BITMAP
0600
1E00
3E00
7000
6000
EE00
FF00
E380
E380
E180
E180
6380
7F00
3E00
ENDCHAR
STARTCHAR C0055-7
ENCODING 55
SWIDTH 589 0
DWIDTH 11 0
BBX 9 14 1 0
BITMAP
FF80
FF80
FF80
0300
0300
0700
0600
0E00
0C00
1C00
1800
3800
3800
7000
ENDCHAR
STARTCHAR C0056-8
ENCODING 56
SWIDTH 589 0
DWIDTH 11 0
BBX 9 14 1 0
BITMAP
1C00
7F00
7700
E380
E380
6300
7F00
7F00
E380
E380
E380
E380
7F00
3E00
ENDCHAR
STARTCHAR C0057-9
ENCODING 57
SWIDTH 589 0
DWIDTH 11 0
BBX 9 14 1 0
BITMAP
1C00
7E00
7700
E380
E380
C380
E380
F780
7F80
1B80
0300
0F00
3E00
3800
ENDCHAR
STARTCHAR C0058-:
ENCODING 58
SWIDTH 589 0
DWIDTH 11 0
BBX 4 11 4 0
BITMAP
E0
E0
E0
00
00
00
00
00
E0
E0
E0
ENDCHAR
STARTCHAR C0059-;
ENCODING 59
SWIDTH 589 0
DWIDTH 11 0
BBX 4 15 4 -4
BITMAP
E0
E0
E0
00
00
00
00
00
00
70
70
70
60
E0
40
ENDCHAR
STARTCHAR C0060-<
ENCODING 60
SWIDTH 589 0
DWIDTH 11 0
BBX 9 9 1 1
BITMAP
0180
0F80
3F00
F800
F000
7E00
1F80
0380
0080
ENDCHAR
STARTCHAR C0061-=
ENCODING 61
SWIDTH 589 0
DWIDTH 11 0
BBX 9 6 1 3
BITMAP
FF80
FF80
0000
0000
FF80
FF80
ENDCHAR
STARTCHAR C0062->
ENCODING 62
SWIDTH 589 0
DWIDTH 11 0
BBX 9 9 1 1
BITMAP
4000
7800
7E00
0F80
0780
1F00
7C00
6000
8000
ENDCHAR
STARTCHAR C0063-?
ENCODING 63
SWIDTH 589 0
DWIDTH 11 0
BBX 9 14 1 0
BITMAP
1E00
7F00
7380
E180
0180
0380
0700
0E00
0C00
0C00
0000
0C00
1C00
1C00
ENDCHAR
STARTCHAR C0064-@
ENCODING 64
SWIDTH 589 0
DWIDTH 11 0
BBX 11 13 0 0
BITMAP
1F80
30C0
2240
6F60
4960
D960
D960
DB60
DB40
4DC0
6000
3100
1F00
ENDCHAR
STARTCHAR C0065-A
ENCODING 65
SWIDTH 589 0
DWIDTH 11 0
BBX 11 14 0 0
BITMAP
0600
0E00
0F00
0F00
1F00
1B80
1980
3980
39C0
3FC0
7FC0
70E0
60E0
E060
ENDCHAR
STARTCHAR C0066-B
ENCODING 66
SWIDTH 589 0
DWIDTH 11 0
BBX 10 14 1 0
BITMAP
F800
FF00
FF80
E1C0
E1C0
E180
FF80
FF80
E1C0
E1C0
E1C0
E1C0
FF80
FF00
ENDCHAR
STARTCHAR C0067-C
ENCODING 67
SWIDTH 589 0
DWIDTH 11 0
BBX 10 14 1 0
BITMAP
1C00
3F00
7780
E180
E1C0
C000
C000
C000
C000
C000
E1C0
E380
7F80
3E00
ENDCHAR
STARTCHAR C0068-D
ENCODING 68
SWIDTH 589 0
DWIDTH 11 0
BBX 10 14 1 0
BITMAP
F000
FE00
FF00
E380
E180
E180
E1C0
E1C0
E1C0
E180
E380
E780
FF00
FC00
ENDCHAR
STARTCHAR C0069-E
ENCODING 69
SWIDTH 589 0
DWIDTH 11 0
BBX 9 14 1 0
BITMAP
FF80
FF80
FF80
E000
E000
E000
FF80
FF80
E000
E000
E000
E000
FF80
FF80
ENDCHAR
STARTCHAR C0070-F
ENCODING 70
SWIDTH 589 0
DWIDTH 11 0
BBX 10 14 1 0
BITMAP
FFC0
FFC0
FFC0
E000
E000
E000
FF80
FF80
E000
E000
E000
E000
E000
E000
ENDCHAR
STARTCHAR C0071-G
ENCODING 71
SWIDTH 589 0
DWIDTH 11 0
BBX 10 14 1 0
BITMAP
1C00
3F00
7380
E180
E000
C000
C000
C780
C780
E180
E180
E180
7F80
3F00
ENDCHAR
STARTCHAR C0072-H
ENCODING 72
SWIDTH 589 0
DWIDTH 11 0
BBX 9 14 1 0
BITMAP
E180
E180
E180
E180
E180
E180
FF80
FF80
E180
E180
E180
E180
E180
E180
ENDCHAR
STARTCHAR C0073-I
ENCODING 73
SWIDTH 589 0
DWIDTH 11 0
BBX 8 14 2 0
BITMAP
FF
FF
FF
38
38
38
38
38
38
38
38
38
FF
FF
ENDCHAR
STARTCHAR C0074-J
ENCODING 74
SWIDTH 589 0
DWIDTH 11 0
BBX 9 14 1 0
BITMAP
0180
0180
0180
0180
0180
0180
0180
0180
0180
0180
E180
E380
7F00
3E00
ENDCHAR
STARTCHAR C0075-K
ENCODING 75
SWIDTH 589 0
DWIDTH 11 0
BBX 11 14 1 0
BITMAP
E1E0
E1C0
E380
E700
EE00
EE00
FC00
FE00
FE00
E700
E700
E380
E1C0
E1E0
ENDCHAR
STARTCHAR C0076-L
ENCODING 76
SWIDTH 589 0
DWIDTH 11 0
BBX 9 14 1 0
BITMAP
E000
E000
E000
E000
E000
E000
E000
E000
E000
E000
E000
E000
FF80
FF80
ENDCHAR
STARTCHAR C0077-M
ENCODING 77
SWIDTH 589 0
DWIDTH 11 0
BBX 9 14 1 0
BITMAP
E380
F380
F380
F780
D780
DF80
FD80
FD80
ED80
E980
E180
E180
E180
E180
ENDCHAR
STARTCHAR C0078-N
ENCODING 78
SWIDTH 589 0
DWIDTH 11 0
BBX 9 14 1 0
BITMAP
E180
E180
F180
F180
F180
F980
F980
ED80
ED80
E780
E780
E780
E380
E380
ENDCHAR
STARTCHAR C0079-O
ENCODING 79
SWIDTH 589 0
DWIDTH 11 0
BBX 10 14 1 0
BITMAP
1C00
7F00
7780
E380
E180
C1C0
C1C0
C1C0
C1C0
C1C0
E180
E380
7F00
3E00
ENDCHAR
STARTCHAR C0080-P
ENCODING 80
SWIDTH 589 0
DWIDTH 11 0
BBX 10 14 1 0
BITMAP
F800
FF00
FF80
E1C0
E1C0
E1C0
E380
FF80
FF00
E000
E000
E000
E000
E000
ENDCHAR
STARTCHAR C0081-Q
ENCODING 81
SWIDTH 589 0
DWIDTH 11 0
BBX 10 16 1 -2
BITMAP
1C00
3F00
7780
E380
E1C0
C1C0
C1C0
C1C0
C1C0
C1C0
E180
E380
7F00
3F80
01C0
00C0
ENDCHAR
STARTCHAR C0082-R
ENCODING 82
SWIDTH 589 0
DWIDTH 11 0
BBX 10 14 1 0
BITMAP
F800
FF00
FF80
E1C0
E1C0
E1C0
E380
FF00
FE00
E700
E300
E380
E180
E1C0
ENDCHAR
STARTCHAR C0083-S
ENCODING 83
SWIDTH 589 0
DWIDTH 11 0
BBX 10 14 1 0
BITMAP
1E00
7F00
7380
E1C0
E000
7000
7E00
1F00
0780
01C0
C1C0
E1C0
7F80
3F00
ENDCHAR
STARTCHAR C0084-T
ENCODING 84
SWIDTH 589 0
DWIDTH 11 0
BBX 11 14 0 0
BITMAP
FFE0
FFE0
FFE0
0E00
0E00
0E00
0E00
0E00
0E00
0E00
0E00
0E00
0E00
0E00
ENDCHAR
STARTCHAR C0085-U
ENCODING 85
SWIDTH 589 0
DWIDTH 11 0
BBX 9 14 1 0
BITMAP
E180
E180
E180
E180
E180
E180
E180
E180
E180
E180
E180
6380
7F00
3E00
ENDCHAR
STARTCHAR C0086-V
ENCODING 86
SWIDTH 589 0
DWIDTH 11 0
BBX 11 14 0 0
BITMAP
E0E0
60E0
70C0
71C0
71C0
31C0
3980
3B80
1B80
1F00
1F00
0F00
0E00
0E00
ENDCHAR
STARTCHAR C0087-W
ENCODING 87
SWIDTH 589 0
DWIDTH 11 0
BBX 11 14 0 0
BITMAP
E660
E660
6E60
6EE0
6EE0
6EE0
6FC0
6BC0
7BC0
7BC0
3BC0
39C0
39C0
3980
ENDCHAR
STARTCHAR C0088-X
ENCODING 88
SWIDTH 589 0
DWIDTH 11 0
BBX 11 14 0 0
BITMAP
E0E0
70E0
31C0
39C0
1B80
1F00
0F00
0F00
1F00
1F80
3980
39C0
70C0
F0E0
ENDCHAR
STARTCHAR C0089-Y
ENCODING 89
SWIDTH 589 0
DWIDTH 11 0
BBX 11 14 0 0
BITMAP
E0E0
70E0
70C0
31C0
3980
1B80
1F00
0F00
0F00
0E00
0E00
0E00
0E00
0E00
ENDCHAR
STARTCHAR C0090-Z
ENCODING 90
SWIDTH 589 0
DWIDTH 11 0
BBX 10 14 1 0
BITMAP
FFC0
FFC0
FF80
0380
0700
0E00
0E00
1C00
3800
3800
7000
E000
FFC0
FFC0
ENDCHAR
STARTCHAR C0091-[
ENCODING 91
SWIDTH 589 0
DWIDTH 11 0
BBX 4 19 4 -3
BITMAP
F0
F0
C0
C0
C0
C0
C0
C0
C0
C0
C0
C0
C0
C0
C0
C0
C0
F0
F0
ENDCHAR
STARTCHAR C0092-\
ENCODING 92
SWIDTH 589 0
DWIDTH 11 0
BBX 8 15 2 -1
BITMAP
E0
60
60
70
30
30
38
18
18
1C
0C
0C
0E
06
07
ENDCHAR
STARTCHAR C0093-]
ENCODING 93
SWIDTH 589 0
DWIDTH 11 0
BBX 4 19 4 -3
BITMAP
F0
F0
70
70
70
70
70
70
70
70
70
70
70
70
70
70
70
F0
F0
ENDCHAR
STARTCHAR C0094-^
ENCODING 94
SWIDTH 589 0
DWIDTH 11 0
BBX 8 8 2 6
BITMAP
18
18
3C
3C
6C
66
C6
C3
ENDCHAR
STARTCHAR C0095-_
ENCODING 95
SWIDTH 589 0
DWIDTH 11 0
BBX 9 2 1 -2
BITMAP
FF80
FF80
ENDCHAR
STARTCHAR C0096-`
ENCODING 96
SWIDTH 589 0
DWIDTH 11 0
BBX 4 3 4 11
BITMAP
E0
60
30
ENDCHAR
STARTCHAR C0097-a
ENCODING 97
SWIDTH 589 0
DWIDTH 11 0
BBX 9 10 1 0
BITMAP
3E00
7F00
E380
0380
3F80
7380
E380
E380
FF80
7F80
ENDCHAR
STARTCHAR C0098-b
ENCODING 98
SWIDTH 589 0
DWIDTH 11 0
BBX 9 14 1 0
BITMAP
E000
E000
E000
E000
FF00
FF80
E380
E180
E180
E180
E180
E380
FF80
FF00
ENDCHAR
STARTCHAR C0099-c
ENCODING 99
SWIDTH 589 0
DWIDTH 11 0
BBX 9 10 1 0
BITMAP
3E00
7F00
6380
E180
E000
E000
E000
6380
7F00
3E00
ENDCHAR
STARTCHAR C0100-d
ENCODING 100
SWIDTH 589 0
DWIDTH 11 0
BBX 9 14 1 0
BITMAP
0380
0380
0380
0380
3F80
7F80
E380
E380
E380
E380
E380
E380
7F80
3D80
ENDCHAR
STARTCHAR C0101-e
ENCODING 101
SWIDTH 589 0
DWIDTH 11 0
BBX 9 10 1 0
BITMAP
3F00
7F80
6380
E180
FF80
FF80
E000
7100
7F80
3F00
ENDCHAR
STARTCHAR C0102-f
ENCODING 102
SWIDTH 589 0
DWIDTH 11 0
BBX 10 15 1 0
BITMAP
0380
0FC0
1E40
1C00
1800
FF80
FF80
1800
1800
1800
1800
1800
1800
1800
1800
ENDCHAR
STARTCHAR C0103-g
ENCODING 103
SWIDTH 589 0
DWIDTH 11 0
BBX 9 14 1 -4
BITMAP
3D80
7F80
E380
E180
E180
E180
E180
E380
7F80
3D80
0380
6380
7F00
3E00
ENDCHAR
STARTCHAR C0104-h
ENCODING 104
SWIDTH 589 0
DWIDTH 11 0
BBX 9 14 1 0
BITMAP
E000
E000
E000
E000
EF00
FF80
E380
E180
E180
E180
E180
E180
E180
E180
ENDCHAR
STARTCHAR C0105-i
ENCODING 105
SWIDTH 589 0
DWIDTH 11 0
BBX 8 14 2 0
BITMAP
18
1C
18
00
F8
F8
18
18
18
18
18
18
FF
FF
ENDCHAR
STARTCHAR C0106-j
ENCODING 106
SWIDTH 589 0
DWIDTH 11 0
BBX 6 18 2 -4
BITMAP
0C
1C
0C
00
7C
7C
1C
1C
1C
1C
1C
1C
1C
1C
1C
1C
F8
F0
ENDCHAR
STARTCHAR C0107-k
ENCODING 107
SWIDTH 589 0
DWIDTH 11 0
BBX 10 14 1 0
BITMAP
E000
E000
E000
E000
E3C0
E700
EE00
FC00
FC00
FE00
E700
E700
E380
E1C0
ENDCHAR
STARTCHAR C0108-l
ENCODING 108
SWIDTH 589 0
DWIDTH 11 0
BBX 8 14 2 0
BITMAP
F8
F8
18
18
18
18
18
18
18
18
18
18
FF
FF
ENDCHAR
STARTCHAR C0109-m
ENCODING 109
SWIDTH 589 0
DWIDTH 11 0
BBX 10 10 1 0
BITMAP
FB80
FF80
DDC0
CDC0
CDC0
CDC0
CDC0
CDC0
CDC0
CDC0
ENDCHAR
STARTCHAR C0110-n
ENCODING 110
SWIDTH 589 0
DWIDTH 11 0
BBX 9 10 1 0
BITMAP
EF00
FF80
E380
E180
E180
E180
E180
E180
E180
E180
ENDCHAR
STARTCHAR C0111-o
ENCODING 111
SWIDTH 589 0
DWIDTH 11 0
BBX 9 10 1 0
BITMAP
3E00
7F00
E380
E180
E180
E180
E180
E380
7F00
3E00
ENDCHAR
STARTCHAR C0112-p
ENCODING 112
SWIDTH 589 0
DWIDTH 11 0
BBX 9 14 1 -4
BITMAP
FF00
FF80
E380
E180
E180
E180
E180
E380
FF00
FF00
E000
E000
E000
E000
ENDCHAR
STARTCHAR C0113-q
ENCODING 113
SWIDTH 589 0
DWIDTH 11 0
BBX 9 14 1 -4
BITMAP
3D80
7F80
E380
E380
E380
E380
E380
E380
7F80
3F80
0380
0380
0380
0380
ENDCHAR
STARTCHAR C0114-r
ENCODING 114
SWIDTH 589 0
DWIDTH 11 0
BBX 7 10 3 0
BITMAP
DE
FE
F2
C0
C0
C0
C0
C0
C0
C0
ENDCHAR
STARTCHAR C0115-s
ENCODING 115
SWIDTH 589 0
DWIDTH 11 0
BBX 9 10 1 0
BITMAP
3F00
7F80
E180
6000
7E00
1F80
0380
E180
7F80
3F00
ENDCHAR
STARTCHAR C0116-t
ENCODING 116
SWIDTH 589 0
DWIDTH 11 0
BBX 9 13 1 0
BITMAP
0000
3800
3800
FF80
FF80
3800
3800
3800
3800
3800
1800
1F80
0F80
ENDCHAR
STARTCHAR C0117-u
ENCODING 117
SWIDTH 589 0
DWIDTH 11 0
BBX 9 10 1 0
BITMAP
E180
E180
E180
E180
E180
E180
E180
6380
7F80
3D80
ENDCHAR
STARTCHAR C0118-v
ENCODING 118
SWIDTH 589 0
DWIDTH 11 0
BBX 10 10 1 0
BITMAP
E1C0
E180
6380
6300
7300
3700
3600
1E00
1C00
1C00
ENDCHAR
STARTCHAR C0119-w
ENCODING 119
SWIDTH 589 0
DWIDTH 11 0
BBX 11 10 0 0
BITMAP
E660
6EE0
6EE0
6EC0
6AC0
6AC0
6BC0
3BC0
3980
3180
ENDCHAR
STARTCHAR C0120-x
ENCODING 120
SWIDTH 589 0
DWIDTH 11 0
BBX 10 10 1 0
BITMAP
E1C0
7380
3700
3E00
1E00
1E00
3F00
3700
7380
E1C0
ENDCHAR
STARTCHAR C0121-y
ENCODING 121
SWIDTH 589 0
DWIDTH 11 0
BBX 11 14 0 -4
BITMAP
F0E0
70E0
30C0
39C0
3980
1B80
1F80
0F00
0F00
0600
0E00
0C00
3C00
3800
ENDCHAR
STARTCHAR C0122-z
ENCODING 122
SWIDTH 589 0
DWIDTH 11 0
BBX 10 10 1 0
BITMAP
FF80
FF80
0700
0F00
0E00
1C00
3800
7000
FFC0
FFC0
ENDCHAR
STARTCHAR C0123-{
ENCODING 123
SWIDTH 589 0
DWIDTH 11 0
BBX 6 18 3 -3
BITMAP
0C
1C
18
38
38
38
38
30
F0
E0
70
30
38
38
38
38
18
0C
ENDCHAR
STARTCHAR C0124-|
ENCODING 124
SWIDTH 589 0
DWIDTH 11 0
BBX 2 18 5 -4
BITMAP
C0
C0
C0
C0
C0
C0
C0
C0
C0
C0
C0
C0
C0
C0
C0
C0
C0
C0
ENDCHAR
STARTCHAR C0125-}
ENCODING 125
SWIDTH 589 0
DWIDTH 11 0
BBX 6 18 3 -3
BITMAP
C0
E0
70
30
30
30
30
30
1C
1C
38
30
30
30
30
70
60
E0
ENDCHAR
STARTCHAR C0126-~
ENCODING 126
SWIDTH 589 0
DWIDTH 11 0
BBX 11 5 0 3
BITMAP
3000
7C60
EFC0
C7C0
0100
ENDCHAR
STARTCHAR C0127
ENCODING 127
SWIDTH 589 0
DWIDTH 11 0
BBX 1 1 0 -1
BITMAP
00
ENDCHAR
STARTCHAR C0128
ENCODING 128
SWIDTH 589 0
DWIDTH 11 0
BBX 9 14 1 0
BITMAP
0780
1F80
1C80
3800
3000
FE00
FE00
3000
FE00
3000
3800
3800
1F80
0F80
ENDCHAR
STARTCHAR C0129
ENCODING 129
SWIDTH 589 0
DWIDTH 11 0
BBX 1 1 0 -1
BITMAP
00
ENDCHAR
STARTCHAR C0130
ENCODING 130
SWIDTH 589 0
DWIDTH 11 0
BBX 3 6 4 -3
BITMAP
00
60
60
60
60
C0
ENDCHAR
STARTCHAR C0131
ENCODING 131
SWIDTH 589 0
DWIDTH 11 0
BBX 9 19 1 -4
BITMAP
0380
0F80
0E80
1C00
1C00
3F00
3F00
1C00
1C00
1C00
1C00
1C00
1C00
1C00
1C00
1C00
1C00
F800
F000
ENDCHAR
STARTCHAR C0132
ENCODING 132
SWIDTH 589 0
DWIDTH 11 0
BBX 6 5 3 -3
BITMAP
6C
6C
6C
D8
D8
ENDCHAR
STARTCHAR C0133
ENCODING 133
SWIDTH 589 0
DWIDTH 11 0
BBX 11 3 1 0
BITMAP
EFC0
EFC0
EFC0
ENDCHAR
STARTCHAR C0134
ENCODING 134
SWIDTH 589 0
DWIDTH 11 0
BBX 9 14 1 0
BITMAP
1C00
1C00
1C00
1C00
FF80
FF80
1C00
1C00
1C00
1C00
1C00
1C00
1C00
1C00
ENDCHAR
STARTCHAR C0135
ENCODING 135
SWIDTH 589 0
DWIDTH 11 0
BBX 9 18 1 -4
BITMAP
1C00
1C00
1C00
1C00
FF80
FF80
1C00
1C00
1C00
1C00
1C00
1C00
FF80
FF80
1C00
1C00
1C00
1C00
ENDCHAR
STARTCHAR C0136
ENCODING 136
SWIDTH 589 0
DWIDTH 11 0
BBX 7 2 1 12
BITMAP
38
EE
ENDCHAR
STARTCHAR C0137
ENCODING 137
SWIDTH 589 0
DWIDTH 11 0
BBX 10 14 1 0
BITMAP
6000
F000
9000
9100
F300
6C00
1800
3000
C000
9FC0
36C0
36C0
36C0
1F80
ENDCHAR
STARTCHAR C0138
ENCODING 138
SWIDTH 589 0
DWIDTH 11 0
BBX 10 17 1 0
BITMAP
7300
1E00
0000
1E00
7F00
7380
E1C0
E000
7000
7E00
1F00
0780
01C0
C1C0
E1C0
7F80
3F00
ENDCHAR
STARTCHAR C0139
ENCODING 139
SWIDTH 589 0
DWIDTH 11 0
BBX 4 8 4 1
BITMAP
30
60
60
C0
C0
60
60
30
ENDCHAR
STARTCHAR C0140
ENCODING 140
SWIDTH 589 0
DWIDTH 11 0
BBX 10 14 1 0
BITMAP
3FC0
7FC0
E600
C600
C600
C600
C780
C780
C600
C600
C600
C600
FFC0
7FC0
ENDCHAR
STARTCHAR C0141
ENCODING 141
SWIDTH 589 0
DWIDTH 11 0
BBX 1 1 0 -1
BITMAP
00
ENDCHAR
STARTCHAR C0142
ENCODING 142
SWIDTH 589 0
DWIDTH 11 0
BBX 10 17 1 0
BITMAP
7300
1E00
0000
FFC0
FFC0
FF80
0380
0700
0E00
0E00
1C00
3800
3800
7000
E000
FFC0
FFC0
ENDCHAR
STARTCHAR C0143
ENCODING 143
SWIDTH 589 0
DWIDTH 11 0
BBX 1 1 0 -1
BITMAP
00
ENDCHAR
STARTCHAR C0144
ENCODING 144
SWIDTH 589 0
DWIDTH 11 0
BBX 1 1 0 -1
BITMAP
00
ENDCHAR
STARTCHAR C0145
ENCODING 145
SWIDTH 589 0
DWIDTH 11 0
BBX 2 6 5 9
BITMAP
40
C0
C0
C0
C0
C0
ENDCHAR
STARTCHAR C0146
ENCODING 146
SWIDTH 589 0
DWIDTH 11 0
BBX 3 5 4 9
BITMAP
60
60
60
C0
40
ENDCHAR
STARTCHAR C0147
ENCODING 147
SWIDTH 589 0
DWIDTH 11 0
BBX 6 6 3 9
BITMAP
44
CC
CC
CC
CC
CC
ENDCHAR
STARTCHAR C0148
ENCODING 148
SWIDTH 589 0
DWIDTH 11 0
BBX 7 5 2 9
BITMAP
66
66
66
CC
44
ENDCHAR
STARTCHAR C0149
ENCODING 149
SWIDTH 589 0
DWIDTH 11 0
BBX 4 4 4 5
BITMAP
F0
F0
F0
F0
ENDCHAR
STARTCHAR C0150
ENCODING 150
SWIDTH 589 0
DWIDTH 11 0
BBX 10 2 1 6
BITMAP
FFC0
FFC0
ENDCHAR
STARTCHAR C0151
ENCODING 151
SWIDTH 589 0
DWIDTH 11 0
BBX 10 2 1 6
BITMAP
FFC0
FFC0
ENDCHAR
STARTCHAR C0152
ENCODING 152
SWIDTH 589 0
DWIDTH 11 0
BBX 7 2 1 12
BITMAP
76
DC
ENDCHAR
STARTCHAR C0153
ENCODING 153
SWIDTH 589 0
DWIDTH 11 0
BBX 10 6 1 8
BITMAP
FCC0
6CC0
6FC0
6FC0
6FC0
0DC0
ENDCHAR
STARTCHAR C0154
ENCODING 154
SWIDTH 589 0
DWIDTH 11 0
BBX 9 14 1 0
BITMAP
7300
1E00
0000
0000
3F00
7F80
E180
6000
7E00
1F80
0380
E180
7F80
3F00
ENDCHAR
STARTCHAR C0155
ENCODING 155
SWIDTH 589 0
DWIDTH 11 0
BBX 4 8 4 1
BITMAP
80
C0
60
60
30
60
C0
80
ENDCHAR
STARTCHAR C0156
ENCODING 156
SWIDTH 589 0
DWIDTH 11 0
BBX 11 10 0 0
BITMAP
3FC0
7FE0
6660
E660
E7E0
E7E0
E600
6600
7FC0
3FE0
ENDCHAR
STARTCHAR C0157
ENCODING 157
SWIDTH 589 0
DWIDTH 11 0
BBX 1 1 0 -1
BITMAP
00
ENDCHAR
STARTCHAR C0158
ENCODING 158
SWIDTH 589 0
DWIDTH 11 0
BBX 10 14 1 0
BITMAP
7300
1E00
0000
0000
FF80
FF80
0700
0F00
0E00
1C00
3800
7000
FFC0
FFC0
ENDCHAR
STARTCHAR C0159
ENCODING 159
SWIDTH 589 0
DWIDTH 11 0
BBX 11 17 0 0
BITMAP
1980
3980
0080
E0E0
70E0
70C0
31C0
3980
1B80
1F00
0F00
0F00
0E00
0E00
0E00
0E00
0E00
ENDCHAR
STARTCHAR C0160
ENCODING 160
SWIDTH 589 0
DWIDTH 11 0
BBX 1 1 0 -1
BITMAP
00
ENDCHAR
STARTCHAR C0161
ENCODING 161
SWIDTH 589 0
DWIDTH 11 0
BBX 3 14 4 -4
BITMAP
60
E0
60
00
00
60
60
60
60
60
60
60
60
60
ENDCHAR
STARTCHAR C0162
ENCODING 162
SWIDTH 589 0
DWIDTH 11 0
BBX 9 14 1 -2
BITMAP
0C00
0C00
3F00
7F80
7380
E180
E000
E000
E000
7180
7F80
3F00
0C00
0C00
ENDCHAR
STARTCHAR C0163
ENCODING 163
SWIDTH 589 0
DWIDTH 11 0
BBX 10 14 1 0
BITMAP
0E00
3F80
3B80
31C0
7000
7000
7000
FE00
FE00
3000
3000
7000
FFC0
FFC0
ENDCHAR
STARTCHAR C0164
ENCODING 164
SWIDTH 589 0
DWIDTH 11 0
BBX 10 10 1 0
BITMAP
4C80
FFC0
6380
C180
C180
C080
C180
6180
FFC0
FE80
ENDCHAR
STARTCHAR C0165
ENCODING 165
SWIDTH 589 0
DWIDTH 11 0
BBX 11 14 0 0
BITMAP
E0E0
70E0
70C0
31C0
3980
1B80
1F00
7FC0
7FC0
0E00
7FC0
0E00
0E00
0E00
ENDCHAR
STARTCHAR C0166
ENCODING 166
SWIDTH 589 0
DWIDTH 11 0
BBX 2 17 5 -3
BITMAP
C0
C0
C0
C0
C0
C0
C0
C0
00
C0
C0
C0
C0
C0
C0
C0
00
ENDCHAR
STARTCHAR C0167
ENCODING 167
SWIDTH 589 0
DWIDTH 11 0
BBX 10 18 1 -4
BITMAP
1E00
7F80
F380
E1C0
E000
F800
7F00
FF80
C3C0
E1C0
F1C0
7F80
1F80
0380
C1C0
E1C0
FF80
3F00
ENDCHAR
STARTCHAR C0168
ENCODING 168
SWIDTH 589 0
DWIDTH 11 0
BBX 7 3 2 11
BITMAP
66
E6
02
ENDCHAR
STARTCHAR C0169
ENCODING 169
SWIDTH 589 0
DWIDTH 11 0
BBX 10 10 1 0
BITMAP
3E00
4100
9C80
B240
A040
A040
B240
9C80
4100
3E00
ENDCHAR
STARTCHAR C0170
ENCODING 170
SWIDTH 589 0
DWIDTH 11 0
BBX 6 8 3 6
BITMAP
30
F8
C8
78
C8
88
FC
60
ENDCHAR
STARTCHAR C0171
ENCODING 171
SWIDTH 589 0
DWIDTH 11 0
BBX 8 8 2 1
BITMAP
33
66
66
CC
CC
66
66
33
ENDCHAR
STARTCHAR C0172
ENCODING 172
SWIDTH 589 0
DWIDTH 11 0
BBX 7 4 2 3
BITMAP
FE
02
02
02
ENDCHAR
STARTCHAR C0173
ENCODING 173
SWIDTH 589 0
DWIDTH 11 0
BBX 7 2 3 5
BITMAP
FE
FE
ENDCHAR
STARTCHAR C0174
ENCODING 174
SWIDTH 589 0
DWIDTH 11 0
BBX 10 10 1 0
BITMAP
3E00
4100
9C80
9240
9640
9C40
9440
9280
4100
3E00
ENDCHAR
STARTCHAR C0175
ENCODING 175
SWIDTH 589 0
DWIDTH 11 0
BBX 6 2 3 12
BITMAP
FC
FC
ENDCHAR
STARTCHAR C0176
ENCODING 176
SWIDTH 589 0
DWIDTH 11 0
BBX 5 5 3 9
BITMAP
30
78
C8
C8
78
ENDCHAR
STARTCHAR C0177
ENCODING 177
SWIDTH 589 0
DWIDTH 11 0
BBX 9 12 1 0
BITMAP
0C00
0C00
0C00
FF80
FF80
0C00
0C00
0C00
0C00
0000
7F80
7F80
ENDCHAR
STARTCHAR C0178
ENCODING 178
SWIDTH 589 0
DWIDTH 11 0
BBX 6 8 3 6
BITMAP
30
F8
C8
18
38
60
FC
FC
ENDCHAR
STARTCHAR C0179
ENCODING 179
SWIDTH 589 0
DWIDTH 11 0
BBX 6 8 3 6
BITMAP
30
F8
0C
38
38
0C
FC
78
ENDCHAR
STARTCHAR C0180
ENCODING 180
SWIDTH 589 0
DWIDTH 11 0
BBX 4 3 4 11
BITMAP
70
E0
C0
ENDCHAR
STARTCHAR C0181
ENCODING 181
SWIDTH 589 0
DWIDTH 11 0
BBX 8 14 2 -4
BITMAP
C3
C3
C3
C3
C3
C3
C3
E3
FF
FF
C0
C0
C0
C0
ENDCHAR
STARTCHAR C0182
ENCODING 182
SWIDTH 589 0
DWIDTH 11 0
BBX 7 14 2 0
BITMAP
0E
7E
7E
FE
FE
FE
FE
7E
3E
06
06
06
06
06
ENDCHAR
STARTCHAR C0183
ENCODING 183
SWIDTH 589 0
DWIDTH 11 0
BBX 3 3 5 5
BITMAP
C0
E0
C0
ENDCHAR
STARTCHAR C0184
ENCODING 184
SWIDTH 589 0
DWIDTH 11 0
BBX 4 4 4 -4
BITMAP
C0
60
70
E0
ENDCHAR
STARTCHAR C0185
ENCODING 185
SWIDTH 589 0
DWIDTH 11 0
BBX 3 7 4 6
BITMAP
E0
E0
60
60
60
60
60
ENDCHAR
STARTCHAR C0186
ENCODING 186
SWIDTH 589 0
DWIDTH 11 0
BBX 7 8 2 6
BITMAP
38
7C
46
C6
C6
46
7C
18
ENDCHAR
STARTCHAR C0187
ENCODING 187
SWIDTH 589 0
DWIDTH 11 0
BBX 7 8 3 1
BITMAP
90
D8
6C
6C
36
6C
D8
90
ENDCHAR
STARTCHAR C0188
ENCODING 188
SWIDTH 589 0
DWIDTH 11 0
BBX 10 14 1 0
BITMAP
2000
E000
E200
6300
6600
6400
6C00
0980
1980
1380
3780
2FC0
07C0
0180
ENDCHAR
STARTCHAR C0189
ENCODING 189
SWIDTH 589 0
DWIDTH 11 0
BBX 11 14 0 0
BITMAP
1000
E000
A200
2300
2200
2600
2400
0DC0
0BE0
1B60
3060
10C0
0300
03E0
ENDCHAR
STARTCHAR C0190
ENCODING 190
SWIDTH 589 0
DWIDTH 11 0
BBX 11 14 0 0
BITMAP
3000
7800
8C80
3880
0D80
CD00
7B00
0260
06E0
0DE0
0960
1BE0
03E0
0060
ENDCHAR
STARTCHAR C0191
ENCODING 191
SWIDTH 589 0
DWIDTH 11 0
BBX 8 14 2 -4
BITMAP
18
18
00
00
18
18
38
70
E0
E0
E3
FF
7E
18
ENDCHAR
STARTCHAR C0192
ENCODING 192
SWIDTH 589 0
DWIDTH 11 0
BBX 11 17 0 0
BITMAP
1C00
0C00
0600
0600
0E00
0F00
0F00
1F00
1B80
1980
3980
39C0
3FC0
7FC0
70E0
60E0
E060
ENDCHAR
STARTCHAR C0193
ENCODING 193
SWIDTH 589 0
DWIDTH 11 0
BBX 11 17 0 0
BITMAP
0380
0700
0600
0600
0E00
0F00
0F00
1F00
1B80
1980
3980
39C0
3FC0
7FC0
70E0
60E0
E060
ENDCHAR
STARTCHAR C0194
ENCODING 194
SWIDTH 589 0
DWIDTH 11 0
BBX 11 17 0 0
BITMAP
0E00
1B00
2080
0600
0E00
0F00
0F00
1F00
1B80
1980
3980
39C0
3FC0
7FC0
70E0
60E0
E060
ENDCHAR
STARTCHAR C0195
ENCODING 195
SWIDTH 589 0
DWIDTH 11 0
BBX 11 17 0 0
BITMAP
1D80
3700
0000
0600
0E00
0F00
0F00
1F00
1B80
1980
3980
39C0
3FC0
7FC0
70E0
60E0
E060
ENDCHAR
STARTCHAR C0196
ENCODING 196
SWIDTH 589 0
DWIDTH 11 0
BBX 11 17 0 0
BITMAP
1980
3980
0080
0600
0E00
0F00
0F00
1F00
1B80
1980
3980
39C0
3FC0
7FC0
70E0
60E0
E060
ENDCHAR
STARTCHAR C0197
ENCODING 197
SWIDTH 589 0
DWIDTH 11 0
BBX 11 18 0 0
BITMAP
0E00
0900
0E00
0000
0600
0E00
0F00
0F00
1F00
1B80
1980
3980
39C0
3FC0
7FC0
70E0
60E0
E060
ENDCHAR
STARTCHAR C0198
ENCODING 198
SWIDTH 589 0
DWIDTH 11 0
BBX 11 14 0 0
BITMAP
07E0
07E0
0FE0
0F00
0F00
1B00
1BC0
1BC0
3B00
3F00
3F00
7300
63E0
E3E0
ENDCHAR
STARTCHAR C0199
ENCODING 199
SWIDTH 589 0
DWIDTH 11 0
BBX 10 18 1 -4
BITMAP
1C00
3F00
7780
E180
E1C0
C000
C000
C000
C000
C000
E1C0
E380
7F80
3E00
1800
0C00
0E00
1C00
ENDCHAR
STARTCHAR C0200
ENCODING 200
SWIDTH 589 0
DWIDTH 11 0
BBX 9 17 1 0
BITMAP
3800
1800
0C00
FF80
FF80
FF80
E000
E000
E000
FF80
FF80
E000
E000
E000
E000
FF80
FF80
ENDCHAR
STARTCHAR C0201
ENCODING 201
SWIDTH 589 0
DWIDTH 11 0
BBX 9 17 1 0
BITMAP
0700
0E00
0C00
FF80
FF80
FF80
E000
E000
E000
FF80
FF80
E000
E000
E000
E000
FF80
FF80
ENDCHAR
STARTCHAR C0202
ENCODING 202
SWIDTH 589 0
DWIDTH 11 0
BBX 9 17 1 0
BITMAP
1C00
3600
4100
FF80
FF80
FF80
E000
E000
E000
FF80
FF80
E000
E000
E000
E000
FF80
FF80
ENDCHAR
STARTCHAR C0203
ENCODING 203
SWIDTH 589 0
DWIDTH 11 0
BBX 9 17 1 0
BITMAP
3300
7300
0100
FF80
FF80
FF80
E000
E000
E000
FF80
FF80
E000
E000
E000
E000
FF80
FF80
ENDCHAR
STARTCHAR C0204
ENCODING 204
SWIDTH 589 0
DWIDTH 11 0
BBX 8 17 2 0
BITMAP
E0
60
30
FF
FF
FF
38
38
38
38
38
38
38
38
38
FF
FF
ENDCHAR
STARTCHAR C0205
ENCODING 205
SWIDTH 589 0
DWIDTH 11 0
BBX 8 17 2 0
BITMAP
0E
1C
18
FF
FF
FF
38
38
38
38
38
38
38
38
38
FF
FF
ENDCHAR
STARTCHAR C0206
ENCODING 206
SWIDTH 589 0
DWIDTH 11 0
BBX 8 17 2 0
BITMAP
38
6C
82
FF
FF
FF
38
38
38
38
38
38
38
38
38
FF
FF
ENDCHAR
STARTCHAR C0207
ENCODING 207
SWIDTH 589 0
DWIDTH 11 0
BBX 8 17 2 0
BITMAP
66
E6
02
FF
FF
FF
38
38
38
38
38
38
38
38
38
FF
FF
ENDCHAR
STARTCHAR C0208
ENCODING 208
SWIDTH 589 0
DWIDTH 11 0
BBX 11 14 0 0
BITMAP
7800
7F00
7F80
71C0
70C0
70E0
FCE0
FCE0
70E0
70E0
71C0
73C0
7F80
7E00
ENDCHAR
STARTCHAR C0209
ENCODING 209
SWIDTH 589 0
DWIDTH 11 0
BBX 9 17 1 0
BITMAP
3B00
6E00
0000
E180
E180
F180
F180
F180
F980
F980
ED80
ED80
E780
E780
E780
E380
E380
ENDCHAR
STARTCHAR C0210
ENCODING 210
SWIDTH 589 0
DWIDTH 11 0
BBX 10 17 1 0
BITMAP
7000
3000
1800
1C00
7F00
7780
E380
E180
C1C0
C1C0
C1C0
C1C0
C1C0
E180
E380
7F00
3E00
ENDCHAR
STARTCHAR C0211
ENCODING 211
SWIDTH 589 0
DWIDTH 11 0
BBX 10 17 1 0
BITMAP
0700
0E00
0C00
1C00
7F00
7780
E380
E180
C1C0
C1C0
C1C0
C1C0
C1C0
E180
E380
7F00
3E00
ENDCHAR
STARTCHAR C0212
ENCODING 212
SWIDTH 589 0
DWIDTH 11 0
BBX 10 17 1 0
BITMAP
1C00
3600
4100
1C00
7F00
7780
E380
E180
C1C0
C1C0
C1C0
C1C0
C1C0
E180
E380
7F00
3E00
ENDCHAR
STARTCHAR C0213
ENCODING 213
SWIDTH 589 0
DWIDTH 11 0
BBX 10 17 1 0
BITMAP
3B00
6E00
0000
1C00
7F00
7780
E380
E180
C1C0
C1C0
C1C0
C1C0
C1C0
E180
E380
7F00
3E00
ENDCHAR
STARTCHAR C0214
ENCODING 214
SWIDTH 589 0
DWIDTH 11 0
BBX 10 17 1 0
BITMAP
3300
7300
0100
1C00
7F00
7780
E380
E180
C1C0
C1C0
C1C0
C1C0
C1C0
E180
E380
7F00
3E00
ENDCHAR
STARTCHAR C0215
ENCODING 215
SWIDTH 589 0
DWIDTH 11 0
BBX 9 9 1 2
BITMAP
4100
E380
7700
3E00
1C00
3E00
7F00
F380
6100
ENDCHAR
STARTCHAR C0216
ENCODING 216
SWIDTH 589 0
DWIDTH 11 0
BBX 11 15 0 -1
BITMAP
0E60
1FC0
3BC0
71C0
73E0
62E0
66E0
64E0
6CE0
78E0
78C0
71C0
3F80
7F00
C000
ENDCHAR
STARTCHAR C0217
ENCODING 217
SWIDTH 589 0
DWIDTH 11 0
BBX 9 17 1 0
BITMAP
3800
1800
0C00
E180
E180
E180
E180
E180
E180
E180
E180
E180
E180
E180
6380
7F00
3E00
ENDCHAR
STARTCHAR C0218
ENCODING 218
SWIDTH 589 0
DWIDTH 11 0
BBX 9 17 1 0
BITMAP
0700
0E00
0C00
E180
E180
E180
E180
E180
E180
E180
E180
E180
E180
E180
6380
7F00
3E00
ENDCHAR
STARTCHAR C0219
ENCODING 219
SWIDTH 589 0
DWIDTH 11 0
BBX 9 17 1 0
BITMAP
1C00
3600
4100
E180
E180
E180
E180
E180
E180
E180
E180
E180
E180
E180
6380
7F00
3E00
ENDCHAR
STARTCHAR C0220
ENCODING 220
SWIDTH 589 0
DWIDTH 11 0
BBX 9 17 1 0
BITMAP
3300
7300
0100
E180
E180
E180
E180
E180
E180
E180
E180
E180
E180
E180
6380
7F00
3E00
ENDCHAR
STARTCHAR C0221
ENCODING 221
SWIDTH 589 0
DWIDTH 11 0
BBX 11 17 0 0
BITMAP
0380
0700
0600
E0E0
70E0
70C0
31C0
3980
1B80
1F00
0F00
0F00
0E00
0E00
0E00
0E00
0E00
ENDCHAR
STARTCHAR C0222
ENCODING 222
SWIDTH 589 0
DWIDTH 11 0
BBX 10 14 1 0
BITMAP
E000
E000
E000
FF00
FF80
E1C0
E1C0
E1C0
E1C0
FF80
FF00
E000
E000
E000
ENDCHAR
STARTCHAR C0223
ENCODING 223
SWIDTH 589 0
DWIDTH 11 0
BBX 10 14 1 0
BITMAP
3F00
7F00
6380
6300
6300
6700
6700
6700
6380
61C0
61C0
61C0
6FC0
6F80
ENDCHAR
STARTCHAR C0224
ENCODING 224
SWIDTH 589 0
DWIDTH 11 0
BBX 9 14 1 0
BITMAP
7000
3000
1800
0000
3E00
7F00
E380
0380
3F80
7380
E380
E380
FF80
7F80
ENDCHAR
STARTCHAR C0225
ENCODING 225
SWIDTH 589 0
DWIDTH 11 0
BBX 9 14 1 0
BITMAP
0700
0E00
0C00
0000
3E00
7F00
E380
0380
3F80
7380
E380
E380
FF80
7F80
ENDCHAR
STARTCHAR C0226
ENCODING 226
SWIDTH 589 0
DWIDTH 11 0
BBX 9 14 1 0
BITMAP
1C00
3600
4100
0000
3E00
7F00
E380
0380
3F80
7380
E380
E380
FF80
7F80
ENDCHAR
STARTCHAR C0227
ENCODING 227
SWIDTH 589 0
DWIDTH 11 0
BBX 9 14 1 0
BITMAP
3B00
6E00
0000
0000
3E00
7F00
E380
0380
3F80
7380
E380
E380
FF80
7F80
ENDCHAR
STARTCHAR C0228
ENCODING 228
SWIDTH 589 0
DWIDTH 11 0
BBX 9 14 1 0
BITMAP
3300
7300
0100
0000
3E00
7F00
E380
0380
3F80
7380
E380
E380
FF80
7F80
ENDCHAR
STARTCHAR C0229
ENCODING 229
SWIDTH 589 0
DWIDTH 11 0
BBX 9 15 1 0
BITMAP
1C00
1200
1C00
0000
0000
3E00
7F00
E380
0380
3F80
7380
E380
E380
FF80
7F80
ENDCHAR
STARTCHAR C0230
ENCODING 230
SWIDTH 589 0
DWIDTH 11 0
BBX 11 10 0 0
BITMAP
3FC0
7FE0
6660
0660
3FE0
7FE0
E600
E600
7FE0
7BE0
ENDCHAR
STARTCHAR C0231
ENCODING 231
SWIDTH 589 0
DWIDTH 11 0
BBX 9 14 1 -4
BITMAP
3E00
7F00
6380
E180
E000
E000
E000
6380
7F00
3E00
1800
0C00
0E00
1C00
ENDCHAR
STARTCHAR C0232
ENCODING 232
SWIDTH 589 0
DWIDTH 11 0
BBX 9 14 1 0
BITMAP
7000
3000
1800
0000
3F00
7F80
6380
E180
FF80
FF80
E000
7100
7F80
3F00
ENDCHAR
STARTCHAR C0233
ENCODING 233
SWIDTH 589 0
DWIDTH 11 0
BBX 9 14 1 0
BITMAP
0700
0E00
0C00
0000
3F00
7F80
6380
E180
FF80
FF80
E000
7100
7F80
3F00
ENDCHAR
STARTCHAR C0234
ENCODING 234
SWIDTH 589 0
DWIDTH 11 0
BBX 9 14 1 0
BITMAP
1C00
3600
4100
0000
3F00
7F80
6380
E180
FF80
FF80
E000
7100
7F80
3F00
ENDCHAR
STARTCHAR C0235
ENCODING 235
SWIDTH 589 0
DWIDTH 11 0
BBX 9 14 1 0
BITMAP
3300
7300
0100
0000
3F00
7F80
6380
E180
FF80
FF80
E000
7100
7F80
3F00
ENDCHAR
STARTCHAR C0236
ENCODING 236
SWIDTH 589 0
DWIDTH 11 0
BBX 8 14 2 0
BITMAP
70
30
18
00
F8
F8
18
18
18
18
18
18
FF
FF
ENDCHAR
STARTCHAR C0237
ENCODING 237
SWIDTH 589 0
DWIDTH 11 0
BBX 8 14 2 0
BITMAP
07
0E
0C
00
F8
F8
18
18
18
18
18
18
FF
FF
ENDCHAR
STARTCHAR C0238
ENCODING 238
SWIDTH 589 0
DWIDTH 11 0
BBX 8 14 2 0
BITMAP
1C
36
41
00
F8
F8
18
18
18
18
18
18
FF
FF
ENDCHAR
STARTCHAR C0239
ENCODING 239
SWIDTH 589 0
DWIDTH 11 0
BBX 8 14 2 0
BITMAP
66
E6
02
00
F8
F8
18
18
18
18
18
18
FF
FF
ENDCHAR
STARTCHAR C0240
ENCODING 240
SWIDTH 589 0
DWIDTH 11 0
BBX 10 14 0 0
BITMAP
0C40
0FC0
0780
1F80
09C0
1FC0
7FC0
71C0
E0C0
E0C0
E1C0
71C0
7F80
1F00
ENDCHAR
STARTCHAR C0241
ENCODING 241
SWIDTH 589 0
DWIDTH 11 0
BBX 9 14 1 0
BITMAP
3B00
6E00
0000
0000
EF00
FF80
E380
E180
E180
E180
E180
E180
E180
E180
ENDCHAR
STARTCHAR C0242
ENCODING 242
SWIDTH 589 0
DWIDTH 11 0
BBX 9 14 1 0
BITMAP
3800
1800
0C00
0000
3E00
7F00
E380
E180
E180
E180
E180
E380
7F00
3E00
ENDCHAR
STARTCHAR C0243
ENCODING 243
SWIDTH 589 0
DWIDTH 11 0
BBX 9 14 1 0
BITMAP
0700
0E00
0C00
0000
3E00
7F00
E380
E180
E180
E180
E180
E380
7F00
3E00
ENDCHAR
STARTCHAR C0244
ENCODING 244
SWIDTH 589 0
DWIDTH 11 0
BBX 9 14 1 0
BITMAP
1C00
3600
4100
0000
3E00
7F00
E380
E180
E180
E180
E180
E380
7F00
3E00
ENDCHAR
STARTCHAR C0245
ENCODING 245
SWIDTH 589 0
DWIDTH 11 0
BBX 9 14 1 0
BITMAP
3B00
6E00
0000
0000
3E00
7F00
E380
E180
E180
E180
E180
E380
7F00
3E00
ENDCHAR
STARTCHAR C0246
ENCODING 246
SWIDTH 589 0
DWIDTH 11 0
BBX 9 14 1 0
BITMAP
3300
7300
0100
0000
3E00
7F00
E380
E180
E180
E180
E180
E380
7F00
3E00
ENDCHAR
STARTCHAR C0247
ENCODING 247
SWIDTH 589 0
DWIDTH 11 0
BBX 10 10 1 1
BITMAP
1C00
1C00
0000
0000
FF80
FF80
0000
0C00
1C00
0C00
ENDCHAR
STARTCHAR C0248
ENCODING 248
SWIDTH 589 0
DWIDTH 11 0
BBX 9 12 1 -1
BITMAP
0180
3F00
7F00
E780
E580
ED80
E980
F980
F380
7F00
3E00
6000
ENDCHAR
STARTCHAR C0249
ENCODING 249
SWIDTH 589 0
DWIDTH 11 0
BBX 9 14 1 0
BITMAP
3800
1800
0C00
0000
E180
E180
E180
E180
E180
E180
E180
6380
7F80
3D80
ENDCHAR
STARTCHAR C0250
ENCODING 250
SWIDTH 589 0
DWIDTH 11 0
BBX 9 14 1 0
BITMAP
0700
0E00
0C00
0000
E180
E180
E180
E180
E180
E180
E180
6380
7F80
3D80
ENDCHAR
STARTCHAR C0251
ENCODING 251
SWIDTH 589 0
DWIDTH 11 0
BBX 9 14 1 0
BITMAP
1C00
3600
4100
0000
E180
E180
E180
E180
E180
E180
E180
6380
7F80
3D80
ENDCHAR
STARTCHAR C0252
ENCODING 252
SWIDTH 589 0
DWIDTH 11 0
BBX 9 14 1 0
BITMAP
3300
7300
0100
0000
E180
E180
E180
E180
E180
E180
E180
6380
7F80
3D80
ENDCHAR
STARTCHAR C0253
ENCODING 253
SWIDTH 589 0
DWIDTH 11 0
BBX 11 18 0 -4
BITMAP
0380
0700
0600
8000
70E0
70E0
30C0
39C0
3980
1B80
1F80
0F00
0F00
0600
0E00
0C00
3C00
3800
ENDCHAR
STARTCHAR C0254
ENCODING 254
SWIDTH 589 0
DWIDTH 11 0
BBX 9 18 1 -4
BITMAP
E000
E000
E000
E000
FF00
FF80
E380
E180
E180
E180
E180
E380
FF00
FF00
E000
E000
E000
E000
ENDCHAR
STARTCHAR C0255
ENCODING 255
SWIDTH 589 0
DWIDTH 11 0
BBX 11 18 0 -4
BITMAP
1980
3980
0080
8000
70E0
70E0
30C0
39C0
3980
1B80
1F80
0F00
0F00
0600
0E00
0C00
3C00
3800
ENDCHAR
ENDFONT

