<svg xmlns="http://www.w3.org/2000/svg" width="194" height="66.84" viewBox="0 0 194 66.84">
    <g id="Logo" transform="translate(0.354)">
        <g id="THW_Logo" data-name="THW Logo" transform="translate(0 0)">
            <path id="Pfad_1147" data-name="Pfad 1147" d="M4.708,0,3.091-2.772q-.11.011-.225.011H2.354V0H.88V-7.59h1.8a3.776,3.776,0,0,1,2.365.605,2.117,2.117,0,0,1,.759,1.76,2.363,2.363,0,0,1-.325,1.243,2.252,2.252,0,0,1-.984.858L6.446,0Zm-.44-5.214a1.025,1.025,0,0,0-.385-.88,2.02,2.02,0,0,0-1.2-.286h-.33v2.453h.275a1.9,1.9,0,0,0,1.237-.336A1.171,1.171,0,0,0,4.268-5.214Zm6.963,1.87a5.671,5.671,0,0,1-.028.611q-.028.247-.061.434H8.272a1.313,1.313,0,0,0,.424.974,1.619,1.619,0,0,0,1.028.291,2.059,2.059,0,0,0,.473-.049,2.069,2.069,0,0,0,.368-.121,2,2,0,0,0,.27-.143q.11-.072.165-.115l.319.968-.187.159a1.505,1.505,0,0,1-.346.209,2.884,2.884,0,0,1-.561.182,3.665,3.665,0,0,1-.809.077A3.034,3.034,0,0,1,8.41-.028a1.993,1.993,0,0,1-.786-.5,2.293,2.293,0,0,1-.511-.885,4.142,4.142,0,0,1-.181-1.3,3.581,3.581,0,0,1,.192-1.238,2.387,2.387,0,0,1,.528-.864,2.112,2.112,0,0,1,.781-.506,2.686,2.686,0,0,1,.94-.165,1.76,1.76,0,0,1,1.364.539A2.3,2.3,0,0,1,11.231-3.344ZM9.24-4.411a.887.887,0,0,0-.687.3,1.367,1.367,0,0,0-.292.891H9.988A.983.983,0,0,0,10-3.361v-.115a1.078,1.078,0,0,0-.2-.682A.671.671,0,0,0,9.24-4.411Zm7.7-.088h-.649a1.677,1.677,0,0,1,.22.847,1.825,1.825,0,0,1-.165.8,1.62,1.62,0,0,1-.457.572,1.924,1.924,0,0,1-.682.341,3.093,3.093,0,0,1-.842.11,3.831,3.831,0,0,1-.517-.033.523.523,0,0,0-.17.154.384.384,0,0,0-.071.231q0,.308.385.308h1.155a2.292,2.292,0,0,1,1.359.352A1.275,1.275,0,0,1,17,.3a1.691,1.691,0,0,1-.187.775,1.872,1.872,0,0,1-.561.649,2.917,2.917,0,0,1-.935.445,4.613,4.613,0,0,1-1.3.165,2.659,2.659,0,0,1-1.573-.374A1.214,1.214,0,0,1,11.935.924a1.129,1.129,0,0,1,.088-.462,1.318,1.318,0,0,1,.215-.341,1.416,1.416,0,0,1,.275-.242q.148-.1.27-.165V-.308a.872.872,0,0,1-.319-.726.922.922,0,0,1,.082-.4,1.562,1.562,0,0,1,.187-.308,1.364,1.364,0,0,1,.215-.22,1.093,1.093,0,0,1,.176-.121V-2.09a1.717,1.717,0,0,1-.649-.605,1.766,1.766,0,0,1-.242-.957,1.837,1.837,0,0,1,.17-.819,1.636,1.636,0,0,1,.457-.572,1.919,1.919,0,0,1,.677-.335,3.093,3.093,0,0,1,.842-.11,2.527,2.527,0,0,1,.825.132h1.87ZM13.86-.044q-.121,0-.231-.005T13.42-.066a.819.819,0,0,0-.214.242.778.778,0,0,0-.094.407.618.618,0,0,0,.269.566,1.457,1.457,0,0,0,.776.171,2.352,2.352,0,0,0,1.193-.242.7.7,0,0,0,.4-.605.458.458,0,0,0-.165-.4A1.03,1.03,0,0,0,15-.044Zm1.419-3.608a.78.78,0,0,0-.269-.665,1,1,0,0,0-.622-.2,1.068,1.068,0,0,0-.644.2.766.766,0,0,0-.28.665A.76.76,0,0,0,13.739-3a1.027,1.027,0,0,0,.627.2,1.063,1.063,0,0,0,.638-.2A.758.758,0,0,0,15.279-3.652ZM19.393,0H18.007V-5.357h1.386Zm.11-7.062a.759.759,0,0,1-.226.578.8.8,0,0,1-.578.214.819.819,0,0,1-.588-.214.759.759,0,0,1-.226-.578.773.773,0,0,1,.226-.589.819.819,0,0,1,.588-.214.8.8,0,0,1,.578.214A.773.773,0,0,1,19.5-7.062Zm5.951,4.378a3.368,3.368,0,0,1-.209,1.243,2.538,2.538,0,0,1-.556.875,2.3,2.3,0,0,1-.8.523,2.55,2.55,0,0,1-.935.176,2.672,2.672,0,0,1-.946-.165,2.041,2.041,0,0,1-.77-.512,2.412,2.412,0,0,1-.517-.88,3.813,3.813,0,0,1-.187-1.26,3.335,3.335,0,0,1,.209-1.232A2.6,2.6,0,0,1,21.3-4.8a2.2,2.2,0,0,1,.8-.523,2.623,2.623,0,0,1,.935-.17,2.718,2.718,0,0,1,.951.165,2.015,2.015,0,0,1,.77.506,2.4,2.4,0,0,1,.511.875A3.813,3.813,0,0,1,25.454-2.684Zm-1.419,0a2.994,2.994,0,0,0-.083-.753,1.411,1.411,0,0,0-.225-.5.9.9,0,0,0-.33-.275A.919.919,0,0,0,23-4.3a.927.927,0,0,0-.737.374,1.967,1.967,0,0,0-.308,1.243,1.986,1.986,0,0,0,.308,1.26A.932.932,0,0,0,23-1.056a.955.955,0,0,0,.4-.088.814.814,0,0,0,.33-.286,1.618,1.618,0,0,0,.22-.506A2.928,2.928,0,0,0,24.035-2.684ZM29.821,0V-3.168a1.446,1.446,0,0,0-.2-.864.767.767,0,0,0-.654-.27,1.344,1.344,0,0,0-.583.116,1.575,1.575,0,0,0-.4.258V0H26.6V-5.357h1.276v.594H27.9a2.5,2.5,0,0,1,.2-.226,1.557,1.557,0,0,1,.314-.236,2.01,2.01,0,0,1,.445-.187,2.062,2.062,0,0,1,.588-.077,1.6,1.6,0,0,1,1.309.544A2.361,2.361,0,0,1,31.207-3.4V0Zm2.453-1.474a1.341,1.341,0,0,1,.192-.726,1.536,1.536,0,0,1,.523-.506,2.59,2.59,0,0,1,.775-.3,4.433,4.433,0,0,1,.963-.1h.22v-.187q0-1.045-.9-1.045a1.688,1.688,0,0,0-.451.055,1.861,1.861,0,0,0-.358.138,1.877,1.877,0,0,0-.275.17,1.838,1.838,0,0,0-.182.154l-.429-.88q.1-.1.264-.237a2.1,2.1,0,0,1,.407-.259,3.062,3.062,0,0,1,.567-.209,2.845,2.845,0,0,1,.743-.088,1.9,1.9,0,0,1,1.452.539,2.43,2.43,0,0,1,.506,1.705v1.8q0,.462.028.825t.06.616H35.1q-.011-.121-.022-.281t-.011-.314h-.022a1.8,1.8,0,0,1-.171.253,1.2,1.2,0,0,1-.253.237,1.3,1.3,0,0,1-.358.171,1.651,1.651,0,0,1-.495.066,1.42,1.42,0,0,1-1.078-.44A1.623,1.623,0,0,1,32.274-1.474Zm1.892.528a.954.954,0,0,0,.479-.1,1.444,1.444,0,0,0,.3-.225v-.99l-.275.011a2.026,2.026,0,0,0-.814.182.5.5,0,0,0-.275.467.689.689,0,0,0,.165.473A.533.533,0,0,0,34.166-.946Zm4.862-.781a1.048,1.048,0,0,0,.11.577A.422.422,0,0,0,39.5-1a.981.981,0,0,0,.248-.028,1.45,1.45,0,0,0,.159-.049L40-.11a1.668,1.668,0,0,1-.319.132,1.958,1.958,0,0,1-.6.077,2.043,2.043,0,0,1-.6-.083,1.016,1.016,0,0,1-.451-.275,1.292,1.292,0,0,1-.281-.506,2.563,2.563,0,0,1-.1-.765V-7.755l1.386-.121Zm4.664-2.266a1.844,1.844,0,0,0-.16-.11,2.4,2.4,0,0,0-.242-.132,1.62,1.62,0,0,0-.319-.11,1.654,1.654,0,0,0-.39-.044,1.044,1.044,0,0,0-.534.11.313.313,0,0,0-.181.264.407.407,0,0,0,.16.336,3.293,3.293,0,0,0,.533.313l.319.154a5.887,5.887,0,0,1,.556.314,1.955,1.955,0,0,1,.424.363,1.585,1.585,0,0,1,.275.451,1.549,1.549,0,0,1,.1.577A1.5,1.5,0,0,1,43.72-.314a2.244,2.244,0,0,1-1.513.446,2.993,2.993,0,0,1-.638-.06,3.2,3.2,0,0,1-.484-.143,1.745,1.745,0,0,1-.352-.182,2.56,2.56,0,0,1-.242-.187l.429-1.122q.077.077.2.176a1.608,1.608,0,0,0,.28.181,2.2,2.2,0,0,0,.352.143A1.368,1.368,0,0,0,42.163-1a1.3,1.3,0,0,0,.566-.1.321.321,0,0,0,.215-.292.462.462,0,0,0-.044-.209.516.516,0,0,0-.138-.165,1.388,1.388,0,0,0-.242-.154l-.357-.187-.319-.165a2.718,2.718,0,0,1-.886-.655,1.513,1.513,0,0,1-.325-1.018,1.407,1.407,0,0,1,.143-.638,1.381,1.381,0,0,1,.4-.484,1.96,1.96,0,0,1,.6-.308,2.517,2.517,0,0,1,.764-.11,2.763,2.763,0,0,1,.583.055,2.458,2.458,0,0,1,.434.132,1.762,1.762,0,0,1,.3.159q.121.083.187.138Zm4.51-.264H46.97V-2.09a1.434,1.434,0,0,0,.165.814.643.643,0,0,0,.55.22,1.406,1.406,0,0,0,.341-.039q.154-.038.22-.061l.1,1.023q-.088.044-.325.143a1.894,1.894,0,0,1-.7.1A2.426,2.426,0,0,1,46.547,0a1.214,1.214,0,0,1-.539-.358A1.583,1.583,0,0,1,45.688-1a3.782,3.782,0,0,1-.1-.963v-2.3h-.726V-5.2l.726-.132.154-1.5H46.97v1.474h1.353Zm5.159.913a5.67,5.67,0,0,1-.028.611q-.028.247-.06.434H50.4a1.313,1.313,0,0,0,.424.974,1.619,1.619,0,0,0,1.028.291,2.059,2.059,0,0,0,.473-.049A2.069,2.069,0,0,0,52.7-1.2a2,2,0,0,0,.269-.143q.11-.072.165-.115l.319.968-.187.159a1.505,1.505,0,0,1-.347.209,2.884,2.884,0,0,1-.561.182,3.665,3.665,0,0,1-.808.077,3.034,3.034,0,0,1-1.007-.16,1.993,1.993,0,0,1-.786-.5,2.293,2.293,0,0,1-.512-.885,4.142,4.142,0,0,1-.181-1.3,3.581,3.581,0,0,1,.193-1.238,2.387,2.387,0,0,1,.528-.864,2.112,2.112,0,0,1,.781-.506,2.686,2.686,0,0,1,.941-.165,1.76,1.76,0,0,1,1.364.539A2.3,2.3,0,0,1,53.361-3.344ZM51.37-4.411a.887.887,0,0,0-.687.3,1.367,1.367,0,0,0-.292.891h1.727a.983.983,0,0,0,.011-.138v-.115a1.078,1.078,0,0,0-.2-.682A.671.671,0,0,0,51.37-4.411Zm4.576,2.684a1.048,1.048,0,0,0,.11.577A.422.422,0,0,0,56.419-1a.981.981,0,0,0,.248-.028,1.45,1.45,0,0,0,.16-.049l.088.968A1.668,1.668,0,0,1,56.6.022a1.958,1.958,0,0,1-.6.077,2.043,2.043,0,0,1-.6-.083,1.016,1.016,0,0,1-.451-.275,1.292,1.292,0,0,1-.281-.506,2.563,2.563,0,0,1-.1-.765V-7.755l1.386-.121Zm3.179,0a1.048,1.048,0,0,0,.11.577A.422.422,0,0,0,59.6-1a.981.981,0,0,0,.248-.028,1.45,1.45,0,0,0,.16-.049l.088.968a1.668,1.668,0,0,1-.319.132,1.958,1.958,0,0,1-.6.077,2.043,2.043,0,0,1-.6-.083,1.016,1.016,0,0,1-.451-.275,1.292,1.292,0,0,1-.281-.506,2.563,2.563,0,0,1-.1-.765V-7.755l1.386-.121Zm5.863-1.617a5.67,5.67,0,0,1-.028.611q-.028.247-.061.434H62.029a1.313,1.313,0,0,0,.424.974,1.619,1.619,0,0,0,1.028.291,2.059,2.059,0,0,0,.473-.049,2.068,2.068,0,0,0,.368-.121,2,2,0,0,0,.27-.143q.11-.072.165-.115l.319.968-.187.159a1.505,1.505,0,0,1-.347.209,2.884,2.884,0,0,1-.561.182,3.665,3.665,0,0,1-.808.077,3.034,3.034,0,0,1-1.007-.16,1.993,1.993,0,0,1-.786-.5,2.293,2.293,0,0,1-.512-.885,4.142,4.142,0,0,1-.181-1.3,3.581,3.581,0,0,1,.193-1.238,2.387,2.387,0,0,1,.528-.864,2.112,2.112,0,0,1,.781-.506,2.686,2.686,0,0,1,.941-.165,1.76,1.76,0,0,1,1.364.539A2.3,2.3,0,0,1,64.988-3.344ZM63-4.411a.887.887,0,0,0-.687.3,1.367,1.367,0,0,0-.292.891h1.727a.983.983,0,0,0,.011-.138v-.115a1.078,1.078,0,0,0-.2-.682A.671.671,0,0,0,63-4.411ZM73.469-5.588a1.776,1.776,0,0,1-.121.693,1.44,1.44,0,0,1-.319.479,1.644,1.644,0,0,1-.44.308,3.8,3.8,0,0,1-.484.192v.022a2.462,2.462,0,0,1,.544.187,1.929,1.929,0,0,1,.512.352,1.741,1.741,0,0,1,.374.522,1.617,1.617,0,0,1,.143.7,2.024,2.024,0,0,1-.182.863,1.746,1.746,0,0,1-.561.671,2.887,2.887,0,0,1-.968.44,5.41,5.41,0,0,1-1.4.16H68.673V-7.59h1.793a6.131,6.131,0,0,1,1.408.138,2.5,2.5,0,0,1,.924.4,1.562,1.562,0,0,1,.512.633A2.071,2.071,0,0,1,73.469-5.588Zm-1.485.11a.812.812,0,0,0-.347-.693,2.047,2.047,0,0,0-1.172-.253h-.319v2.035h.308a1.9,1.9,0,0,0,1.16-.286A.958.958,0,0,0,71.984-5.478Zm.176,3.245a.847.847,0,0,0-.39-.754,2.068,2.068,0,0,0-1.139-.258h-.484v2.057h.418a2.169,2.169,0,0,0,1.221-.264A.894.894,0,0,0,72.16-2.233ZM76.3,0H74.91V-5.357H76.3Zm.11-7.062a.759.759,0,0,1-.225.578.8.8,0,0,1-.577.214.819.819,0,0,1-.589-.214.759.759,0,0,1-.226-.578.773.773,0,0,1,.226-.589.819.819,0,0,1,.589-.214.8.8,0,0,1,.577.214A.773.773,0,0,1,76.406-7.062Zm5.346,3.718a5.67,5.67,0,0,1-.027.611q-.028.247-.061.434H78.793a1.313,1.313,0,0,0,.424.974,1.619,1.619,0,0,0,1.029.291,2.059,2.059,0,0,0,.473-.049,2.068,2.068,0,0,0,.368-.121,2,2,0,0,0,.27-.143q.11-.072.165-.115L81.84-.5l-.187.159a1.505,1.505,0,0,1-.346.209,2.884,2.884,0,0,1-.561.182,3.665,3.665,0,0,1-.808.077,3.034,3.034,0,0,1-1.007-.16,1.993,1.993,0,0,1-.787-.5,2.293,2.293,0,0,1-.511-.885,4.142,4.142,0,0,1-.182-1.3,3.581,3.581,0,0,1,.193-1.238,2.387,2.387,0,0,1,.528-.864,2.113,2.113,0,0,1,.781-.506,2.686,2.686,0,0,1,.94-.165,1.76,1.76,0,0,1,1.364.539A2.3,2.3,0,0,1,81.752-3.344ZM79.761-4.411a.887.887,0,0,0-.687.3,1.367,1.367,0,0,0-.292.891h1.727a.983.983,0,0,0,.011-.138v-.115a1.078,1.078,0,0,0-.2-.682A.671.671,0,0,0,79.761-4.411Zm4.576,2.684a1.048,1.048,0,0,0,.11.577A.422.422,0,0,0,84.81-1a.981.981,0,0,0,.247-.028,1.45,1.45,0,0,0,.16-.049l.088.968a1.668,1.668,0,0,1-.319.132A1.958,1.958,0,0,1,84.381.1a2.043,2.043,0,0,1-.6-.083,1.016,1.016,0,0,1-.451-.275,1.292,1.292,0,0,1-.281-.506,2.563,2.563,0,0,1-.1-.765V-7.755l1.386-.121ZM90.2-3.344a5.67,5.67,0,0,1-.027.611q-.028.247-.061.434H87.241a1.313,1.313,0,0,0,.424.974,1.619,1.619,0,0,0,1.029.291,2.059,2.059,0,0,0,.473-.049,2.068,2.068,0,0,0,.368-.121,2,2,0,0,0,.27-.143q.11-.072.165-.115l.319.968L90.1-.336a1.505,1.505,0,0,1-.346.209,2.884,2.884,0,0,1-.561.182,3.665,3.665,0,0,1-.808.077,3.034,3.034,0,0,1-1.007-.16,1.993,1.993,0,0,1-.787-.5,2.293,2.293,0,0,1-.511-.885,4.142,4.142,0,0,1-.182-1.3,3.581,3.581,0,0,1,.193-1.238,2.387,2.387,0,0,1,.528-.864,2.113,2.113,0,0,1,.781-.506,2.686,2.686,0,0,1,.94-.165,1.76,1.76,0,0,1,1.364.539A2.3,2.3,0,0,1,90.2-3.344ZM88.209-4.411a.887.887,0,0,0-.687.3,1.367,1.367,0,0,0-.292.891h1.727a.983.983,0,0,0,.011-.138v-.115a1.078,1.078,0,0,0-.2-.682A.671.671,0,0,0,88.209-4.411Zm6.138.154h-1.2V0H91.762V-4.257h-.726V-5.2l.726-.132V-5.8a2.232,2.232,0,0,1,.512-1.6,1.939,1.939,0,0,1,1.468-.534,1.9,1.9,0,0,1,.6.077,2.09,2.09,0,0,1,.3.121l-.22,1.1-.2-.077a.916.916,0,0,0-.33-.055.725.725,0,0,0-.561.2,1.069,1.069,0,0,0-.187.721v.484h1.331Zm4.939.913a5.67,5.67,0,0,1-.027.611q-.028.247-.061.434H96.327a1.313,1.313,0,0,0,.424.974,1.619,1.619,0,0,0,1.029.291,2.059,2.059,0,0,0,.473-.049,2.068,2.068,0,0,0,.368-.121,2,2,0,0,0,.27-.143q.11-.072.165-.115l.319.968-.187.159a1.505,1.505,0,0,1-.346.209,2.884,2.884,0,0,1-.561.182,3.665,3.665,0,0,1-.808.077,3.034,3.034,0,0,1-1.007-.16,1.993,1.993,0,0,1-.787-.5,2.293,2.293,0,0,1-.511-.885,4.142,4.142,0,0,1-.182-1.3,3.581,3.581,0,0,1,.193-1.238,2.387,2.387,0,0,1,.528-.864,2.113,2.113,0,0,1,.781-.506,2.686,2.686,0,0,1,.94-.165,1.76,1.76,0,0,1,1.364.539A2.3,2.3,0,0,1,99.286-3.344ZM97.3-4.411a.887.887,0,0,0-.687.3,1.367,1.367,0,0,0-.292.891h1.727a.983.983,0,0,0,.011-.138v-.115a1.078,1.078,0,0,0-.2-.682A.671.671,0,0,0,97.3-4.411Zm4.576,2.684a1.048,1.048,0,0,0,.11.577.422.422,0,0,0,.363.148.981.981,0,0,0,.247-.028,1.45,1.45,0,0,0,.16-.049l.088.968a1.668,1.668,0,0,1-.319.132,1.958,1.958,0,0,1-.605.077,2.043,2.043,0,0,1-.6-.083,1.016,1.016,0,0,1-.451-.275,1.292,1.292,0,0,1-.281-.506,2.563,2.563,0,0,1-.1-.765V-7.755l1.386-.121Zm1.562-.935a3.416,3.416,0,0,1,.2-1.232,2.578,2.578,0,0,1,.544-.88,2.286,2.286,0,0,1,.786-.534,2.441,2.441,0,0,1,.93-.181,1.859,1.859,0,0,1,.555.071,1.969,1.969,0,0,1,.38.16v-2.5l1.386-.121V0h-1.265V-.605h-.022a1.556,1.556,0,0,1-.143.2,1.372,1.372,0,0,1-.27.242,1.689,1.689,0,0,1-.424.209,1.887,1.887,0,0,1-.616.088,1.95,1.95,0,0,1-.831-.176A1.745,1.745,0,0,1,104-.567a2.521,2.521,0,0,1-.418-.875A4.525,4.525,0,0,1,103.433-2.662Zm2.453,1.606a1.264,1.264,0,0,0,.577-.116,1.65,1.65,0,0,0,.368-.248v-2.75a1.018,1.018,0,0,0-.3-.143,1.452,1.452,0,0,0-.429-.055,1.141,1.141,0,0,0-.908.4,1.86,1.86,0,0,0-.346,1.237,3.326,3.326,0,0,0,.077.77,1.535,1.535,0,0,0,.215.517.858.858,0,0,0,.33.292A.932.932,0,0,0,105.886-1.056Z" transform="translate(0 64.508)" fill="#0439a1" />
            <g id="Hilfswerk" transform="translate(36.493 22.155)">
                <path id="Pfad_1" data-name="Pfad 1" d="M257.01,312.544v-9.521h-1.577v-3.331h7.046v3.331h-1.467v2.933h4.79v-2.933h-1.5v-3.331h7.082v3.331h-1.6v9.521h1.6v3.343H264.3v-3.343h1.5v-3.258h-4.79v3.258H262.5v3.343h-7.07v-3.343Z" transform="translate(-255.434 -299.38)" fill="#0439a1" fill-rule="evenodd" />
                <path id="Pfad_2" data-name="Pfad 2" d="M307.2,302.7v-3h3.541v3Zm0,9.895v-5.925h-1.528V303.4h5.069v9.2h1.589v3.294h-6.706v-3.294Z" transform="translate(-288.028 -299.379)" fill="#0439a1" fill-rule="evenodd" />
                <path id="Pfad_3" data-name="Pfad 3" d="M331.552,312.593v-9.617h-1.54v-3.283h5.081v12.9h1.589v3.294h-6.706v-3.294Z" transform="translate(-303.842 -299.38)" fill="#0439a1" fill-rule="evenodd" />
                <path id="Pfad_4" data-name="Pfad 4" d="M354.405,306.087h-1.6v-3.27h1.6v-.277l.012-.253.024-.253.036-.229.036-.229.048-.217.048-.217.073-.193.073-.193.085-.169.085-.169.1-.169.109-.145.121-.133.121-.132.134-.121.145-.109.158-.109.17-.1.182-.084.194-.085.206-.072.218-.073.23-.06.243-.06.255-.049.267-.036.279-.024.291-.036.3-.012.315-.012h1.091v2.872H360l-.133-.012-.121-.012-.1-.012h-.1l-.1-.012h-.364l-.17.012-.146.025-.133.024-.121.036-.109.036-.085.06-.085.06-.073.06-.048.084-.061.085-.036.108-.036.121-.012.12-.012.133-.012.157v.072h1.77v3.27h-1.77v5.925h1.746v3.294H352.8v-3.294h1.6v-5.925Z" transform="translate(-318.668 -298.799)" fill="#0439a1" fill-rule="evenodd" />
                <path id="Pfad_5" data-name="Pfad 5" d="M376.177,318.31h3.4l.012.157.024.157.024.133.049.133.061.121.061.121.073.1.085.1.1.085.109.072.109.049.133.06.133.036.146.024.158.012.158.012.158-.012.158-.012.133-.012.121-.036.121-.036.109-.049.1-.06.1-.073.073-.072.073-.085.061-.084.048-.1.036-.109.024-.108.024-.133v-.12l-.012-.1-.012-.1-.036-.085-.048-.084-.061-.084-.073-.085-.085-.072-.1-.073-.109-.073-.121-.073-.146-.06-.145-.073-.17-.048-.17-.06-.194-.06-.206-.049-.158-.036-.158-.036-.145-.036-.134-.036-.121-.036-.121-.024-.1-.036-.109-.024-.424-.133-.4-.145-.194-.084-.182-.073-.17-.084-.17-.1-.158-.085-.158-.1-.146-.1-.133-.108-.133-.109-.121-.108-.109-.109L377,315.7l-.109-.12-.1-.133-.085-.12-.085-.133-.073-.144-.073-.133-.061-.145-.048-.157-.049-.157-.048-.157-.036-.157-.024-.169-.024-.168-.012-.181-.012-.181-.012-.181.012-.218.012-.217.024-.2.036-.205.036-.193.048-.193.061-.181.073-.181.085-.181.085-.169.1-.168.109-.157.109-.157.133-.145.134-.144.145-.133.146-.133.17-.121.158-.121.17-.108.182-.1.182-.085.182-.084.194-.073.206-.06.206-.06.206-.036.218-.048.218-.024.23-.025.243-.012h.437l.182.012.182.012.182.024.17.024.17.036.157.036.158.049.158.048.158.06.146.06.146.073.145.084.146.085.146.1.146.1v-.519H385.7v3.548h-3.311l-.036-.145-.024-.145-.048-.12-.036-.121-.048-.1-.061-.1-.048-.085-.073-.072-.073-.06-.073-.049-.085-.049-.1-.036-.109-.025-.109-.024-.121-.012h-.255l-.121.012-.121.024-.109.025-.109.036-.1.049-.1.049-.085.06-.073.072-.061.073-.061.073-.049.084-.036.085-.024.1-.012.1-.012.1.012.133.012.121.036.108.036.109.049.1.06.084.085.084.085.073.109.085.133.072.182.073.206.084.242.085.267.084.3.084.339.085.57.157.509.157.242.084.23.1.218.085.206.1.194.084.194.1.17.1.158.109.158.1.133.108.134.109.109.108.109.109.1.12.1.121.085.133.085.133.073.145.061.144.061.145.048.157.049.168.036.169.036.169.024.181.012.193.012.193v.422l-.024.217-.024.217-.036.205-.036.2-.061.193-.06.193-.073.193-.085.181-.1.181-.109.169-.109.168-.134.157-.133.157-.146.157-.145.144-.17.133-.17.133-.17.12-.182.109-.182.1-.194.1-.206.084-.194.073-.218.073-.206.06-.23.048-.23.036-.23.036-.243.012-.243.024H381.5l-.206-.012-.194-.024-.182-.024-.194-.036-.182-.036-.17-.049-.17-.06-.17-.06-.17-.073-.158-.072-.158-.085-.158-.1-.158-.1-.158-.108-.146-.121v.627h-2.753V318.31Z" transform="translate(-333.831 -305.639)" fill="#0439a1" fill-rule="evenodd" />
                <path id="Pfad_6" data-name="Pfad 6" d="M414.886,322.749h-3.529l-2.947-9.219h-1.091v-3.27h5.6v3.27h-1.007l1.346,4.9,2.183-8.17H418.5l2.183,8.17,1.358-4.9h-1.007v-3.27h5.591v3.27h-1.091l-2.947,9.219h-3.529l-2.086-7.192-2.086,7.192Z" transform="translate(-354.07 -306.242)" fill="#0439a1" fill-rule="evenodd" />
                <path id="Pfad_7" data-name="Pfad 7" d="M476.2,318.385l-.109.242-.109.229-.121.218-.134.217-.133.2-.133.205-.145.193-.146.181-.158.181-.17.181-.169.169-.17.157-.182.157-.194.157-.194.133-.206.144-.206.121-.206.121-.218.108-.206.109-.231.1-.218.084-.23.073-.23.073-.243.06-.23.06-.242.049-.255.035-.243.025-.255.024-.255.012h-.267l-.364-.012-.352-.012-.34-.036-.327-.06-.328-.06-.315-.084-.315-.1-.291-.109-.291-.12-.291-.133-.279-.157-.267-.169-.266-.193-.255-.193-.255-.217-.243-.241-.23-.229-.218-.253-.206-.242-.182-.265-.17-.266-.157-.277-.145-.29-.134-.29-.109-.29-.1-.313-.085-.3-.073-.313-.048-.326-.036-.338-.024-.326-.012-.35.012-.338.024-.325.036-.338.048-.313.073-.314.085-.313.1-.314.121-.29.134-.3.134-.277.17-.278.17-.278.182-.253.194-.253.218-.242.23-.241.243-.217.243-.218.267-.193.266-.181.279-.169.291-.157.291-.144.3-.133.315-.121.316-.1.315-.085.327-.072.315-.048.34-.048.327-.012.34-.012.424.012.425.036.206.024.206.036.207.036.194.048.206.048.194.06.194.06.194.073.194.073.182.084.194.085.182.085.182.108.182.1.17.109.17.108.17.121.157.12.158.133.158.133.145.132.146.145.145.144.134.145.133.157.121.157.122.169.121.169.134.2.121.205.109.2.109.205.1.217.085.217.085.229.073.217.061.23.048.242.048.241.036.241.024.242.025.253.012.266v.579l-.012.084v.169l-.012.084-.012.084v.1l-.012.085-.012.1-.012.1-.013.1-.012.1-.012.1H467.3l.061.2.084.193.1.181.109.181.134.157.145.157.158.145.17.132.194.109.194.109.206.085.218.073.218.06.23.036.231.024h.509l.134-.024.121-.012.121-.024.121-.036.121-.036.109-.036.121-.048.109-.048.109-.06.109-.06.109-.073.109-.072.109-.085.109-.1Zm-8.986-3.8h5.59l-.073-.241-.085-.242-.109-.217-.109-.205-.133-.181-.146-.181-.157-.157-.182-.145-.182-.121-.206-.109-.206-.1-.218-.072-.23-.061-.255-.048-.255-.024-.267-.012-.243.012-.243.024-.23.048-.218.061-.218.072-.206.1-.194.109-.182.133-.182.144-.17.169-.146.169-.134.181-.121.205-.109.217-.1.229-.085.241Z" transform="translate(-390.416 -305.594)" fill="#0439a1" fill-rule="evenodd" />
                <path id="Pfad_8" data-name="Pfad 8" d="M504.41,319.076v-5.925h-1.431v-3.27h4.8v1.81l.133-.253.145-.217.146-.218.157-.193.182-.168.17-.169.194-.144.206-.133.206-.109.218-.109.243-.084.242-.073.267-.06.279-.036.291-.036.3-.012v3.463l-.206.012-.206.024-.194.025-.194.036-.182.036-.169.036-.17.049-.157.048-.146.06-.145.06-.133.073-.134.073-.122.084-.109.085-.109.084-.1.1-.1.109-.085.108-.073.109-.073.133-.073.133-.061.132-.061.145-.048.157-.036.169-.049.168-.024.169-.024.181-.024.193-.012.205-.012.205v2.739h1.443v3.294h-6.561v-3.294Z" transform="translate(-416.091 -305.862)" fill="#0439a1" fill-rule="evenodd" />
                <path id="Pfad_9" data-name="Pfad 9" d="M531.3,312.593v-9.617h-1.528v-3.283h5.044v9.436l2.6-2.666h-1.419V303.4h6.4v3.27h-1.358l-2.559,2.679L541,312.593h1.783v3.294h-3.541l-4.426-5.6v5.6H529.7v-3.294Z" transform="translate(-433.545 -299.38)" fill="#0439a1" fill-rule="evenodd" />
            </g>
            <g id="RSt_Bielefeld" data-name="RSt Bielefeld" transform="translate(0.088)">
                <path id="Pfad_10" data-name="Pfad 10" d="M160.035,248.444h1.516V251.8h-7.034v-3.355h1.516v-9.509h-1.516v2.208h-2.922V235.6h12.891v5.539h-2.935v-2.208h-1.516v9.509Z" transform="translate(-151.595 -235.605)" fill="#0439a1" fill-rule="evenodd" />
                <path id="Pfad_11" data-name="Pfad 11" d="M202.3,254.274l-.109.229-.109.229-.121.217-.121.217-.134.217-.133.193-.146.193-.158.193-.158.181-.157.181-.17.157-.182.169-.182.157-.182.145-.194.145-.206.133-.207.133-.206.121-.218.109-.218.1-.218.1-.231.084-.218.084-.243.072-.23.06-.243.048-.243.048-.243.036-.255.036-.255.012-.255.012-.254.012-.364-.012-.352-.024-.34-.036-.339-.048-.327-.072-.315-.073-.3-.1-.3-.109-.291-.121-.279-.145-.279-.157-.267-.169-.267-.181-.267-.205-.243-.217-.255-.23-.231-.241-.206-.242-.206-.253-.182-.265-.182-.265-.158-.278-.145-.278-.121-.29-.121-.3-.1-.3-.085-.314-.06-.314-.061-.326-.036-.326-.024-.338v-.676l.024-.338.048-.326.049-.326.073-.313.085-.314.1-.3.109-.3.134-.29.145-.29.157-.278.17-.265.194-.266.194-.241.218-.253.218-.229.243-.229.255-.205.255-.193.279-.193.267-.169.291-.157.291-.145.315-.133.3-.109.316-.109.315-.085.327-.06.327-.06.327-.036.339-.024.34-.012.424.012.425.036.206.036.194.024.206.048.206.036.194.048.194.06.206.06.182.072.194.073.194.084.182.084.194.1.182.1.17.108.182.109.17.109.17.121.158.121.158.121.145.133.158.133.145.145.134.145.133.157.134.157.133.157.121.169.109.169.134.193.121.205.121.205.109.217.085.205.1.229.073.217.073.229.061.229.061.229.036.241.037.242.036.253.012.253.012.253.012.265v.157l-.012.085v.241l-.012.085v.1l-.012.084-.012.084-.012.1v.1l-.012.1-.012.1-.012.1-.012.1h-9.264l.061.2.085.193.085.181.121.169.121.169.146.145.158.145.182.133.194.121.194.1.206.1.206.072.218.048.23.036.243.024.243.012h.133l.134-.012.121-.012.121-.024.134-.024.121-.024.109-.036.121-.048.109-.036.121-.06.109-.048.109-.072.109-.073.109-.072.109-.084.109-.084Zm-8.986-3.8h5.6l-.073-.253-.1-.229-.1-.217-.121-.2-.134-.193-.145-.169-.157-.157-.17-.145-.194-.133-.194-.109-.206-.1-.23-.073-.23-.06-.243-.036-.255-.024-.267-.012-.255.012-.23.024-.23.036-.23.06-.206.084-.206.1-.194.109-.194.133-.182.145-.158.157-.157.169-.134.193-.121.205L193.5,250l-.1.229-.085.242Z" transform="translate(-176.147 -241.797)" fill="#0439a1" fill-rule="evenodd" />
                <path id="Pfad_12" data-name="Pfad 12" d="M243.1,253.474l-.085.277-.085.278-.1.265-.109.266-.109.241-.121.253-.133.229-.146.229-.146.217-.158.217-.17.205-.17.193-.194.181-.182.181-.206.181-.206.157-.218.157-.218.145-.23.133-.23.133-.242.109-.243.109-.255.1-.255.084-.255.072-.267.072-.279.048-.279.048-.279.036-.291.024-.3.012-.291.012-.364-.012-.352-.024-.34-.036-.327-.048-.327-.072-.315-.084-.315-.1-.3-.109-.291-.121-.291-.145-.279-.157-.267-.169-.267-.181-.255-.193-.255-.217-.243-.229-.23-.241-.218-.241-.194-.254-.194-.265-.17-.266-.158-.277-.145-.278-.121-.29-.121-.3-.1-.3-.085-.314-.061-.314-.061-.326-.036-.326-.024-.338v-.676l.024-.338.036-.326.061-.326.061-.314.085-.3.1-.3.109-.29.121-.289.145-.278.158-.277.17-.266.194-.266.206-.265.218-.254.23-.241.23-.229.23-.205.243-.193.255-.181.255-.181.267-.145.267-.145.279-.133.279-.109.279-.1.291-.085.3-.072.291-.048.3-.036.3-.024.315-.012.243.012.255.012.243.024.23.048.231.048.23.06.23.072.218.084.206.1.218.1.194.121.206.133.194.145.182.145.194.169.17.169v-1.11h2.838v4.6h-3.383l-.1-.181-.109-.157-.109-.157-.121-.133-.134-.133-.133-.121-.146-.109-.145-.1-.158-.1-.158-.072-.17-.06-.182-.048-.182-.048-.182-.024-.194-.024h-.364l-.158.012-.145.012-.146.024-.146.036-.145.036-.146.048-.133.048-.133.06-.121.072-.133.072-.121.085-.121.084-.109.1-.109.1-.121.109-.1.109-.1.121-.1.121-.085.121-.073.133-.073.121-.061.145-.061.133-.049.133-.048.145-.036.145-.024.157-.024.145-.024.157-.012.157v.326l.012.169.024.157.012.145.036.157.036.145.036.145.061.145.048.133.061.133.073.133.073.121.085.121.085.121.1.121.109.109.1.109.121.1.109.1.121.085.109.072.121.072.134.072.121.06.133.048.133.048.145.036.134.036.146.024.158.012.146.012h.34l.194-.024.182-.024.182-.036.17-.06.17-.06.158-.072.158-.085.158-.1.133-.1.133-.121.121-.121.121-.133.109-.145.1-.157.085-.157Z" transform="translate(-202.474 -241.841)" fill="#0439a1" fill-rule="evenodd" />
                <path id="Pfad_13" data-name="Pfad 13" d="M270.767,248.492v-9.605h-1.528V235.6H274.3v5.165l.158-.205.17-.193.17-.181.182-.157.194-.157.194-.133.206-.133.218-.109.218-.1.23-.084.23-.072.243-.06.255-.048.267-.024.267-.024.279-.012.255.012.255.012.23.024.243.036.218.036.218.06.218.06.206.072.194.085.182.085.182.109.182.109.17.121.158.133.146.133.146.157.133.157.133.169.121.169.109.181.1.193.1.205.073.205.085.217.061.229.061.229.048.253.036.241.024.265.024.265.012.278.012.29v4.621h1.588V251.8h-5.239v-7.216l-.024-.314-.036-.29-.048-.266-.061-.229-.085-.217-.036-.1-.049-.084-.061-.085-.048-.072-.061-.072-.061-.072-.073-.06-.073-.06-.073-.048-.085-.048-.085-.036-.1-.048-.194-.06-.218-.048-.242-.024-.255-.012-.243.012-.23.036-.121.024-.1.024-.109.036-.109.048-.1.048-.1.048-.085.048-.085.072-.1.06-.073.072-.085.084-.073.085-.073.084-.073.1-.061.1-.061.1-.1.217-.085.229-.073.241-.036.253-.036.278v3.861h1.431V251.8h-6.561v-3.306Z" transform="translate(-227.948 -235.605)" fill="#0439a1" fill-rule="evenodd" />
                <path id="Pfad_14" data-name="Pfad 14" d="M316.287,254.93v-5.913h-1.54v-3.282h4.9v1.653l.158-.229.17-.205.182-.205.182-.181.194-.169.206-.157.206-.133.218-.121.23-.109.243-.1.243-.085.255-.06.267-.048.279-.036.291-.024.291-.012.267.012.243.012.243.024.243.036.218.036.23.06.206.06.206.072.194.085.194.1.182.1.17.109.17.121.158.133.158.145.145.145.133.157.133.169.109.181.121.181.1.193.1.205.073.205.085.217.06.229.061.229.048.241.036.253.036.254.012.265.024.278v4.911h1.6v3.306h-5.239v-6.878l-.012-.338-.024-.314-.036-.29-.049-.266-.061-.229-.085-.217-.036-.1-.048-.084-.049-.085-.061-.072-.061-.072-.06-.072-.073-.06-.073-.06-.073-.048-.085-.048-.085-.036-.1-.048-.194-.06-.218-.048-.243-.024-.255-.012-.243.012-.23.036-.109.024-.109.024-.109.036-.1.048-.1.048-.1.048-.1.048-.085.072-.085.06-.085.072-.085.084-.073.085-.073.084-.061.1-.073.1-.049.1-.109.217-.085.229-.06.241-.048.253-.025.278-.012.289v3.572h1.443v3.306h-6.561V254.93Z" transform="translate(-257.509 -242.043)" fill="#0439a1" fill-rule="evenodd" />
                <path id="Pfad_15" data-name="Pfad 15" d="M361.3,238.61v-3h3.541v3Zm0,9.883V242.58h-1.528V239.3h5.069v9.195h1.589V251.8h-6.706v-3.306Z" transform="translate(-286.757 -235.605)" fill="#0439a1" fill-rule="evenodd" />
                <path id="Pfad_16" data-name="Pfad 16" d="M382.438,254.186h3.383l.024.169.012.145.036.145.048.133.048.121.073.108.073.109.085.085.1.084.109.072.109.06.133.048.133.036.146.036.158.012h.315l.145-.012.145-.024.121-.036.121-.036.109-.048.1-.06.1-.06.073-.072.073-.085.061-.1.048-.1.036-.109.024-.109.012-.121.012-.133-.012-.1-.012-.084-.036-.1-.048-.084-.061-.085-.073-.072-.085-.084-.1-.072-.109-.072-.133-.06-.134-.072-.145-.06-.17-.06-.182-.06-.182-.048-.206-.048-.17-.048-.146-.036-.145-.036-.134-.036-.121-.024-.121-.036-.109-.024-.1-.036-.424-.133-.4-.145-.194-.072-.182-.085-.17-.084-.17-.085-.158-.1-.158-.1-.145-.1-.133-.1-.133-.109-.121-.109-.121-.109-.109-.121-.1-.121-.1-.121-.085-.133-.085-.133-.073-.133-.073-.145-.061-.145-.061-.145-.048-.157-.036-.157-.036-.169-.024-.169-.024-.169-.024-.169-.012-.181v-.193l.012-.217.012-.205.024-.205.024-.205.049-.193.049-.193.06-.193.073-.181.073-.169.1-.169.1-.169.109-.157.109-.157.133-.145.133-.145.145-.145.146-.133.158-.121.17-.109.17-.109.17-.1.182-.1.194-.072.194-.072.194-.072.206-.048.218-.048.218-.036.218-.036.23-.012.243-.012.23-.012.194.012h.194l.182.024.182.012.17.024.17.036.158.036.158.048.157.048.146.06.158.06.145.085.146.072.146.084.146.1.133.109v-.531h2.619v3.548h-3.323l-.024-.145-.037-.133-.036-.133-.036-.108-.048-.109-.061-.085-.06-.085-.061-.072-.073-.06-.073-.048-.1-.048-.085-.036-.109-.036-.109-.012-.121-.012-.122-.012-.133.012-.121.012-.121.012-.109.036-.109.036-.1.048-.1.048-.085.06-.073.072-.073.072-.048.073-.048.084-.036.084-.024.085-.012.1-.012.109.012.121.012.121.024.109.048.109.049.1.061.1.073.084.1.072.109.072.133.072.17.084.218.072.23.085.279.084.3.084.34.085.558.157.521.169.243.085.23.084.218.1.206.084.194.1.182.1.182.1.158.1.158.109.133.1.134.109.109.108.109.109.1.121.1.121.085.133.085.133.061.145.073.145.061.157.048.157.049.157.036.169.024.181.024.181.024.181.012.193v.193l-.012.229-.012.217-.024.217-.036.205-.036.205-.061.205-.06.193-.085.181-.085.193-.085.169-.109.181-.109.157-.133.169-.133.157-.146.145-.145.145-.17.145-.17.12-.17.121-.182.109-.194.109-.182.1-.206.085-.206.072-.206.06-.218.06-.218.048-.23.048-.23.024-.243.024-.243.012h-.461l-.194-.012-.194-.012-.194-.024-.182-.036-.182-.048-.182-.036-.17-.06-.17-.06-.158-.072-.17-.072-.158-.1-.158-.084-.145-.109-.158-.109-.146-.121v.639h-2.753v-3.849Z" transform="translate(-301.492 -241.841)" fill="#0439a1" fill-rule="evenodd" />
                <path id="Pfad_17" data-name="Pfad 17" d="M427.5,253.474l-.085.277-.085.278-.1.265-.109.266-.109.241-.134.253-.121.229-.145.229-.146.217-.158.217-.17.205-.169.193-.194.181-.182.181-.206.181-.206.157-.218.157-.218.145-.23.133-.23.133-.242.109-.243.109-.254.1-.255.084-.255.072-.267.072-.279.048-.279.048-.279.036-.291.024-.3.012-.291.012-.364-.012-.352-.024-.34-.036-.327-.048-.327-.072-.315-.084-.315-.1-.3-.109-.291-.121-.291-.145-.279-.157-.279-.169-.255-.181-.255-.193-.255-.217-.242-.229-.23-.241-.218-.241-.194-.254-.194-.265-.17-.266-.158-.277-.145-.278-.121-.29-.121-.3-.1-.3-.085-.314-.061-.314-.06-.326-.036-.326-.024-.338v-.676l.024-.338.036-.326.06-.326.061-.314.085-.3.1-.3.109-.29.121-.289.145-.278.158-.277.169-.266.194-.266.206-.265.218-.254.23-.241.23-.229.23-.205.242-.193.255-.181.255-.181.255-.145.279-.145.279-.133.279-.109.279-.1.291-.085.3-.072.291-.048.3-.036.3-.024.315-.012.242.012.255.012.242.024.231.048.23.048.23.06.23.072.218.084.206.1.218.1.194.121.206.133.194.145.182.145.182.169.182.169v-1.11h2.838v4.6h-3.383l-.1-.181-.109-.157-.109-.157-.122-.133-.133-.133-.134-.121-.145-.109-.146-.1-.157-.1-.17-.072-.157-.06-.182-.048-.182-.048-.182-.024-.206-.024h-.352l-.158.012-.146.012-.145.024-.146.036-.146.036-.145.048-.133.048-.134.06-.121.072-.133.072-.121.085-.121.084-.109.1-.121.1-.109.109-.1.109-.1.121-.1.121-.085.121-.073.133-.073.121-.061.145-.061.133-.049.133-.049.145-.036.145-.024.157-.024.145-.024.157-.012.157v.326l.012.169.012.157.024.145.036.157.036.145.037.145.048.145.061.133.061.133.073.133.073.121.085.121.085.121.1.121.109.109.1.109.109.1.121.1.109.085.121.072.121.072.134.072.121.06.133.048.134.048.145.036.134.036.146.024.146.012.157.012h.34l.194-.024.182-.024.182-.036.17-.06.169-.06.158-.072.157-.085.146-.1.146-.1.133-.121.121-.121.121-.133.109-.145.1-.157.085-.157Z" transform="translate(-322.226 -241.841)" fill="#0439a1" fill-rule="evenodd" />
                <path id="Pfad_18" data-name="Pfad 18" d="M454.531,248.492v-9.605H453V235.6h5.057v5.165l.158-.205.17-.193.17-.181.182-.157.194-.157.194-.133.206-.133.218-.109.218-.1.23-.084.23-.072.255-.06.242-.048.267-.024.267-.024.279-.012.255.012.255.012.242.024.231.036.218.036.218.06.218.06.206.072.194.085.194.085.182.109.17.109.17.121.157.133.146.133.146.157.133.157.133.169.122.169.109.181.1.193.1.205.073.205.085.217.061.229.061.229.049.253.036.241.024.265.024.265.012.278.012.29v4.621h1.6V251.8h-5.251v-7.216l-.024-.314-.036-.29-.049-.266-.061-.229-.085-.217-.036-.1-.049-.084-.061-.085-.049-.072-.061-.072-.061-.072-.073-.06-.073-.06-.073-.048-.085-.048-.085-.036-.1-.048-.194-.06-.218-.048-.242-.024-.255-.012-.242.012-.231.036-.109.024-.109.024-.109.036-.1.048-.109.048-.085.048-.1.048-.085.072-.085.06-.085.072-.085.084-.073.085-.073.084-.073.1-.061.1-.061.1-.1.217-.085.229-.061.241-.049.253-.036.278v3.861H459.5V251.8h-6.561v-3.306Z" transform="translate(-347.295 -235.605)" fill="#0439a1" fill-rule="evenodd" />
                <path id="Pfad_19" data-name="Pfad 19" d="M508.426,254.274l-.1.229-.121.229-.121.217-.121.217-.134.217-.133.193-.145.193-.146.193-.157.181-.17.181-.17.157-.17.169-.182.157-.194.145-.193.145-.207.133-.206.133-.206.121-.218.109-.218.1-.218.1-.218.084-.231.084-.23.072-.242.06-.231.048-.243.048-.255.036-.243.036-.255.012-.255.012-.267.012-.364-.012-.352-.024-.339-.036-.34-.048-.316-.072-.327-.073-.3-.1-.3-.109-.279-.121-.291-.145-.279-.157-.266-.169-.267-.181-.255-.205-.255-.217-.243-.23-.23-.241-.218-.242-.206-.253-.182-.265-.17-.265-.158-.278-.146-.278-.134-.29-.109-.3-.1-.3-.084-.314-.073-.314-.049-.326-.036-.326-.024-.338-.012-.338.012-.338.024-.338.036-.326.049-.326.073-.313.084-.314.1-.3.121-.3.121-.29.146-.29.158-.278.182-.265.182-.266.194-.241.218-.253.23-.229.243-.229.243-.205.266-.193.267-.193.279-.169.278-.157.3-.145.3-.133.315-.109.3-.109.327-.085.316-.06.327-.06.34-.036.327-.024.339-.012.425.012.425.036.206.036.206.024.194.048.206.036.194.048.206.06.194.06.194.072.194.073.182.084.194.084.182.1.182.1.182.108.17.109.17.109.17.121.158.121.158.121.157.133.146.133.146.145.133.145.145.157.122.157.133.157.121.169.122.169.133.193.122.205.109.205.109.217.1.205.084.229.085.217.061.229.061.229.06.229.049.241.036.242.024.253.024.253.012.253v.579l-.012.084v.084l-.012.085v.1l-.013.084v.084l-.012.1-.012.1-.012.1-.012.1-.012.1-.012.1h-9.264l.06.2.085.193.1.181.109.169.133.169.145.145.158.145.17.133.194.121.194.1.206.1.206.072.23.048.218.036.243.024.242.012h.134l.133-.012.122-.012.133-.024.121-.024.121-.024.121-.036.109-.048.122-.036.109-.06.109-.048.109-.072.109-.073.109-.072.109-.084.109-.084Zm-8.974-3.8h5.591l-.073-.253-.085-.229-.109-.217-.109-.2-.133-.193-.146-.169-.17-.157-.17-.145-.182-.133-.206-.109-.206-.1-.218-.073-.243-.06-.242-.036-.255-.024-.267-.012-.242.012-.243.024-.231.036-.218.06-.218.084-.206.1-.194.109-.194.133-.17.145-.17.157-.146.169-.145.193-.121.205-.109.217-.085.229-.085.242Z" transform="translate(-374.947 -241.797)" fill="#0439a1" fill-rule="evenodd" />
                <path id="Pfad_20" data-name="Pfad 20" d="M536.225,254.186h3.384l.012.169.024.145.036.145.049.133.049.121.073.108.073.109.085.085.1.084.109.072.109.06.121.048.146.036.145.036.158.012h.315l.145-.012.146-.024.122-.036.121-.036.109-.048.1-.06.1-.06.073-.072.073-.085.061-.1.048-.1.036-.109.025-.109.012-.121.012-.133-.012-.1-.024-.084-.024-.1-.049-.084-.061-.085-.073-.072-.085-.084-.1-.072-.109-.072-.133-.06-.134-.072-.157-.06-.158-.06-.182-.06-.194-.048-.194-.048-.17-.048-.145-.036-.146-.036-.133-.036-.121-.024-.121-.036-.109-.024-.1-.036-.425-.133-.4-.145-.194-.072-.182-.085-.17-.084-.17-.085-.157-.1-.158-.1-.146-.1-.133-.1-.134-.109-.121-.109-.121-.109-.109-.121-.1-.121-.1-.121-.085-.133-.085-.133-.073-.133-.073-.145-.061-.145-.061-.145-.049-.157-.036-.157-.036-.169-.037-.169-.012-.169-.024-.169-.012-.181v-.193l.012-.217.012-.205.024-.205.024-.205.049-.193.049-.193.061-.193.073-.181.073-.169.1-.169.1-.169.1-.157.121-.157.121-.145.146-.145.146-.145.146-.133.157-.121.17-.109.17-.109.169-.1.182-.1.194-.072.194-.072.194-.072.206-.048.218-.048.218-.036.218-.036.23-.012.23-.012.242-.012.194.012h.194l.182.024.182.012.17.024.17.036.157.036.158.048.157.048.146.06.157.06.146.085.145.072.146.084.146.1.133.109v-.531h2.619v3.548h-3.323l-.024-.145-.036-.133-.037-.133-.036-.108-.049-.109-.061-.085-.061-.085-.061-.072-.073-.06-.073-.048-.1-.048-.1-.036-.1-.036-.109-.012-.121-.012-.133-.012-.121.012-.121.012-.121.012-.109.036-.109.036-.1.048-.1.048-.085.06-.073.072-.073.072-.049.073-.048.084-.037.084-.024.085-.024.1v.109l.012.121.012.121.024.109.049.109.049.1.061.1.073.084.1.072.1.072.146.072.169.084.206.072.243.085.279.084.3.084.34.085.558.157.521.169.242.085.23.084.218.1.206.084.194.1.182.1.182.1.158.1.145.109.146.1.133.109.109.108.109.109.1.121.1.121.085.133.073.133.073.145.073.145.061.157.048.157.049.157.036.169.024.181.024.181.024.181v.193l.012.193-.012.229-.012.217-.024.217-.036.205-.049.205-.048.205-.061.193-.085.181-.085.193-.085.169-.109.181-.121.157-.121.169-.134.157-.146.145-.157.145-.158.145-.17.12-.169.121-.182.109-.194.109-.194.1-.194.085-.206.072-.206.06-.218.06-.219.048-.23.048-.23.024-.243.024-.242.012h-.461l-.194-.012-.194-.012-.194-.024-.182-.036-.182-.048-.182-.036-.169-.06-.17-.06-.158-.072-.169-.072-.158-.1-.157-.084-.146-.109-.157-.109-.145-.121v.639h-2.753v-3.849Z" transform="translate(-401.364 -241.841)" fill="#0439a1" fill-rule="evenodd" />
            </g>
            <path id="Pfad_23" data-name="Pfad 23" d="M630.354,265.963V268.2h.57V277.1l-.57-.012v2.232h3.735v-2.232h-.558v-2.22h5.214v2.22h-.558v2.232h3.723v-2.232h-.558v-8.905l.558.012v-2.232h-3.723V268.2h.558v4.441h-5.214V268.2h.558v-2.232Z" transform="translate(-462.42 -255.32)" fill="#0439a1" fill-rule="evenodd" />
            <g id="Zahnrad" transform="translate(154.134 0.06)">
                <path id="Pfad_21" data-name="Pfad 21" d="M630.124,254.336l-.024-.47-.037-.459-4.038-.676-.061-.374-.085-.386-.085-.374-.1-.374-.109-.362-.109-.374-.121-.362-.133-.362,3.153-2.594-.194-.422-.206-.411-.218-.41-.23-.41-.243-.4-.242-.386-.254-.386-.267-.386-3.832,1.424-.255-.3-.255-.29-.267-.278-.267-.278-.279-.265-.279-.265-.291-.253-.3-.254,1.431-3.813-.376-.265-.4-.253-.388-.242-.4-.241-.412-.229-.413-.217-.412-.205-.425-.193-2.607,3.137-.364-.133-.364-.121-.376-.109-.364-.109-.376-.1-.376-.084-.376-.072-.388-.073-.679-4.018-.461-.036-.473-.024-.461-.024H610.1l-.461.024-.473.024-.461.036-.679,4.018-.375.073-.389.072-.376.084-.376.1-.364.109-.375.109-.364.121-.364.133-2.607-3.137-.424.193-.412.205-.412.217-.412.229-.4.241-.388.242-.388.253-.389.265,1.431,3.813-.3.254-.291.253-.279.265-.279.265-.267.278-.267.278-.255.29-.242.3-3.844-1.424-.267.386-.255.386-.243.386-.243.4-.23.41-.218.41-.206.411-.194.422,3.153,2.594-.134.362-.121.362-.109.374-.109.362-.1.374-.085.374-.073.386-.073.374-4.038.676-.036.459-.025.47-.012.459-.012.471.012.458.012.459.025.47.036.459,4.038.676.073.386.073.374.085.374.1.374.109.374.109.362.121.361.134.362-3.153,2.595.194.422.206.41.218.41.23.41.243.4.243.386.255.4.267.374,3.844-1.423.242.3.255.289.267.278.267.277.279.266.279.266.291.253.3.253-1.431,3.813.389.266.388.253.388.242.4.241.412.23.412.217.412.205.424.193,2.607-3.138.364.133.364.121.375.121.364.1.376.1.376.084.389.085.375.06.679,4.018.461.036.473.024.461.025h.934l.461-.025.473-.024.461-.036.679-4.018.388-.06.376-.085.376-.084.376-.1.364-.1.376-.121.364-.121.364-.133,2.607,3.138.425-.193.412-.205.413-.217.412-.23.4-.241.388-.242.4-.253.376-.266-1.431-3.813.3-.253.291-.253.279-.266.279-.266.267-.277.267-.278.255-.289.255-.3,3.832,1.423.267-.374.254-.4.242-.386.243-.4.23-.41.218-.41.206-.41.194-.422-3.153-2.595.133-.362.121-.361.109-.362.109-.374.1-.374.085-.374.085-.374.061-.386,4.038-.676.037-.459.024-.47.024-.459v-.929Zm-7.07,1.448-.061.784-.109.8-.157.772-.206.772-.255.76-.3.749-.363.724-.4.7-.461.688-.509.651-.558.627-.606.592-.667.555-.7.531-.764.483-2.255,3.741L613.28,267.4l-.327.06-.339.06-.34.06-.34.036-.339.036-.34.024-.339.012h-.691l-.34-.012-.34-.024-.34-.036-.339-.036-.339-.06-.34-.06-.328-.06-1.395,2.305-2.255-3.741-.752-.483-.715-.531-.667-.555-.606-.592-.558-.627-.509-.651-.461-.688-.4-.7-.364-.724-.3-.749-.255-.76-.206-.772-.157-.772-.109-.8-.061-.784v-.8l.036-.8.1-.784.134-.784.194-.772.243-.76.291-.749.339-.724.388-.712.436-.688.5-.652.534-.639.582-.591.643-.567.679-.531.739-.495.776-.447v-2.763h11.751V244.3l.788.447.728.495.679.531.643.567.582.591.533.639.5.652.436.688.389.712.339.724.291.749.243.76.194.772.133.784.1.784.048.8Z" transform="translate(-590.991 -235.777)" fill="#0439a1" />
                <path id="Pfad_22" data-name="Pfad 22" d="M642.327,253.779H631.7v2.787h2.607V256h1.395v5.2h-.558v2.232h3.723V261.2h-.558v-5.189h1.407v.555h2.607v-2.787Z" transform="translate(-617.431 -247.468)" fill="#0439a1" fill-rule="evenodd" />
                <path id="Pfad_24" data-name="Pfad 24" d="M626.817,302.03l4.1,6.793,5.372-8.9h1.334V297.7h-4.463v2.22h.521l-2.765,4.585L626.8,297.7l-4.1,6.805-2.753-4.585h.521V297.7H616v2.22h1.346l5.372,8.9,4.1-6.793Z" transform="translate(-607.232 -275.989)" fill="#0439a1" fill-rule="evenodd" />
            </g>
            <line id="Divider" x2="193.203" y2="0.817" transform="translate(0.088 45.296)" fill="#003580" stroke="#fff" stroke-miterlimit="10" stroke-width="2.835" />
        </g>
        <path id="Pfad_36" data-name="Pfad 36" d="M0,0H193" transform="translate(0.146 47.161)" fill="none" stroke="#0439a1" stroke-linecap="round" stroke-width="1" />
    </g>
</svg>
  