<svg xmlns="http://www.w3.org/2000/svg" width="231.801" height="23.253" viewBox="0 0 231.801 23.253">
	<path id="Pfad_1157" data-name="Pfad 1157" d="M10.183,3.233v-19.3H.52V-18.51H22.263v2.446H12.629v19.3Zm17.877,0a3.485,3.485,0,0,1-1.827-.5,3.817,3.817,0,0,1-1.329-1.329,3.485,3.485,0,0,1-.5-1.827V-6.763H39.747v-3.865a1.133,1.133,0,0,0-.347-.83,1.133,1.133,0,0,0-.83-.347H24.407v-2.476H38.57a3.54,3.54,0,0,1,1.857.5,3.817,3.817,0,0,1,1.329,1.329,3.485,3.485,0,0,1,.5,1.827V3.233Zm0-2.476H39.747V-4.287H26.883V-.421a1.133,1.133,0,0,0,.347.83A1.133,1.133,0,0,0,28.061.756ZM45.425,3.233V-20.02H47.9V-6.763h4.832l6.885-7.519h3.261v.03L54.937-5.525,62.849,3.2v.03H59.618L52.733-4.287H47.9V3.233Zm23.132,0a3.54,3.54,0,0,1-1.857-.5,3.693,3.693,0,0,1-1.314-1.329A3.568,3.568,0,0,1,64.9-.421v-19.6h2.476v5.738h7.58v2.476h-7.58V-.421a1.133,1.133,0,0,0,.347.83,1.133,1.133,0,0,0,.83.347h6.4V3.233Zm8.848,0V-14.282h2.476V3.233Zm0-20.776V-20.02h2.476v2.476ZM87.219,3.233a3.485,3.485,0,0,1-1.827-.5,3.817,3.817,0,0,1-1.329-1.329,3.485,3.485,0,0,1-.5-1.827V-.663h2.476v.242a1.133,1.133,0,0,0,.347.83,1.133,1.133,0,0,0,.83.347H97.728a1.133,1.133,0,0,0,.83-.347,1.133,1.133,0,0,0,.347-.83V-3.109a1.133,1.133,0,0,0-.347-.83,1.133,1.133,0,0,0-.83-.347H87.219a3.485,3.485,0,0,1-1.827-.5,3.817,3.817,0,0,1-1.329-1.329,3.485,3.485,0,0,1-.5-1.827v-2.688a3.485,3.485,0,0,1,.5-1.827,3.817,3.817,0,0,1,1.329-1.329,3.485,3.485,0,0,1,1.827-.5H97.728a3.54,3.54,0,0,1,1.857.5,3.817,3.817,0,0,1,1.329,1.329,3.485,3.485,0,0,1,.5,1.827v.242H98.906v-.242a1.133,1.133,0,0,0-.347-.83,1.133,1.133,0,0,0-.83-.347H87.219a1.133,1.133,0,0,0-.83.347,1.133,1.133,0,0,0-.347.83v2.688a1.133,1.133,0,0,0,.347.83,1.133,1.133,0,0,0,.83.347H97.728a3.54,3.54,0,0,1,1.857.5,3.817,3.817,0,0,1,1.329,1.329,3.485,3.485,0,0,1,.5,1.827V-.421a3.485,3.485,0,0,1-.5,1.827,3.817,3.817,0,0,1-1.329,1.329,3.54,3.54,0,0,1-1.857.5Zm20.233,0a3.485,3.485,0,0,1-1.827-.5A3.817,3.817,0,0,1,104.3,1.406a3.485,3.485,0,0,1-.5-1.827V-10.628a3.485,3.485,0,0,1,.5-1.827,3.817,3.817,0,0,1,1.329-1.329,3.485,3.485,0,0,1,1.827-.5h14.133v2.476H107.452a1.133,1.133,0,0,0-.83.347,1.133,1.133,0,0,0-.347.83V-.421a1.133,1.133,0,0,0,.347.83,1.133,1.133,0,0,0,.83.347h14.193V3.233Zm16.971,0V-20.02H126.9v5.738h11.717a3.485,3.485,0,0,1,1.827.5,3.817,3.817,0,0,1,1.329,1.329,3.485,3.485,0,0,1,.5,1.827V3.233h-2.476V-10.628a1.133,1.133,0,0,0-.347-.83,1.133,1.133,0,0,0-.83-.347H128.107a1.184,1.184,0,0,0-.846.347,1.11,1.11,0,0,0-.362.83V3.233Zm23.736,0a3.485,3.485,0,0,1-1.827-.5A3.817,3.817,0,0,1,145,1.406a3.485,3.485,0,0,1-.5-1.827V-10.628a3.485,3.485,0,0,1,.5-1.827,3.817,3.817,0,0,1,1.329-1.329,3.485,3.485,0,0,1,1.827-.5h10.509a3.54,3.54,0,0,1,1.857.5,3.817,3.817,0,0,1,1.329,1.329,3.485,3.485,0,0,1,.5,1.827v6.342H146.981V-.421a1.133,1.133,0,0,0,.347.83,1.133,1.133,0,0,0,.83.347h14.193V3.233Zm-1.178-10h12.864v-3.865a1.133,1.133,0,0,0-.347-.83,1.133,1.133,0,0,0-.83-.347H148.159a1.133,1.133,0,0,0-.83.347,1.133,1.133,0,0,0-.347.83Zm30.349,10a3.568,3.568,0,0,1-1.827-.483,3.575,3.575,0,0,1-1.314-1.314,3.568,3.568,0,0,1-.483-1.827V-18.51h2.446V-.391a1.133,1.133,0,0,0,.347.83,1.133,1.133,0,0,0,.83.347h14.5a1.133,1.133,0,0,0,.83-.347A1.133,1.133,0,0,0,193-.391V-18.51h2.446V-.391a3.568,3.568,0,0,1-.483,1.827,3.575,3.575,0,0,1-1.314,1.314,3.568,3.568,0,0,1-1.827.483Zm21.38,0V-20.02h2.476v5.738H212.9a3.485,3.485,0,0,1,1.827.5,3.817,3.817,0,0,1,1.329,1.329,3.485,3.485,0,0,1,.5,1.827V3.233h-2.476V-10.628a1.133,1.133,0,0,0-.347-.83,1.133,1.133,0,0,0-.83-.347H202.395a1.184,1.184,0,0,0-.846.347,1.11,1.11,0,0,0-.362.83V3.233Zm20.112,0V-10.628a3.485,3.485,0,0,1,.5-1.827,3.817,3.817,0,0,1,1.329-1.329,3.484,3.484,0,0,1,1.827-.5h9.845v2.476h-9.845a1.133,1.133,0,0,0-.83.347,1.133,1.133,0,0,0-.347.83V3.233Z" transform="translate(-0.52 20.02)" fill="#fff" />
</svg>
  