<svg xmlns="http://www.w3.org/2000/svg" width="239.105" height="64.009" viewBox="0 0 239.105 64.009">
    <g id="Technisches_Hilf" data-name="Technisches Hilf" transform="translate(-0.145)">
        <g id="Hilfswerk" transform="translate(59.911 36.372)">
            <path id="k" d="M532.326,320.871V305.083h-2.508v-5.389H538.1v15.492l4.261-4.377h-2.329v-5.033h10.512v5.369h-2.23l-4.2,4.4,4.141,5.33h2.927v5.408h-5.814l-7.267-9.192v9.192h-8.4v-5.408Z" transform="translate(-371.841 -299.178)" fill="#0439a1" fill-rule="evenodd" />
            <path id="r" d="M505.429,325.108v-9.727H503.08v-5.369h7.884v2.972l.219-.416.239-.356.239-.357.258-.317.3-.277.279-.278.318-.237.338-.218.338-.179.359-.179.4-.138.4-.119.438-.1.458-.06.478-.059.5-.019v5.686l-.339.019-.338.039-.319.041-.319.059-.3.058-.278.06-.279.08-.259.079-.239.1-.239.1-.219.119-.219.119-.2.138-.179.139-.179.138-.16.159-.159.179-.139.178-.119.179-.12.218-.119.218-.1.217-.1.238-.079.257-.06.278-.08.277-.04.278-.04.3-.04.317-.02.337-.02.337v4.5h2.369v5.408H502.821v-5.408Z" transform="translate(-360.433 -303.415)" fill="#0439a1" fill-rule="evenodd" />
            <path id="e" d="M484.488,324.239l-.179.4-.179.375-.2.357-.219.356-.219.336-.219.337-.239.317-.239.3-.259.3-.279.3-.278.277-.279.258-.3.257-.318.257-.319.218-.338.237-.338.2-.338.2-.359.177-.339.179-.379.158-.359.138-.378.119-.378.119-.4.1-.378.1-.4.08-.418.058-.4.041-.418.039-.418.02h-.438l-.6-.02-.577-.02-.558-.06-.537-.1-.538-.1-.518-.139-.518-.158-.477-.179-.478-.2-.478-.218-.458-.258-.438-.277-.437-.317-.418-.317-.418-.356-.4-.4-.378-.376-.359-.416-.339-.4-.3-.435-.279-.436-.258-.455-.239-.475-.219-.476-.18-.475-.159-.515-.139-.5-.12-.515-.079-.535-.06-.554-.04-.535-.02-.574.02-.555.04-.534.06-.555.079-.515.12-.515.139-.515.159-.516.2-.475.219-.495.219-.455.279-.456.279-.456.3-.416.318-.416.359-.4.378-.4.4-.356.4-.357.438-.317.438-.3.458-.278.478-.257.478-.237.5-.218.517-.2.518-.158.517-.139.538-.119.517-.079.558-.079.538-.02.558-.02.7.02.7.059.339.04.338.059.339.06.318.079.338.079.319.1.318.1.318.119.319.119.3.138.318.139.3.139.3.177.3.159.279.178.279.178.279.2.258.2.259.218.259.218.239.217.239.238.239.237.219.238.219.258.2.257.2.277.2.278.219.336.2.337.18.336.178.337.16.357.139.356.139.376.119.356.1.377.079.4.079.4.06.4.039.4.04.416.02.436v.951l-.02.138v.278l-.02.138-.02.138v.159l-.02.139-.02.158-.02.159-.021.158-.02.158-.02.159H469.875l.1.336.139.317.159.3.179.3.219.257.239.257.259.238.279.217.318.179.319.178.339.139.359.119.358.1.378.059.379.04h.836l.219-.04.2-.02.2-.039.2-.06.2-.059.18-.06.2-.079.179-.079.18-.1.179-.1.179-.119.179-.118.18-.139.179-.159ZM469.735,318h9.178l-.12-.4-.139-.4-.178-.357-.18-.337-.219-.3-.239-.3-.258-.257-.3-.238-.3-.2-.338-.178-.339-.159-.359-.118-.378-.1-.418-.078-.418-.04-.438-.02-.4.02-.4.04-.378.078-.359.1-.358.118-.338.159-.319.178-.3.218-.3.237-.279.278-.239.277-.219.3-.2.337-.178.356-.16.376-.139.4Z" transform="translate(-343.653 -303.24)" fill="#0439a1" fill-rule="evenodd" />
            <path id="w" d="M419.742,330.764h-5.794l-4.838-15.136h-1.792V310.26h9.2v5.369h-1.653l2.21,8.043,3.584-13.412h5.017l3.584,13.412,2.23-8.043h-1.652V310.26h9.178v5.369h-1.792l-4.838,15.136H426.59l-3.424-11.807-3.424,11.807Z" transform="translate(-319.899 -303.663)" fill="#0439a1" fill-rule="evenodd" />
            <path id="s" d="M376.193,324.071h5.574l.02.257.04.257.04.218.08.218.1.2.1.2.12.159.139.158.159.139.179.118.179.08.219.1.219.06.239.039.259.02.259.019.259-.019.259-.02.219-.02.2-.058.2-.06.179-.08.159-.1.16-.119.119-.118.119-.139.1-.138.08-.159.06-.179.04-.178.04-.218v-.2l-.02-.159-.02-.159-.06-.139-.079-.138-.1-.138-.119-.139-.139-.118-.159-.119-.179-.119-.2-.119-.239-.1-.239-.119-.279-.079-.278-.1-.319-.1-.338-.08-.259-.06-.259-.06-.238-.058-.219-.06-.2-.06-.2-.039-.159-.06-.179-.039-.7-.218-.657-.238-.319-.138-.3-.119-.279-.138-.279-.159L379.04,321l-.259-.158-.239-.159-.219-.178-.219-.179-.2-.178-.179-.179-.179-.179-.179-.2-.159-.218-.139-.2-.139-.218-.119-.237-.119-.218-.1-.238-.08-.257-.08-.257-.079-.257-.06-.257-.04-.278-.04-.276-.02-.3-.02-.3-.02-.3.02-.357.02-.356.04-.336.06-.337.06-.317.079-.317.1-.3.12-.3.139-.3.139-.278.159-.277.179-.257.179-.257.219-.238.219-.237.239-.218.239-.218.279-.2.259-.2.279-.178.3-.159.3-.139.3-.138.318-.119.338-.1.339-.1.339-.06.358-.079.359-.039.378-.04.4-.019h.717l.3.019.3.02.3.039.279.039.279.06.259.06.259.08.259.079.259.1.239.1.239.119.239.138.239.139.239.159.239.159v-.852h4.28v5.824h-5.435l-.06-.237-.04-.238-.08-.2-.06-.2-.08-.158-.1-.159-.079-.139-.119-.118-.119-.1-.119-.08-.14-.08-.159-.058-.179-.04-.179-.039-.2-.019h-.418l-.2.019-.2.039-.179.04-.179.058-.159.08-.159.08-.139.1-.119.118-.1.119-.1.119-.08.138-.06.139-.04.159-.02.157-.02.158.02.218.02.2.06.178.06.179.08.159.1.138.14.138.139.119.179.139.219.118.3.119.339.138.4.139.438.138.5.138.557.139.936.257.836.257.4.138.378.158.359.139.338.159.319.138.318.158.279.159.259.179.259.158.219.178.219.179.179.178.179.179.159.2.159.2.139.218.139.218.12.238.1.237.1.238.079.257.08.277.059.278.06.278.04.3.02.317.02.317v.694l-.04.356-.04.356-.06.337-.059.336-.1.317-.1.317-.12.317-.139.3-.16.3-.179.278-.179.277-.219.259-.219.257-.239.257-.239.237-.279.218-.279.218-.279.2-.3.179-.3.159-.319.159-.338.138-.319.119-.358.119-.339.1-.378.079-.378.06-.378.06-.4.02-.4.039h-.737l-.339-.02-.318-.039-.3-.039-.319-.06-.3-.06-.279-.08-.279-.1-.278-.1-.279-.119-.259-.118-.259-.139-.259-.158-.259-.159-.259-.178-.239-.2v1.03h-4.519v-6.3Z" transform="translate(-306.671 -303.269)" fill="#0439a1" fill-rule="evenodd" />
            <path id="f" d="M355.433,310.764H352.8V305.4h2.628v-.455l.02-.416.04-.416.06-.377.06-.377.08-.356.08-.356.119-.317.12-.317.139-.278.139-.277.159-.277.179-.238.2-.218.2-.217.219-.2.239-.178.259-.179.279-.159.3-.138.318-.139.339-.119.358-.119.378-.1.4-.1.418-.08.438-.059.458-.04.478-.06.5-.019.518-.02h1.792v4.715h-.1l-.219-.019-.2-.02-.159-.02h-.159l-.159-.019h-.6l-.279.019-.239.04-.219.039-.2.06-.179.06-.139.1-.139.1-.12.1-.08.138-.1.139-.059.178-.06.2-.02.2-.02.218-.02.257v.118h2.907v5.369h-2.907v9.727h2.867V325.9H352.8v-5.408h2.628v-9.727Z" transform="translate(-296.761 -298.799)" fill="#0439a1" fill-rule="evenodd" />
            <path id="l" d="M332.563,320.871V305.083h-2.528v-5.389h8.342v21.178h2.608v5.408H329.976v-5.408Z" transform="translate(-287.072 -299.178)" fill="#0439a1" fill-rule="evenodd" />
            <path id="i" d="M308.212,304.626v-4.933h5.813v4.933Zm0,16.245v-9.727H305.7v-5.369h8.322v15.1h2.608v5.409h-11.01v-5.409Z" transform="translate(-276.736 -299.178)" fill="#0439a1" fill-rule="evenodd" />
            <path id="H" d="M258.022,320.791v-15.63h-2.588v-5.468H267v5.468h-2.409v4.815h7.864v-4.815h-2.469v-5.468h11.627v5.468h-2.628v15.63h2.628v5.488H269.987v-5.488h2.469v-5.349h-7.864v5.349h2.449v5.488H255.434v-5.488Z" transform="translate(-255.434 -299.178)" fill="#0439a1" fill-rule="evenodd" />
        </g>
        <g id="Technisches" transform="translate(0.145)">
            <path id="s-2" data-name="s" d="M536.24,259.947H541.8l.02.277.04.238.06.238.08.218.08.2.12.178.119.178.139.139.159.139.179.119.179.1.2.079.239.06.239.059.259.02h.518l.238-.02.239-.039.2-.06.2-.059.179-.079.159-.1.16-.1.119-.119.119-.139.1-.158.079-.159.059-.178.041-.178.02-.2.02-.218-.02-.159-.04-.138-.04-.159-.08-.139-.1-.139-.119-.119-.14-.139-.159-.119-.179-.119-.219-.1-.219-.119-.259-.1-.259-.1-.3-.1-.318-.079-.319-.079-.279-.079-.239-.059-.239-.06-.219-.059-.2-.04-.2-.06-.179-.04-.159-.059-.7-.218-.657-.238-.319-.119-.3-.139-.279-.139-.279-.139-.258-.158-.259-.158-.239-.159-.218-.159-.219-.178-.2-.178-.2-.178-.179-.2-.16-.2-.159-.2-.139-.218-.139-.218-.119-.218-.12-.238-.1-.238-.1-.238-.08-.258-.06-.257-.059-.277-.06-.277-.02-.277-.04-.277-.02-.3v-.317l.02-.357.02-.337.04-.337.04-.337.08-.317.08-.317.1-.317.12-.3.119-.277.159-.277.159-.277.16-.257.2-.258.2-.238.239-.238.239-.237.24-.218.258-.2.279-.178.279-.178.278-.158.3-.159.319-.119.318-.119.319-.119.338-.079.358-.079.358-.06.358-.059.378-.02.378-.02.4-.02.319.02h.319l.3.04.3.02.279.04.279.06.258.059.259.079.259.079.24.1.258.1.239.139.239.119.239.138.239.159.219.178v-.872h4.3v5.824h-5.455l-.04-.238-.059-.218-.06-.218-.06-.178-.08-.178-.1-.139-.1-.139-.1-.119-.12-.1-.119-.079-.16-.079-.159-.059-.159-.06-.179-.02-.2-.02-.219-.02-.2.02-.2.02-.2.02-.179.06-.179.059-.159.079-.16.079-.139.1-.119.119-.12.119-.08.119-.079.139-.06.138-.039.139-.04.159v.178l.02.2.02.2.039.178.08.178.08.158.1.159.12.139.159.119.159.119.24.119.278.139.338.119.4.139.458.138.5.139.558.139.916.258.856.277.4.139.378.139.359.159.338.139.319.159.3.158.3.158.259.158.239.178.239.159.219.178.179.178.179.178.159.2.16.2.14.218.12.218.119.238.119.238.1.258.079.257.08.257.06.277.04.3.04.3.04.3v.317l.02.317-.02.376-.02.357-.04.357-.06.337-.08.337-.079.337-.1.317-.139.3-.14.317-.139.277-.179.3-.2.258-.2.277-.219.257-.239.238-.258.238-.259.238-.279.2-.278.2-.3.179-.319.178-.319.158-.318.139-.338.119-.338.1-.358.1-.359.079-.378.079-.378.04-.4.04-.4.02h-.757l-.319-.02-.319-.02-.319-.04-.3-.06-.3-.079-.3-.059-.278-.1-.279-.1-.259-.119-.278-.119-.259-.158-.258-.139-.24-.178-.259-.178-.239-.2v1.05h-4.52v-6.32Z" transform="translate(-314.835 -239.681)" fill="#0439a1" fill-rule="evenodd" />
            <path id="e-2" data-name="e" d="M516.706,260.136l-.159.376-.2.376-.2.356-.2.357-.219.356-.219.317-.239.317-.239.317-.258.3-.279.3-.279.258-.279.277-.3.257-.319.238-.318.238-.339.218-.338.218-.338.2-.358.178-.359.159-.359.158-.358.139-.379.139-.378.119-.4.1-.379.079-.4.079-.418.059-.4.059-.418.02-.418.02-.438.02-.6-.02-.577-.04-.556-.059-.558-.079-.518-.119-.538-.119-.5-.158-.5-.178-.458-.2-.478-.238-.458-.258-.437-.277-.439-.3-.418-.337-.418-.356-.4-.377-.378-.4-.359-.4-.339-.416-.3-.436-.279-.436-.259-.456-.239-.456-.219-.475-.178-.495-.16-.5-.139-.515-.12-.515-.08-.535-.059-.535-.04-.555-.02-.555.02-.554.04-.555.059-.535.08-.535.12-.515.139-.516.16-.495.2-.5.2-.475.239-.475.259-.456.3-.435.3-.436.319-.4.359-.416.378-.376.4-.376.4-.337.437-.317.439-.317.458-.277.457-.258.5-.238.5-.218.517-.178.5-.178.537-.139.518-.1.537-.1.558-.059.538-.04.557-.02.7.02.7.059.338.059.339.04.319.079.339.059.318.079.339.1.319.1.319.119.318.119.3.139.319.139.3.158.3.159.3.178.278.178.279.178.279.2.259.2.259.2.258.218.239.218.239.238.219.238.239.257.2.258.219.257.2.277.2.277.219.317.2.337.178.337.18.356.16.337.139.376.139.357.1.376.1.376.1.376.08.4.059.4.04.416.04.416.02.416v.951l-.02.139v.139l-.02.139v.158l-.021.139v.139l-.02.159-.02.158-.02.158-.02.159-.02.158-.02.159h-15.21l.1.336.14.317.159.3.18.277.219.277.239.238.259.238.279.218.319.2.318.158.338.159.338.119.378.079.359.059.4.04.4.02h.219l.219-.02.2-.02.219-.04.2-.04.2-.04.2-.059.179-.079.2-.06.179-.1.179-.079.18-.119.179-.119.18-.119.179-.139.179-.139Zm-14.733-6.24h9.179l-.12-.416-.139-.376-.18-.357-.179-.336-.218-.317-.239-.277-.279-.258-.278-.238-.3-.218-.338-.178-.338-.158-.359-.119-.4-.1-.4-.059-.418-.04-.438-.02-.4.02-.4.04-.379.059-.358.1-.359.139-.338.158-.318.178-.319.218-.279.238-.279.257-.239.277-.239.317-.2.337-.179.356-.139.376-.14.4Z" transform="translate(-297.57 -239.652)" fill="#0439a1" fill-rule="evenodd" />
            <path id="h-2" data-name="h" d="M455.55,256.763V240.994h-2.508V235.6h8.3v8.479l.259-.337.279-.317.279-.3.3-.257.319-.258.319-.218.338-.218.358-.178.359-.159.378-.139.378-.119.418-.1.4-.079.438-.04.438-.04.458-.02.418.02.418.02.4.04.379.059.358.06.359.1.358.1.338.119.319.139.319.139.3.178.279.178.279.2.258.218.239.218.239.257.219.258.219.277.2.277.179.3.159.317.159.337.12.337.139.357.1.376.1.377.08.416.06.4.04.436.039.436.02.456.02.475v7.587h2.628v5.428h-8.621V250.344l-.04-.515-.06-.476-.08-.436-.1-.376-.139-.357-.06-.159-.08-.138-.1-.139-.08-.119-.1-.119-.1-.119-.119-.1-.12-.1-.12-.079-.139-.079-.139-.06-.159-.079-.319-.1-.359-.079-.4-.04-.418-.02-.4.02-.379.059-.179.04-.179.04-.179.06-.159.079-.179.079-.139.079-.159.079-.139.119-.139.1-.139.119-.139.138-.119.139-.12.139-.12.159-.1.159-.1.159-.159.357-.139.376-.1.4-.08.416-.06.456v6.339h2.369v5.428H452.942v-5.428Z" transform="translate(-279.497 -235.605)" fill="#0439a1" fill-rule="evenodd" />
            <path id="c" d="M435.941,258.778l-.139.456-.139.456-.16.436-.179.436-.179.4-.219.416-.2.376-.239.377-.239.356-.259.357-.279.337-.278.317-.319.3-.3.3-.338.3-.338.258-.359.257-.358.238-.378.218-.378.218-.4.178-.4.178-.418.159-.418.139-.418.119-.438.119-.457.079-.458.079-.458.059-.477.04-.5.02-.478.02-.6-.02-.577-.04-.558-.06-.537-.079-.537-.119-.518-.139-.518-.158-.5-.178-.478-.2-.478-.238-.458-.257-.457-.277-.418-.3-.418-.317-.418-.356-.4-.377-.378-.4-.359-.4-.318-.416-.319-.436-.279-.436-.259-.455-.239-.456-.2-.476-.2-.5-.159-.5-.139-.515-.1-.515-.1-.535-.06-.535-.04-.555V255.43l.04-.555.06-.535.1-.535.1-.515.139-.5.159-.5.179-.475.2-.475.239-.456.259-.456.278-.436.319-.436.338-.436.359-.416.378-.4.378-.376.378-.337.4-.317.418-.3.418-.3.418-.238.458-.238.457-.218.458-.178.458-.159.478-.139.5-.119.478-.079.5-.059.5-.04.518-.02.4.02.418.02.4.04.379.079.378.079.378.1.378.119.358.139.338.159.359.159.319.2.338.218.319.238.3.238.3.277.3.277v-1.823h4.659v7.548h-5.554l-.16-.3-.179-.257-.179-.257-.2-.218-.219-.218-.219-.2-.239-.178-.239-.159-.259-.158-.279-.119-.258-.1-.3-.079-.3-.079-.3-.04-.338-.04h-.577l-.259.02-.239.02-.238.04-.239.06-.239.059-.239.079-.219.079-.219.1-.2.119-.219.119-.2.139-.2.139-.179.158-.2.159-.179.178-.16.178-.159.2-.159.2-.139.2-.119.218-.12.2-.1.238-.1.218-.08.218-.08.237-.06.238-.04.257-.04.238-.039.257-.02.258v.535l.02.277.02.257.04.238.06.257.06.238.06.238.079.238.1.218.1.218.12.218.12.2.139.2.139.2.16.2.179.178.159.178.179.158.2.159.179.139.2.119.2.119.219.119.2.1.219.079.219.079.239.06.219.059.239.04.239.02.259.02h.558l.319-.04.3-.04.3-.059.279-.1.278-.1.259-.119.259-.139.239-.158.239-.158.219-.2.2-.2.2-.218.179-.238.16-.257.139-.257Z" transform="translate(-263.113 -239.681)" fill="#0439a1" fill-rule="evenodd" />
            <path id="s-3" data-name="s" d="M382.453,259.947h5.555l.04.277.02.238.06.238.08.218.08.2.12.178.119.178.139.139.159.139.179.119.179.1.219.079.219.06.239.059.259.02h.518l.239-.02.239-.039.2-.06.2-.059.179-.079.159-.1.159-.1.12-.119.119-.139.1-.158.079-.159.06-.178.04-.178.02-.2.02-.218-.02-.159-.02-.138-.06-.159-.08-.139-.1-.139-.119-.119-.139-.139-.159-.119-.179-.119-.219-.1-.219-.119-.239-.1-.279-.1-.3-.1-.3-.079-.338-.079-.279-.079-.239-.059-.239-.06-.219-.059-.2-.04-.2-.06-.179-.04-.159-.059-.7-.218-.657-.238-.319-.119-.3-.139-.279-.139-.279-.139-.259-.158-.259-.158-.239-.159-.219-.159-.219-.178-.2-.178-.2-.178-.179-.2-.159-.2-.159-.2-.139-.218-.139-.218-.119-.218-.119-.238-.1-.238-.1-.238-.08-.258-.059-.257-.06-.277-.04-.277-.04-.277-.04-.277-.02-.3v-.317l.02-.357.02-.337.04-.337.04-.337.08-.317.08-.317.1-.317.12-.3.119-.277.159-.277.159-.277.179-.257.179-.258.219-.238.219-.238.239-.237.239-.218.259-.2.279-.178.279-.178.279-.158.3-.159.319-.119.318-.119.319-.119.338-.079.359-.079.358-.06.359-.059.378-.02.4-.02.378-.02.319.02h.318l.3.04.3.02.279.04.279.06.259.059.259.079.258.079.239.1.259.1.239.139.239.119.239.138.239.159.219.178v-.872h4.3v5.824h-5.455l-.04-.238-.06-.218-.06-.218-.06-.178-.08-.178-.1-.139-.1-.139-.1-.119-.119-.1-.119-.079-.16-.079-.139-.059-.179-.06-.179-.02-.2-.02-.2-.02-.219.02-.2.02-.2.02-.179.06-.179.059-.159.079-.159.079-.139.1-.12.119-.119.119-.079.119-.08.139-.06.138-.04.139-.02.159-.02.178.02.2.02.2.04.178.08.178.08.158.1.159.12.139.159.119.179.119.219.119.279.139.359.119.378.139.458.138.5.139.558.139.916.258.856.277.4.139.378.139.359.159.338.139.319.159.3.158.3.158.259.158.259.178.219.159.219.178.179.178.179.178.159.2.159.2.139.218.139.218.1.238.119.238.1.258.079.257.08.257.06.277.04.3.04.3.04.3.02.317v.317l-.02.376-.02.357-.04.357-.059.337-.06.337-.1.337-.1.317-.139.3-.14.317-.139.277-.179.3-.179.258-.219.277-.219.257-.239.238-.239.238-.279.238-.279.2-.279.2-.3.179-.319.178-.3.158-.338.139-.338.119-.338.1-.359.1-.359.079-.378.079-.378.04-.4.04-.4.02h-.757l-.319-.02-.318-.02-.318-.04-.3-.06-.3-.079-.3-.059-.279-.1-.279-.1-.259-.119-.279-.119-.259-.158-.259-.139-.239-.178-.259-.178-.239-.2v1.05h-4.519v-6.32Z" transform="translate(-249.562 -239.681)" fill="#0439a1" fill-rule="evenodd" />
            <path id="i-2" data-name="i" d="M362.311,240.538V235.6h5.814v4.933Zm0,16.225v-9.707H359.8v-5.388h8.322v15.1h2.608v5.428H359.723v-5.428Z" transform="translate(-239.932 -235.605)" fill="#0439a1" fill-rule="evenodd" />
            <path id="n" d="M317.314,260.97v-9.707h-2.528v-5.388h8.043v2.714l.259-.376.279-.337.3-.337.3-.3.319-.277.338-.258.338-.218.359-.2.378-.178.4-.159.4-.139.418-.1.438-.079.458-.06.478-.04.478-.02.438.02.4.02.4.04.4.059.358.06.378.1.339.1.338.119.318.139.319.159.3.159.279.178.279.2.259.218.259.238.239.237.219.258.219.277.179.3.2.3.159.317.16.337.119.337.139.357.1.376.1.376.079.4.06.416.06.416.02.436.04.456v8.063h2.628V266.4h-8.6V255.106l-.02-.554-.04-.515-.06-.475-.08-.436-.1-.376-.139-.357-.06-.158-.08-.139-.08-.139-.1-.119-.1-.119-.1-.119-.12-.1-.119-.1-.119-.079-.139-.079-.139-.06-.159-.079-.319-.1-.358-.079-.4-.04-.418-.02-.4.02-.378.059-.179.04-.179.04-.179.06-.16.079-.159.079-.159.079-.16.079-.139.119-.139.1-.139.119-.14.139-.119.139-.119.139-.1.158-.119.159-.08.158-.179.357-.14.376-.1.4-.08.416-.04.456-.02.475v5.864h2.369V266.4H314.686V260.97Z" transform="translate(-220.816 -239.812)" fill="#0439a1" fill-rule="evenodd" />
            <path id="h-3" data-name="h" d="M271.794,256.763V240.994h-2.509V235.6h8.3v8.479l.259-.337.278-.317.279-.3.3-.257.318-.258.318-.218.339-.218.358-.178.358-.159.378-.139.378-.119.4-.1.418-.079.438-.04.438-.04.458-.02.418.02.418.02.378.04.4.059.358.06.358.1.358.1.339.119.318.139.3.139.3.178.3.178.279.2.259.218.239.218.239.257.219.258.219.277.2.277.179.3.159.317.159.337.119.337.14.357.1.376.1.377.08.416.06.4.04.436.04.436.02.456.02.475v7.587h2.608v5.428h-8.6V250.344l-.04-.515-.06-.476-.079-.436-.1-.376-.139-.357-.06-.159-.08-.138-.1-.139-.079-.119-.1-.119-.1-.119-.119-.1-.119-.1-.12-.079-.139-.079-.14-.06-.159-.079-.319-.1-.358-.079-.4-.04-.418-.02-.4.02-.378.059-.2.04-.159.04-.179.06-.179.079-.159.079-.159.079-.139.079-.139.119-.159.1-.119.119-.139.138-.12.139-.119.139-.12.159-.1.159-.1.159-.159.357-.139.376-.119.4-.06.416-.06.456v6.339h2.349v5.428H269.166v-5.428Z" transform="translate(-201.496 -235.605)" fill="#0439a1" fill-rule="evenodd" />
            <path id="c-2" data-name="c" d="M251.542,258.778l-.139.456-.139.456-.159.436-.179.436-.179.4-.2.416-.219.376-.239.377-.239.356-.259.357-.279.337-.279.317-.318.3-.3.3-.338.3-.339.258-.358.257-.358.238-.378.218-.378.218-.4.178-.4.178-.418.159-.418.139-.418.119-.438.119-.458.079-.458.079-.458.059-.478.04-.5.02-.478.02-.6-.02-.577-.04-.558-.06-.538-.079-.537-.119-.518-.139-.518-.158-.5-.178-.478-.2-.477-.238-.458-.257-.438-.277-.438-.3-.418-.317-.418-.356-.4-.377-.378-.4-.358-.4-.318-.416-.319-.436-.279-.436-.259-.455-.239-.456-.2-.476-.2-.5-.159-.5-.139-.515-.1-.515-.1-.535-.06-.535-.04-.555V255.43l.04-.555.06-.535.1-.535.1-.515.139-.5.159-.5.179-.475.2-.475.239-.456.259-.456.279-.436.318-.436.339-.436.358-.416.378-.4.378-.376.378-.337.4-.317.418-.3.418-.3.438-.238.438-.238.458-.218.458-.178.458-.159.478-.139.5-.119.478-.079.5-.059.5-.04.517-.02.4.02.418.02.4.04.378.079.379.079.378.1.378.119.359.139.338.159.358.159.318.2.339.218.318.238.3.238.318.277.279.277v-1.823h4.659v7.548h-5.555l-.159-.3-.179-.257-.179-.257-.2-.218-.219-.218-.219-.2-.239-.178-.239-.159-.259-.158-.259-.119-.279-.1-.3-.079-.3-.079-.3-.04-.319-.04h-.6l-.259.02-.239.02-.239.04-.239.06-.239.059-.239.079-.219.079-.219.1-.2.119-.219.119-.2.139-.2.139-.179.158-.179.159-.2.178-.159.178-.159.2-.159.2-.139.2-.119.218-.119.2-.1.238-.1.218-.08.218-.08.237-.06.238-.04.257-.04.238-.04.257-.02.258v.535l.02.277.04.257.02.238.06.257.06.238.06.238.1.238.08.218.1.218.119.218.12.2.139.2.139.2.159.2.179.178.159.178.2.158.179.159.2.139.179.119.2.119.219.119.2.1.219.079.219.079.239.06.219.059.239.04.259.02.239.02h.558l.318-.04.3-.04.3-.059.279-.1.279-.1.259-.119.259-.139.259-.158.219-.158.219-.2.2-.2.2-.218.179-.238.159-.257.139-.257Z" transform="translate(-184.847 -239.681)" fill="#0439a1" fill-rule="evenodd" />
            <path id="e-3" data-name="e" d="M210.585,260.136l-.179.376-.18.376-.2.356-.2.357-.219.356-.219.317-.239.317-.259.317-.259.3-.258.3-.279.258-.3.277-.3.257-.3.238-.319.238-.338.218-.339.218-.338.2-.358.178-.359.159-.358.158-.379.139-.358.139-.4.119-.378.1-.4.079-.4.079-.4.059-.418.059-.418.02-.418.02-.418.02-.6-.02-.577-.04-.558-.059-.557-.079-.538-.119-.517-.119-.5-.158-.5-.178-.478-.2-.458-.238-.458-.258-.438-.277-.438-.3-.438-.337-.4-.356-.418-.377-.379-.4-.338-.4-.339-.416-.3-.436-.3-.436-.259-.456-.239-.456-.2-.475-.2-.495-.159-.5-.14-.515-.1-.515-.1-.535-.06-.535-.04-.555V255.4l.04-.555.079-.535.08-.535.119-.515.139-.516.159-.495.179-.5.219-.475.239-.475.258-.456.279-.435.318-.436.319-.4.358-.416.359-.376.4-.376.418-.337.418-.317.458-.317.438-.277.478-.258.478-.238.517-.218.5-.178.518-.178.517-.139.538-.1.538-.1.538-.059.557-.04.558-.02.7.02.7.059.338.059.319.04.338.079.338.059.318.079.319.1.338.1.3.119.319.119.318.139.3.139.319.158.3.159.279.178.3.178.279.178.279.2.259.2.259.2.238.218.259.218.239.238.219.238.219.257.219.258.219.257.2.277.179.277.219.317.2.337.2.337.18.356.139.337.159.376.119.357.12.376.1.376.1.376.059.4.06.4.06.416.02.416.02.416.02.436v.258l-.02.139v.4l-.02.139v.158l-.02.139-.02.139-.02.159v.158l-.02.158-.02.159-.02.158-.02.159h-15.21l.1.336.139.317.139.3.2.277.2.277.239.238.259.238.3.218.319.2.318.158.338.159.338.119.359.079.378.059.4.04.4.02h.219l.219-.02.2-.02.2-.04.219-.04.2-.04.179-.059.2-.079.18-.06.2-.1.179-.079.18-.119.18-.119.179-.119.179-.139.18-.139Zm-14.752-6.24h9.2l-.12-.416-.159-.376-.159-.357-.2-.336-.219-.317-.239-.277-.258-.258-.279-.238-.318-.218-.319-.178-.338-.158-.378-.119-.378-.1-.4-.059-.418-.04-.438-.02-.418.02-.378.04-.378.059-.378.1-.338.139-.338.158-.319.178-.318.218-.3.238-.259.257-.258.277-.219.317-.2.337-.179.356-.159.376-.139.4Z" transform="translate(-167.641 -239.652)" fill="#0439a1" fill-rule="evenodd" />
            <path id="T" d="M165.451,256.684h2.489v5.507H156.393v-5.507h2.489V241.073h-2.489V244.7h-4.8V235.6h21.163V244.7H167.94v-3.625h-2.489v15.611Z" transform="translate(-151.595 -235.605)" fill="#0439a1" fill-rule="evenodd" />
        </g>
    </g>
</svg>
  