<svg xmlns="http://www.w3.org/2000/svg" width="65.256" height="83.757" viewBox="0 0 65.256 83.757">
    <g id="Gruppe_7660" data-name="Gruppe 7660" transform="translate(-27.885 -23.303)">
        <path id="W" d="M648.646,310.77l12.37,20.5L677.23,304.4h4.026v-6.7H667.788v6.7h1.573l-8.345,13.835L648.609,297.7l-12.37,20.535L627.931,304.4h1.574v-6.7H616v6.7h4.063l16.213,26.87,12.37-20.5Z" transform="translate(-588.115 -224.207)" fill="#fff" fill-rule="evenodd" />
        <path id="W-2" data-name="W" d="M648.54,310.73l12.33,20.435,16.16-26.788h4.014V297.7H667.62v6.679h1.568L660.87,318.17,648.5,297.7l-12.33,20.472-8.28-13.793h1.569V297.7H616v6.679h4.05l16.161,26.788,12.33-20.435Z" transform="translate(-587.904 -226.8)" fill="#0439a1" fill-rule="evenodd" />
        <path id="W-3" data-name="W" d="M648.54,310.73l12.33,20.435,16.16-26.788h4.014V297.7H667.62v6.679h1.568L660.87,318.17,648.5,297.7l-12.33,20.472-8.28-13.793h1.569V297.7H616v6.679h4.05l16.161,26.788,12.33-20.435Z" transform="translate(-587.905 -226.8)" fill="#0439a1" fill-rule="evenodd" />
        <path id="H" d="M630.354,265.963v6.716h1.715v26.789l-1.715-.036v6.716h11.236v-6.716h-1.678v-6.679H655.6v6.679h-1.677v6.716h11.2v-6.716h-1.678V272.642l1.678.036v-6.716h-11.2v6.716H655.6v13.359H639.913V272.678h1.678v-6.716Z" transform="translate(-587.12 -228.533)" fill="#0439a1" fill-rule="evenodd" />
        <path id="T" d="M666.47,253.779H631.7V262.9h8.532v-1.856H644.8v17.02h-1.827v7.306h12.184v-7.306h-1.825V261.084h4.6V262.9h8.532v-9.122Z" transform="translate(-588.469 -230.475)" fill="#fff" fill-rule="evenodd" />
        <path id="T-2" data-name="T" d="M663.66,253.779H631.7v8.385h7.843v-1.706h4.2V276.1h-1.679v6.716h11.2V276.1h-1.678V260.494h4.232v1.67h7.843v-8.385Z" transform="translate(-587.046 -229.199)" fill="#0439a1" fill-rule="evenodd" />
    </g>
</svg>
  