<svg xmlns="http://www.w3.org/2000/svg" width="122.138" height="121.534" viewBox="0 0 122.138 121.534">
    <path id="Zahnrad" d="M747.525-1322.465h-2.91l-1.44-.077-1.474-.075-1.438-.111-2.119-12.534-1.171-.188-1.212-.265-1.171-.261-1.173-.3-1.135-.3-1.171-.376-1.135-.376-1.135-.414-8.132,9.788-1.323-.6-1.286-.64-1.286-.677-1.286-.717-1.248-.752-1.211-.752-1.209-.792-1.212-.828,4.465-11.892-.945-.79-.91-.79-.87-.829-.869-.829-.833-.864-.831-.869-.8-.9-.756-.94-11.992,4.439-.831-1.165-.793-1.241-.758-1.206-.757-1.243-.718-1.279-.681-1.279-.643-1.279-.605-1.318,9.834-8.093-.416-1.13-.378-1.127-.342-1.13-.339-1.168-.3-1.166-.265-1.166-.228-1.166-.227-1.2-12.6-2.108-.113-1.431-.077-1.467-.038-1.431-.037-1.429.037-1.469.038-1.429.077-1.469.113-1.43,12.6-2.106.227-1.168.228-1.2.265-1.168.3-1.166.339-1.13.342-1.166.378-1.129.416-1.13-9.834-8.091.605-1.317.643-1.281.681-1.279.718-1.279.757-1.243.758-1.205.793-1.2.831-1.2,11.992,4.441.756-.94.8-.9.831-.867.833-.865.869-.828.87-.828.91-.792.946-.79-4.465-11.894,1.212-.828,1.209-.79,1.211-.754,1.248-.752,1.286-.715,1.286-.677,1.286-.64,1.323-.6,8.132,9.786,1.135-.414,1.135-.376,1.171-.34,1.135-.339,1.173-.3,1.171-.263,1.212-.226,1.171-.226,2.119-12.534,1.438-.113,1.474-.075,1.44-.075h2.91l1.438.075,1.474.075,1.438.113,2.119,12.534,1.209.226,1.175.226,1.171.263,1.173.3,1.135.339,1.173.34,1.135.376,1.134.414,8.131-9.786,1.325.6,1.286.64,1.286.677,1.287.715,1.247.752,1.211.754,1.248.79,1.171.828-4.463,11.894.948.79.908.792.87.828.869.828.833.865.831.867.8.9.8.94,11.952-4.441.833,1.2.793,1.2.756,1.205.758,1.243.718,1.279.681,1.279.643,1.281.607,1.317-9.836,8.091.416,1.13.378,1.129.342,1.166.339,1.13.3,1.166.263,1.168.265,1.2.19,1.168,12.6,2.106.115,1.43.073,1.469.077,1.429v2.9l-.077,1.431-.073,1.467-.115,1.431-12.6,2.108-.19,1.2-.265,1.166-.263,1.166-.3,1.166-.339,1.168-.342,1.13-.378,1.127-.416,1.13,9.836,8.093-.607,1.318-.643,1.279-.681,1.279-.718,1.279-.758,1.243-.756,1.206-.793,1.241-.833,1.165-11.952-4.439-.8.94-.8.9-.831.869-.833.864-.869.829-.87.829-.908.79-.947.79,4.463,11.892-1.171.828-1.248.792-1.211.752-1.246.752-1.288.717-1.286.677-1.286.64-1.325.6-8.131-9.788-1.134.414-1.135.376-1.173.376-1.135.3-1.173.3-1.171.261-1.175.265-1.209.188-2.119,12.534-1.438.111-1.474.075Zm-1.455-99.716a38.992,38.992,0,0,0-38.949,38.947,38.993,38.993,0,0,0,38.949,38.948,38.992,38.992,0,0,0,38.947-38.948A38.991,38.991,0,0,0,746.07-1422.181Z" transform="translate(-685 1444)" fill="#0439a1" />
</svg>