<?xml version="1.0" encoding="utf-8"?>
<svg xmlns="http://www.w3.org/2000/svg" viewBox="0 0 48 48" width="144" height="144">
  <path d="M24 5 A 1.50015 1.50015 0 1 0 24 8C33.406292 8 41 15.593708 41 25C41 34.406292 33.406292 42 24 42C18.386845 42 13.427739 39.289723 10.330078 35.107422 A 1.500421 1.500421 0 0 0 7.9179688 36.892578C11.560308 41.810277 17.419155 45 24 45C35.027708 45 44 36.027708 44 25C44 13.972292 35.027708 5 24 5 z M 18.261719 5.9042969 A 1.5 1.5 0 1 0 18.261719 8.9042969 A 1.5 1.5 0 0 0 18.261719 5.9042969 z M 13.109375 8.5429688 A 1.5 1.5 0 0 0 13.109375 11.542969 A 1.5 1.5 0 0 0 13.109375 8.5429688 z M 9.0253906 12.638672 A 1.5 1.5 0 0 0 9.0253906 15.638672 A 1.5 1.5 0 0 0 9.0253906 12.638672 z M 6.3984375 17.794922 A 1.5 1.5 0 0 0 6.3984375 20.794922 A 1.5 1.5 0 0 0 6.3984375 17.794922 z M 5.5 23.5 A 1.5 1.5 0 0 0 5.5 26.5 A 1.5 1.5 0 0 0 5.5 23.5 z M 6.4023438 29.224609 A 1.5 1.5 0 0 0 6.4023438 32.224609 A 1.5 1.5 0 0 0 6.4023438 29.224609 z" fill="#FFFFFF" />
</svg>