<svg xmlns="http://www.w3.org/2000/svg" xmlns:xlink="http://www.w3.org/1999/xlink" width="128" height="32" viewBox="0 0 128 32">
  <defs>
    <clipPath id="clip-mittag">
      <rect width="128" height="32"/>
    </clipPath>
  </defs>
  <g id="mittag" clip-path="url(#clip-mittag)">
    <rect width="128" height="32" fill="#0439a1"/>
    <path id="icons8_meal_1" d="M11.509,0A11.509,11.509,0,1,0,23.019,11.509,11.487,11.487,0,0,0,11.509,0ZM10.448,11.6c0,.885.353,2.476.353,4.6,0,3.808-.443,4.16-1.062,4.16S8.677,20.01,8.677,16.2c0-2.127.353-3.718.353-4.6s-1.947-.885-1.947-3.189c0-2.037.176-5.578.176-5.578a5,5,0,0,1,1.062-.086V7.173a.443.443,0,1,0,.885,0V2.656h1.152V7.173a.443.443,0,1,0,.885,0V2.656a9.511,9.511,0,0,0,1.062.09s.09,4.337.09,5.665C12.395,10.714,10.448,10.714,10.448,11.6Zm5.136,4.869c0,3.8-.533,3.894-1.152,3.894s-1.152-.09-1.152-3.894c0-2.127.885-5.668.885-9.386V2.656c2.39,0,2.922,3.894,2.922,5.665,0,2.3-1.861,3.455-1.861,4.959A22.85,22.85,0,0,1,15.583,16.469Z" transform="translate(91.491 4.491)" fill="#fff"/>
    <path id="Pfad_115" data-name="Pfad 115" d="M18.062-3.014H19.47V0H13V-3.014H14.41V-9.636L11.2,0H8.712L5.522-9.526v6.512H6.93V0H.792V-3.014H2.2V-11.66H.792v-3.014H7.048l2.974,9.02,2.908-9.02H19.47v3.014H18.062ZM25.5-11.66H22.22v-3.014H25.5Zm0,8.646h1.166V0h-5.61V-3.014H22.22V-8.052H21.054v-3.014H25.5Zm7,0h1.584V0H29.216V-8.052H27.7v-3.014h1.518v-3.608h3.278v3.608h1.518v3.014H32.494Zm7.238,0h1.584V0H36.454V-8.052H34.936v-3.014h1.518v-3.608h3.278v3.608H41.25v3.014H39.732Zm8.679-5.17a2.561,2.561,0,0,0-1.03.209,2.685,2.685,0,0,0-.844.572,2.7,2.7,0,0,0-.57.847,2.589,2.589,0,0,0-.208,1.034A2.511,2.511,0,0,0,45.968-4.5a2.736,2.736,0,0,0,.57.836,2.723,2.723,0,0,0,.833.572,2.484,2.484,0,0,0,1.019.209,2.561,2.561,0,0,0,1.03-.209,2.685,2.685,0,0,0,.844-.572,2.7,2.7,0,0,0,.57-.847,2.589,2.589,0,0,0,.208-1.034,2.715,2.715,0,0,0-.2-1.034,2.434,2.434,0,0,0-.559-.836,2.783,2.783,0,0,0-.844-.561A2.561,2.561,0,0,0,48.411-8.184Zm5.863,5.17H55.44V0H51.018V-.946A3.8,3.8,0,0,1,47.982.33a5.2,5.2,0,0,1-2.167-.462,5.681,5.681,0,0,1-1.782-1.254,6.152,6.152,0,0,1-1.21-1.837,5.575,5.575,0,0,1-.451-2.233,5.949,5.949,0,0,1,.451-2.3,5.945,5.945,0,0,1,1.232-1.892,5.936,5.936,0,0,1,1.826-1.276,5.352,5.352,0,0,1,2.233-.473,3.45,3.45,0,0,1,2.9,1.386v-1.056H55.44v3.014H54.274Zm8.558-5.192A2.635,2.635,0,0,0,61.776-8a2.834,2.834,0,0,0-.858.572,2.61,2.61,0,0,0-.583.847,2.58,2.58,0,0,0-.209,1.034,2.545,2.545,0,0,0,.22,1.045,2.819,2.819,0,0,0,.583.858,2.665,2.665,0,0,0,.858.572,2.715,2.715,0,0,0,1.067.209A2.659,2.659,0,0,0,63.9-3.069a2.665,2.665,0,0,0,.858-.572,2.859,2.859,0,0,0,.583-.847,2.469,2.469,0,0,0,.22-1.034,2.659,2.659,0,0,0-.209-1.045,2.58,2.58,0,0,0-.583-.858A2.8,2.8,0,0,0,63.9-8,2.715,2.715,0,0,0,62.832-8.206ZM61.116.88a1.722,1.722,0,0,0,1.716.9A2.4,2.4,0,0,0,64.625,1.1,2.461,2.461,0,0,0,65.3-.7v-.418a5.385,5.385,0,0,1-.385.451,2.363,2.363,0,0,1-.3.253A3.077,3.077,0,0,1,63.6.055,4.582,4.582,0,0,1,62.37.22a5.236,5.236,0,0,1-2.156-.451,5.654,5.654,0,0,1-1.771-1.232,5.848,5.848,0,0,1-1.2-1.826A5.639,5.639,0,0,1,56.8-5.5a5.575,5.575,0,0,1,.451-2.233A5.946,5.946,0,0,1,58.487-9.57a5.951,5.951,0,0,1,1.8-1.254,5.256,5.256,0,0,1,2.189-.462,4.3,4.3,0,0,1,1.738.319,3.479,3.479,0,0,1,1.3,1.023v-1.122h4.136v3.014H68.486v6.93A10.23,10.23,0,0,1,68.4.308a5.462,5.462,0,0,1-.275,1.122,3.531,3.531,0,0,1-.5.913,4.959,4.959,0,0,1-.748.781,6.17,6.17,0,0,1-4.114,1.408A5.911,5.911,0,0,1,58.5,3.014a4.1,4.1,0,0,1-.726-.935,5,5,0,0,1-.418-1.2Z" transform="translate(11 23)" fill="#fff"/>
  </g>
</svg>
