<svg xmlns="http://www.w3.org/2000/svg" xmlns:xlink="http://www.w3.org/1999/xlink" width="128" height="32" viewBox="0 0 128 32">
  <defs>
    <clipPath id="clip-thw">
      <rect width="128" height="32"/>
    </clipPath>
  </defs>
  <g id="thw" clip-path="url(#clip-thw)">
    <rect width="128" height="32" fill="#fff"/>
    <g id="Gruppe_1" data-name="Gruppe 1" transform="translate(-16 -9.725)">
      <g id="Technisches_Hilf" data-name="Technisches Hilf" transform="translate(17 13)">
        <g id="Hilfswerk" transform="translate(23.742 14.449)">
          <path id="k" d="M530.742,308.106v-6.272h-1v-2.141h3.29v6.154l1.693-1.739H533.8v-2h4.176v2.133h-.886l-1.669,1.747,1.645,2.117h1.163v2.148h-2.309l-2.887-3.652v3.652H529.7v-2.148Z" transform="translate(-466.991 -299.489)" fill="#0439a1" fill-rule="evenodd"/>
          <path id="r" d="M503.857,315.806v-3.864h-.933v-2.133h3.132v1.181l.087-.165.095-.142.095-.142.1-.126.119-.11.111-.11.126-.094.134-.087.134-.071.142-.071.158-.055.158-.047.174-.039.182-.024.19-.024.2-.008v2.259l-.135.008-.134.016-.127.016-.127.024-.118.023-.111.024-.111.032-.1.031-.095.039-.095.039-.087.047-.087.047-.079.055-.071.055-.071.055-.063.063-.063.071-.055.07-.047.071-.047.087-.047.087-.039.086-.04.095-.031.1-.024.11-.032.11-.016.11-.016.118-.016.126-.008.134-.008.134v1.786h.941v2.148h-4.279v-2.148Z" transform="translate(-446.259 -307.189)" fill="#0439a1" fill-rule="evenodd"/>
          <path id="e" d="M471.708,315.211l-.071.158-.071.149-.079.142-.087.141-.087.134-.087.134-.095.126-.095.118-.1.118-.111.118-.11.11-.111.1-.119.1-.127.1-.127.087-.134.094-.134.079-.134.079-.142.07-.134.071-.151.063-.142.055-.15.047-.15.047-.159.039-.15.039-.158.032-.166.023-.158.016-.166.016-.166.008h-.174l-.237-.008-.229-.008-.221-.024-.214-.039-.214-.039-.206-.055-.206-.063-.19-.071-.19-.079-.19-.087-.182-.1-.174-.11-.174-.126-.166-.126-.166-.142-.158-.157-.15-.149-.142-.165-.134-.158-.119-.173-.111-.173-.1-.181-.095-.189-.087-.189-.071-.189-.063-.2-.055-.2-.047-.2-.032-.213-.024-.22-.016-.212-.008-.228.008-.221.016-.212.024-.221.032-.2.047-.2.055-.2.063-.205.079-.189.087-.2.087-.181.111-.181.111-.181.119-.165.126-.165.142-.158.15-.157.158-.142.158-.142.174-.126.174-.118.182-.11.19-.1.19-.094.2-.087.205-.079.206-.063.206-.055.214-.047.206-.032.222-.031.214-.008.222-.008.277.008.277.024.134.016.134.024.135.024.126.031.134.032.127.039.126.039.126.047.127.047.119.055.126.055.119.055.119.07.119.063.111.071.111.071.111.079.1.078.1.087.1.087.095.086.095.095.095.094.087.095.087.1.079.1.079.11.079.11.087.133.079.134.071.134.071.134.064.142.055.141.055.15.047.142.04.15.032.157.032.157.024.157.016.157.016.165.008.173v.378l-.008.055v.11l-.008.055-.008.055v.063l-.008.055-.008.063-.008.063-.008.063-.008.063-.008.063H465.9l.04.134.055.126.063.118.071.118.087.1.095.1.1.095.111.086.127.071.127.071.134.055.142.047.142.039.15.024.15.016h.332l.087-.016.079-.008.079-.016.079-.024.079-.024.071-.024.079-.031.071-.032.071-.039.071-.039.071-.047.071-.047.071-.055.071-.063Zm-5.86-2.479h3.646l-.048-.157-.055-.157-.071-.142-.071-.134-.087-.118-.1-.118-.1-.1-.119-.095-.119-.079-.134-.071-.135-.063-.142-.047-.15-.04-.166-.031-.166-.016-.174-.008-.158.008-.158.016-.15.031-.142.04-.142.047-.134.063-.127.071-.119.087-.119.094-.111.11-.095.11-.087.118-.079.134-.071.142-.064.149-.055.157Z" transform="translate(-415.762 -306.87)" fill="#0439a1" fill-rule="evenodd"/>
          <path id="w" d="M412.253,318.405h-2.3l-1.922-6.012h-.712V310.26h3.654v2.133h-.656l.878,3.2,1.424-5.328h1.993l1.424,5.328.886-3.2h-.656V310.26h3.646v2.133H419.2l-1.922,6.012h-2.3l-1.36-4.69-1.36,4.69Z" transform="translate(-372.592 -307.639)" fill="#0439a1" fill-rule="evenodd"/>
          <path id="s" d="M376.169,315.187h2.214l.008.1.016.1.016.087.032.087.039.079.04.079.048.063.055.063.063.055.071.047.071.032.087.039.087.024.095.016.1.008.1.008.1-.008.1-.008.087-.008.079-.023.079-.024.071-.032.063-.039.063-.047.047-.047.047-.055.04-.055.032-.063.024-.071.016-.071.016-.087v-.079l-.008-.063-.008-.063-.024-.055-.032-.055-.04-.055-.047-.055-.055-.047-.063-.047-.071-.047-.079-.047-.1-.039-.095-.047-.111-.031-.111-.039-.127-.039-.134-.032-.1-.024-.1-.024-.095-.023-.087-.024-.079-.024-.079-.016-.063-.024-.071-.016-.277-.087-.261-.095-.127-.055-.119-.047-.111-.055-.111-.063-.1-.055-.1-.063-.095-.063-.087-.071-.087-.071-.079-.07-.071-.071-.071-.071-.071-.079-.063-.087-.055-.079-.055-.087-.047-.094-.047-.087-.04-.095-.032-.1-.032-.1-.032-.1-.024-.1-.016-.11-.016-.11-.008-.118-.008-.118-.008-.118.008-.142.008-.141.016-.134.024-.134.024-.126.032-.126.039-.118.048-.118.055-.118.055-.11.063-.11.071-.1.071-.1.087-.095.087-.094.095-.087.1-.087.111-.079.1-.079.111-.071.119-.063.119-.055.119-.055.126-.047.134-.039.134-.039.135-.024.142-.031.142-.016.15-.016.158-.008h.285l.119.008.119.008.119.016.111.016.111.024.1.024.1.032.1.031.1.039.095.039.095.047.095.055.095.055.095.063.095.063v-.338h1.7v2.314h-2.159l-.024-.094-.016-.095-.032-.079-.024-.079-.032-.063-.04-.063-.032-.055-.047-.047-.048-.039-.047-.032-.055-.032-.063-.023-.071-.016-.071-.016-.079-.008h-.166l-.079.008-.079.016-.071.016-.071.023-.063.032-.063.032-.055.039-.047.047-.04.047-.039.047-.032.055-.024.055-.016.063-.008.063-.008.063.008.087.008.079.024.071.024.071.032.063.039.055.055.055.055.047.071.055.087.047.119.047.135.055.158.055.174.055.2.055.221.055.372.1.332.1.158.055.15.063.142.055.134.063.127.055.126.063.111.063.1.071.1.063.087.071.087.071.071.071.071.071.063.079.063.079.055.087.055.087.047.095.04.094.039.095.032.1.032.11.024.11.024.11.016.118.008.126.008.126v.276l-.016.142-.016.142-.024.134-.024.134-.04.126-.039.126-.047.126-.055.118-.063.118-.071.11-.071.11-.087.1-.087.1-.095.1-.095.094-.111.087-.111.087-.111.079-.119.071-.119.063-.127.063-.134.055-.127.047-.142.047-.135.039-.15.031-.15.024-.15.024-.158.008-.158.016h-.293l-.134-.008-.126-.016-.119-.016-.127-.024-.119-.024-.111-.032-.111-.039-.111-.039-.111-.047-.1-.047-.1-.055-.1-.063-.1-.063-.1-.071-.095-.079v.409h-1.8v-2.5Z" transform="translate(-348.552 -306.924)" fill="#0439a1" fill-rule="evenodd"/>
          <path id="f" d="M353.849,303.552H352.8v-2.133h1.044v-.181l.008-.165.016-.165.024-.15.024-.15.032-.142.032-.141.047-.126.048-.126.055-.11.055-.11.063-.11.071-.094.079-.087.079-.086.087-.079.095-.071.1-.071.111-.063.119-.055.126-.055.135-.047.142-.047.15-.039.158-.039.166-.032.174-.023.182-.016.19-.024.2-.008.206-.008h.712v1.873h-.04l-.087-.008-.079-.008-.063-.008H357.2l-.063-.008H356.9l-.111.008-.095.016-.087.016-.079.024-.071.024-.055.039-.055.039-.048.039-.032.055-.04.055-.023.071-.024.079-.008.079-.008.087-.008.1v.047h1.155v2.133h-1.155v3.864H357.3v2.148H352.8v-2.148h1.044v-3.864Z" transform="translate(-330.542 -298.799)" fill="#0439a1" fill-rule="evenodd"/>
          <path id="l" d="M331,308.106v-6.272h-1v-2.141h3.314v8.413h1.036v2.148h-4.373v-2.148Z" transform="translate(-312.932 -299.489)" fill="#0439a1" fill-rule="evenodd"/>
          <path id="i" d="M306.652,301.653v-1.96h2.309v1.96Zm0,6.453v-3.864h-1v-2.133h3.306v6H310v2.149h-4.374v-2.149Z" transform="translate(-294.148 -299.488)" fill="#0439a1" fill-rule="evenodd"/>
          <path id="H" d="M256.462,308.074v-6.209h-1.028v-2.172h4.595v2.172h-.957v1.913H262.2v-1.913h-.981v-2.172h4.619v2.172h-1.044v6.209h1.044v2.18h-4.619v-2.18h.981V305.95h-3.124v2.125h.973v2.18h-4.611v-2.18Z" transform="translate(-255.434 -299.489)" fill="#0439a1" fill-rule="evenodd"/>
        </g>
        <g id="Technisches" transform="translate(0)">
          <path id="s-2" data-name="s" d="M536.217,251.063h2.207l.008.11.016.094.024.094.032.087.032.079.048.071.047.071.055.055.063.055.071.047.071.039.079.031.1.024.095.024.1.008h.205l.095-.008.095-.016.079-.024.079-.024.071-.031.063-.039.063-.039.047-.047.047-.055.04-.063.031-.063.024-.071.016-.071.008-.079.008-.087-.008-.063-.016-.055-.016-.063-.032-.055-.039-.055-.047-.047-.055-.055-.063-.047-.071-.047-.087-.039-.087-.047-.1-.039-.1-.039-.119-.039-.126-.031-.127-.032-.111-.031-.095-.024-.1-.024-.087-.024-.079-.016-.079-.024-.071-.016-.063-.024-.277-.087-.261-.094-.127-.047-.119-.055-.111-.055-.111-.055-.1-.063-.1-.063-.095-.063-.087-.063-.087-.071-.079-.071-.079-.071-.071-.079-.063-.079-.063-.079-.055-.087-.055-.087-.047-.087-.048-.094-.039-.094-.039-.094-.032-.1-.024-.1-.024-.11-.024-.11-.008-.11-.016-.11-.008-.118v-.126l.008-.142.008-.134.016-.134.016-.134.032-.126.032-.126.039-.126.048-.118.047-.11.063-.11.063-.11.063-.1.079-.1.079-.094.095-.094.095-.094.1-.087.1-.079.111-.071.111-.071.111-.063.119-.063.127-.047.126-.047.127-.047.134-.031.142-.031.142-.024.142-.024.15-.008.15-.008.158-.008.127.008h.127l.118.016.119.008.111.016.111.024.1.024.1.031.1.031.1.039.1.039.095.055.095.047.095.055.095.063.087.071v-.346h1.708V247.7h-2.167l-.016-.094-.023-.087-.024-.087-.024-.071-.032-.071-.039-.055-.039-.055-.04-.047-.048-.039-.047-.031-.064-.031-.063-.024-.063-.024-.071-.008-.079-.008-.087-.008-.079.008-.079.008-.079.008-.071.024-.071.024-.063.031-.063.031-.055.039-.047.047-.048.047-.032.047-.031.055-.024.055-.015.055-.016.063v.071l.008.079.008.079.015.071.032.071.032.063.039.063.048.055.063.047.063.047.1.047.111.055.134.047.158.055.182.055.2.055.221.055.364.1.34.11.158.055.15.055.142.063.134.055.127.063.118.063.119.063.1.063.095.071.095.063.087.071.071.071.071.071.063.079.064.079.055.087.048.086.047.094.047.094.04.1.031.1.032.1.024.11.016.118.016.118.016.118v.126l.008.126-.008.149-.008.142-.016.142-.024.134-.032.134-.031.134-.039.126-.055.118-.055.126-.055.11-.071.118-.079.1-.079.11-.087.1-.095.094-.1.094-.1.094-.111.079-.11.079-.119.071-.127.071-.126.063-.127.055-.134.047-.134.039-.142.039-.143.031-.15.031-.15.016-.158.016-.158.008h-.3l-.127-.008-.127-.008-.127-.016-.118-.024-.119-.031-.119-.024-.11-.039-.111-.039-.1-.047-.11-.047-.1-.063-.1-.055-.1-.071-.1-.071-.095-.079v.417h-1.8v-2.51Z" transform="translate(-448.265 -243.012)" fill="#0439a1" fill-rule="evenodd"/>
          <path id="e-2" data-name="e" d="M503.938,251.1l-.063.15-.079.15-.079.142-.079.142-.087.142-.087.126-.095.126-.1.126-.1.118-.111.118-.111.1-.111.11-.119.1-.127.094-.126.094-.135.086-.135.087-.134.079-.142.071-.142.063-.142.063-.142.055-.15.055-.15.047-.158.039-.15.032-.158.031-.166.024-.158.024-.166.008-.166.008-.174.008-.237-.008-.229-.016-.221-.024-.222-.032-.206-.047-.214-.047-.2-.063-.2-.071-.182-.079-.19-.094-.182-.1-.174-.11-.174-.118-.166-.134-.166-.142-.158-.15-.15-.157-.142-.158-.135-.165-.119-.173-.111-.173-.1-.181-.095-.181-.087-.189-.071-.2-.063-.2-.055-.2-.047-.2-.032-.212-.024-.212-.016-.22-.008-.22.008-.22.016-.22.024-.212.032-.213.047-.2.055-.2.063-.2.079-.2.079-.189.095-.189.1-.181.119-.173.119-.173.127-.157.142-.165.15-.15.158-.15.158-.134.174-.126.174-.126.182-.11.182-.1.2-.094.2-.086.206-.071.2-.071.213-.055.206-.039.213-.039.222-.024.214-.016.221-.008.277.008.277.024.134.024.135.016.127.031.135.024.126.032.135.039.127.039.127.047.126.047.119.055.127.055.118.063.119.063.119.071.111.071.111.071.111.079.1.079.1.079.1.086.1.086.095.095.087.094.095.1.079.1.087.1.079.11.079.11.087.126.079.134.071.134.071.142.063.134.055.149.055.142.04.15.04.15.039.15.032.157.023.158.016.165.016.165.008.165v.378l-.008.055v.055l-.008.055v.063l-.008.055v.055l-.008.063-.008.063-.008.063-.008.063-.008.063-.008.063h-6.042l.039.134.056.126.063.118.071.11.087.11.095.094.1.094.111.087.127.079.126.063.134.063.134.047.15.032.142.024.158.016.158.008h.087l.087-.008.079-.008.087-.016.079-.016.079-.016.079-.024.071-.031.079-.024.071-.039.071-.032.071-.047.071-.047.071-.047.071-.055.071-.055Zm-5.853-2.479h3.646l-.048-.165-.055-.15-.071-.142-.071-.134-.087-.126-.095-.11-.111-.1-.111-.094-.119-.086-.134-.071-.134-.063-.142-.047-.158-.039-.158-.024-.166-.016-.174-.008-.158.008-.158.016-.15.024-.142.039-.142.055-.134.063-.127.071-.127.087-.111.094-.111.1-.095.11-.095.126-.079.134-.071.142-.055.15-.056.158Z" transform="translate(-416.888 -242.959)" fill="#0439a1" fill-rule="evenodd"/>
          <path id="h-2" data-name="h" d="M453.978,244.01v-6.264h-1V235.6h3.3v3.368l.1-.134.111-.126.111-.118.118-.1.127-.1.127-.087.134-.086.142-.071.143-.063.15-.055.15-.047.166-.039.158-.031.174-.016.174-.016.182-.008.166.008.166.008.158.016.15.024.142.024.142.039.142.039.135.047.127.055.127.055.119.071.111.071.111.079.1.087.095.087.1.1.087.1.087.11.079.11.071.118.063.126.063.134.048.134.055.142.039.149.04.15.032.165.024.157.016.173.016.173.008.181.008.189v3.014h1.044v2.156h-3.424V241.46l-.016-.2-.024-.189-.032-.173-.039-.15-.055-.142-.024-.063-.032-.055-.039-.055-.032-.047-.04-.047-.039-.047-.047-.039-.048-.039-.047-.031-.055-.031-.055-.024-.063-.031-.127-.039-.142-.031-.158-.016-.166-.008-.158.008-.15.024-.071.016-.071.016-.071.024-.063.031-.071.031-.055.031-.063.031-.056.047-.055.039-.055.047-.055.055-.047.055-.048.055-.048.063-.039.063-.039.063-.063.142-.055.15-.039.157-.032.165-.024.181v2.518h.941v2.156h-4.279V244.01Z" transform="translate(-384.043 -235.605)" fill="#0439a1" fill-rule="evenodd"/>
          <path id="c" d="M422.921,250.6l-.055.181-.055.181-.063.173-.071.173-.071.157-.087.165-.079.149-.095.15-.095.142-.1.142-.111.134-.111.126-.127.118-.119.118-.134.118-.134.1-.142.1-.142.094-.15.087-.15.087-.158.071-.158.071-.166.063-.166.055-.166.047-.174.047-.182.031-.182.031-.182.024-.19.016-.2.008-.19.008-.237-.008-.229-.016-.221-.024-.213-.031-.214-.047-.206-.055-.206-.063-.2-.071-.19-.079-.19-.094-.182-.1-.182-.11-.166-.118-.166-.126-.166-.142-.158-.15-.15-.157-.143-.157-.126-.165-.127-.173-.111-.173-.1-.181-.095-.181-.079-.189-.079-.2-.063-.2-.055-.2-.04-.2-.039-.213-.024-.212-.016-.22v-.441l.016-.22.024-.212.039-.213.04-.2.055-.2.063-.2.071-.189.079-.189.095-.181.1-.181.111-.173.127-.173.134-.173.143-.165.15-.157.15-.15.15-.134.158-.126.166-.118.166-.118.166-.094.182-.094.182-.086.182-.071.182-.063.19-.055.2-.047.19-.031.2-.024.2-.016.206-.008.158.008.166.008.158.016.15.031.15.031.15.039.15.047.142.055.134.063.142.063.127.079.134.087.127.094.119.094.119.11.119.11v-.724h1.851v3h-2.206l-.063-.118-.071-.1-.071-.1-.079-.087-.087-.087-.087-.079-.095-.071-.095-.063-.1-.063-.111-.047-.1-.039-.119-.031-.119-.031-.119-.016-.134-.016h-.229l-.1.008-.1.008-.095.016-.1.024-.095.024-.095.031-.087.031-.087.039-.079.047-.087.047-.079.055-.079.055-.071.063-.079.063-.071.071-.063.071-.063.079-.063.079-.055.079-.047.086-.048.079-.039.094-.04.086-.032.087-.032.094-.024.095-.016.1-.016.094-.016.1-.008.1v.212l.008.11.008.1.016.094.024.1.024.094.024.095.031.094.039.086.04.087.047.087.048.079.055.079.055.079.063.079.071.071.063.071.071.063.079.063.071.055.079.047.079.047.087.047.079.039.087.031.087.031.095.024.087.024.095.016.095.008.1.008h.222l.127-.016.119-.016.119-.024.111-.039.111-.039.1-.047.1-.055.095-.063.095-.063.087-.079.079-.079.079-.087.071-.095.063-.1.055-.1Z" transform="translate(-354.266 -243.012)" fill="#0439a1" fill-rule="evenodd"/>
          <path id="s-3" data-name="s" d="M382.429,251.063h2.207l.016.11.008.094.024.094.032.087.032.079.048.071.047.071.055.055.063.055.071.047.071.039.087.031.087.024.095.024.1.008h.206l.095-.008.095-.016.079-.024.079-.024.071-.031.063-.039.063-.039.048-.047.047-.055.04-.063.032-.063.024-.071.016-.071.008-.079.008-.087-.008-.063-.008-.055-.024-.063-.032-.055-.04-.055-.047-.047-.055-.055-.063-.047-.071-.047-.087-.039-.087-.047-.095-.039-.111-.039-.119-.039-.119-.031-.134-.032-.111-.031-.095-.024-.095-.024-.087-.024-.079-.016-.079-.024-.071-.016-.063-.024-.277-.087-.261-.094-.127-.047-.119-.055-.111-.055-.111-.055-.1-.063-.1-.063-.095-.063-.087-.063-.087-.071-.079-.071-.079-.071-.071-.079-.063-.079-.063-.079-.055-.087-.055-.087-.047-.087-.047-.094-.039-.094-.04-.094-.032-.1-.024-.1-.024-.11-.016-.11-.016-.11-.016-.11-.008-.118v-.126l.008-.142.008-.134.016-.134.016-.134.032-.126.032-.126.039-.126.048-.118.047-.11.063-.11.063-.11.071-.1.071-.1.087-.094.087-.094.095-.094.095-.087.1-.079.111-.071.111-.071.111-.063.119-.063.127-.047.126-.047.127-.047.134-.031.142-.031.142-.024.142-.024.15-.008.158-.008.15-.008.126.008h.127l.119.016.119.008.111.016.111.024.1.024.1.031.1.031.1.039.1.039.095.055.095.047.1.055.095.063.087.071v-.346h1.708V247.7h-2.167l-.016-.094-.024-.087-.024-.087-.024-.071-.032-.071-.04-.055-.039-.055-.04-.047-.047-.039-.047-.031-.063-.031-.055-.024-.071-.024-.071-.008-.079-.008-.079-.008-.087.008-.079.008-.079.008-.071.024-.071.024-.063.031-.063.031-.055.039-.048.047-.047.047-.032.047-.032.055-.024.055-.016.055-.008.063-.008.071.008.079.008.079.016.071.032.071.032.063.04.063.047.055.063.047.071.047.087.047.111.055.142.047.15.055.182.055.2.055.222.055.364.1.34.11.158.055.15.055.142.063.134.055.127.063.119.063.119.063.1.063.1.071.087.063.087.071.071.071.071.071.063.079.063.079.055.087.055.086.04.094.048.094.04.1.032.1.032.1.024.11.016.118.016.118.016.118.008.126v.126l-.008.149-.008.142-.016.142-.024.134-.024.134-.04.134-.039.126-.055.118-.056.126-.055.11-.071.118-.071.1-.087.11-.087.1-.095.094-.095.094-.111.094-.111.079-.111.079-.119.071-.126.071-.119.063-.134.055-.134.047-.134.039-.142.039-.142.031-.15.031-.15.016-.158.016-.158.008h-.3l-.127-.008-.126-.008-.127-.016-.119-.024-.119-.031-.119-.024-.111-.039-.111-.039-.1-.047-.111-.047-.1-.063-.1-.055-.095-.071-.1-.071-.095-.079v.417h-1.8v-2.51Z" transform="translate(-329.639 -243.012)" fill="#0439a1" fill-rule="evenodd"/>
          <path id="i-2" data-name="i" d="M360.751,237.565V235.6h2.309v1.96Zm0,6.445v-3.856h-1v-2.14h3.306v6H364.1v2.156h-4.373V244.01Z" transform="translate(-312.137 -235.605)" fill="#0439a1" fill-rule="evenodd"/>
          <path id="n" d="M315.73,251.656V247.8h-1v-2.14h3.2v1.078l.1-.149.111-.134.119-.134.119-.118.127-.11.135-.1.134-.087.142-.079.15-.071.158-.063.158-.055.166-.039.174-.031.182-.024.19-.016.19-.008.174.008.158.008.158.016.158.024.142.024.15.039.134.039.134.047.126.055.127.063.118.063.111.071.111.079.1.087.1.094.095.094.087.1.087.11.071.118.079.118.063.126.063.134.047.134.055.142.039.149.04.15.032.157.024.165.024.165.008.173.016.181v3.2h1.044v2.156h-3.417v-4.486l-.008-.22-.016-.2-.024-.189-.032-.173-.04-.15-.055-.142-.024-.063-.032-.055-.032-.055-.039-.047-.04-.047-.039-.047-.048-.039-.047-.039-.048-.031-.055-.031-.055-.024-.063-.031-.126-.039-.142-.031-.158-.016-.166-.008-.158.008-.15.024-.071.016-.071.016-.071.024-.063.031-.063.031-.063.031-.063.031-.055.047-.055.039-.055.047-.055.055-.047.055-.047.055-.04.063-.047.063-.032.063-.071.142-.055.15-.039.157-.032.165-.016.181-.008.189v2.329h.941v2.156h-4.279v-2.156Z" transform="translate(-277.397 -243.252)" fill="#0439a1" fill-rule="evenodd"/>
          <path id="h-3" data-name="h" d="M270.21,244.01v-6.264h-1V235.6h3.3v3.368l.1-.134.111-.126.111-.118.119-.1.126-.1.127-.087.134-.086.142-.071.142-.063.15-.055.15-.047.158-.039.166-.031.174-.016.174-.016.182-.008.166.008.166.008.15.016.158.024.142.024.142.039.142.039.135.047.126.055.119.055.119.071.119.071.111.079.1.087.095.087.095.1.087.1.087.11.079.11.071.118.063.126.063.134.047.134.055.142.039.149.039.15.032.165.024.157.016.173.016.173.008.181.008.189v3.014h1.036v2.156h-3.416V241.46l-.016-.2-.024-.189-.032-.173-.04-.15-.055-.142-.024-.063-.032-.055-.039-.055-.032-.047-.039-.047-.04-.047-.047-.039-.047-.039-.048-.031-.055-.031-.056-.024-.063-.031-.127-.039-.142-.031-.158-.016-.166-.008-.158.008-.15.024-.079.016-.063.016-.071.024-.071.031-.063.031-.063.031-.055.031-.055.047-.063.039-.047.047-.055.055-.047.055-.047.055-.047.063-.04.063-.04.063-.063.142-.055.15-.047.157-.024.165-.024.181v2.518h.933v2.156h-4.279V244.01Z" transform="translate(-242.285 -235.605)" fill="#0439a1" fill-rule="evenodd"/>
          <path id="c-2" data-name="c" d="M238.522,250.6l-.055.181-.055.181-.063.173-.071.173-.071.157-.079.165-.087.149-.095.15-.095.142-.1.142-.111.134-.111.126-.126.118-.119.118-.134.118-.134.1-.142.1-.142.094-.15.087-.15.087-.158.071-.158.071-.166.063-.166.055-.166.047-.174.047-.182.031-.182.031-.182.024-.19.016-.2.008-.19.008-.237-.008-.229-.016-.221-.024-.214-.031-.213-.047-.206-.055-.206-.063-.2-.071-.19-.079-.19-.094-.182-.1-.174-.11-.174-.118-.166-.126-.166-.142-.158-.15-.15-.157-.142-.157-.126-.165-.127-.173-.111-.173-.1-.181-.095-.181-.079-.189-.079-.2-.063-.2-.055-.2-.039-.2-.04-.213-.024-.212-.016-.22v-.441l.016-.22.024-.212.04-.213.039-.2.055-.2.063-.2.071-.189.079-.189.095-.181.1-.181.111-.173.126-.173.135-.173.142-.165.15-.157.15-.15.15-.134.158-.126.166-.118.166-.118.174-.094.174-.094.182-.086.182-.071.182-.063.19-.055.2-.047.19-.031.2-.024.2-.016.205-.008.158.008.166.008.158.016.15.031.15.031.15.039.15.047.142.055.134.063.142.063.126.079.135.087.126.094.119.094.126.11.111.11v-.724h1.851v3h-2.207l-.063-.118-.071-.1-.071-.1-.079-.087-.087-.087-.087-.079-.095-.071-.095-.063-.1-.063-.1-.047-.111-.039-.119-.031-.119-.031-.119-.016-.127-.016h-.237l-.1.008-.095.008-.095.016-.095.024-.095.024-.095.031-.087.031-.087.039-.079.047-.087.047-.079.055-.079.055-.071.063-.071.063-.079.071-.063.071-.063.079-.063.079-.055.079-.047.086-.047.079-.04.094-.039.086-.032.087-.032.094-.024.095-.016.1-.016.094-.016.1-.008.1v.212l.008.11.016.1.008.094.024.1.024.094.024.095.04.094.032.086.04.087.047.087.047.079.055.079.055.079.063.079.071.071.063.071.079.063.071.063.079.055.071.047.079.047.087.047.079.039.087.031.087.031.095.024.087.024.095.016.1.008.095.008h.222l.126-.016.119-.016.119-.024.111-.039.111-.039.1-.047.1-.055.1-.063.087-.063.087-.079.079-.079.079-.087.071-.095.063-.1.055-.1Z" transform="translate(-212.028 -243.012)" fill="#0439a1" fill-rule="evenodd"/>
          <path id="e-3" data-name="e" d="M197.817,251.1l-.071.15-.071.15-.079.142-.079.142-.087.142-.087.126-.095.126-.1.126-.1.118-.1.118-.111.1-.118.11-.119.1-.119.094-.127.094-.134.086-.135.087-.134.079-.142.071-.142.063-.142.063-.15.055-.142.055-.158.047-.15.039-.158.032-.158.031-.158.024-.166.024-.166.008-.166.008-.166.008-.237-.008-.229-.016-.222-.024-.221-.032-.214-.047-.206-.047-.2-.063-.2-.071-.19-.079-.182-.094-.182-.1-.174-.11-.174-.118-.174-.134-.158-.142-.166-.15-.15-.157-.134-.158-.135-.165-.118-.173-.119-.173-.1-.181-.095-.181-.079-.189-.079-.2-.063-.2-.056-.2-.039-.2-.04-.212-.024-.212-.016-.22v-.441l.016-.22.032-.212.032-.213.047-.2.055-.2.063-.2.071-.2.087-.189.095-.189.1-.181.111-.173.126-.173.127-.157.142-.165.142-.15.158-.15.166-.134.166-.126.182-.126.174-.11.19-.1.19-.094.206-.086.2-.071.206-.071.206-.055.214-.039.214-.039.214-.024.221-.016.222-.008.277.008.277.024.134.024.127.016.134.031.134.024.126.032.127.039.134.039.119.047.127.047.126.055.119.055.127.063.119.063.111.071.119.071.111.071.111.079.1.079.1.079.095.086.1.086.095.095.087.094.087.1.087.1.087.1.079.11.071.11.087.126.079.134.079.134.071.142.055.134.063.149.047.142.048.15.04.15.04.15.023.157.024.158.024.165.008.165.008.165.008.173v.1l-.008.055v.157l-.008.055v.063l-.008.055-.008.055-.008.063v.063l-.008.063-.008.063-.008.063-.008.063H192.02l.04.134.055.126.055.118.079.11.079.11.095.094.1.094.118.087.127.079.126.063.134.063.134.047.142.032.15.024.158.016.158.008h.087l.087-.008.079-.008.079-.016.087-.016.079-.016.071-.024.079-.031.071-.024.079-.039.071-.032.071-.047.071-.047.071-.047.071-.055L195,251.1Zm-5.86-2.479h3.654l-.048-.165-.063-.15-.063-.142-.079-.134-.087-.126-.095-.11-.1-.1-.111-.094-.126-.086-.127-.071-.134-.063-.15-.047-.15-.039-.158-.024-.166-.016-.174-.008-.166.008-.15.016-.15.024-.15.039-.134.055-.134.063-.127.071-.126.087-.119.094-.1.1-.1.11-.087.126-.079.134-.071.142-.063.15-.055.158Z" transform="translate(-180.758 -242.959)" fill="#0439a1" fill-rule="evenodd"/>
          <path id="T" d="M157.1,243.978h.989v2.188H153.5v-2.188h.989v-6.2H153.5v1.44h-1.906V235.6H160v3.612h-1.914v-1.44H157.1v6.2Z" transform="translate(-151.595 -235.605)" fill="#0439a1" fill-rule="evenodd"/>
        </g>
      </g>
      <path id="Zahnrad" d="M616.512,247.88l-.015-.307-.024-.3-2.634-.441-.039-.244-.055-.252-.055-.244-.064-.244-.071-.236-.071-.244-.079-.236-.087-.236,2.056-1.692-.127-.275-.134-.268-.142-.267-.15-.268-.158-.26-.158-.252-.166-.252-.174-.252-2.5.929-.166-.2-.166-.189-.174-.181-.174-.181-.182-.173-.182-.173-.19-.165-.2-.165.933-2.487-.245-.173-.261-.165-.253-.158-.261-.157-.269-.15-.269-.142-.269-.134-.277-.126-1.7,2.046-.237-.087-.237-.079-.245-.071-.237-.071-.245-.063-.245-.055-.245-.047-.253-.047-.443-2.621-.3-.024-.308-.016-.3-.016h-.609l-.3.016-.308.016-.3.024-.443,2.621-.245.047-.254.047-.245.055-.245.063-.238.071-.245.071-.237.079-.237.087-1.7-2.046-.276.126-.269.134-.269.142-.269.15-.261.157-.253.158-.253.165-.254.173.933,2.487-.2.165-.19.165-.182.173-.182.173-.174.181-.174.181-.166.189-.158.2-2.507-.929-.174.252-.166.252-.158.252-.158.26-.15.268-.142.267-.135.268-.126.275L594.2,244.9l-.087.236-.079.236-.071.244-.071.236-.063.244-.055.244-.047.252-.048.244-2.634.441-.023.3-.016.307-.008.3-.008.307.008.3.008.3.016.307.023.3,2.634.441.048.252.047.244.055.244.063.244.071.244.071.236.079.236.087.236-2.056,1.692.126.276.135.268.142.267.15.268.158.26.158.252.166.26.174.244,2.507-.928.158.2.166.188.174.181.174.181.182.173.182.173.19.165.2.165-.933,2.486.254.173.253.165.253.158.261.157.269.15.269.142.269.134.276.126,1.7-2.046.237.087.237.079.245.079.238.063.245.063.245.055.254.055.245.039.443,2.62.3.024.308.016.3.016h.609l.3-.016.308-.016.3-.024.443-2.62.253-.039.245-.055.245-.055.245-.063.237-.063.245-.079.237-.079.237-.087,1.7,2.046.277-.126.269-.134.269-.142.269-.15.261-.157.253-.158.261-.165.245-.173-.933-2.486.2-.165.19-.165.182-.173.182-.173.174-.181.174-.181.166-.188.166-.2,2.5.928.174-.244.166-.26.158-.252.158-.26.15-.268.142-.267.134-.268.127-.276-2.056-1.692.087-.236.079-.236.071-.236.071-.244.064-.244.055-.244.055-.244.039-.252,2.634-.441.024-.3.015-.307.016-.3v-.606Zm-4.61.944-.04.511-.071.519-.1.5-.134.5-.166.5-.2.488-.237.472-.261.456-.3.449-.332.425-.364.409-.4.386-.435.362-.458.346-.5.315-1.471,2.44-.909-1.5-.214.039-.221.039-.222.039-.222.024-.221.024-.221.016-.221.008h-.451l-.222-.008-.222-.016-.222-.024-.221-.024-.221-.039-.222-.039-.214-.039-.91,1.5-1.471-2.44-.49-.315-.466-.346-.435-.362-.4-.386-.364-.409-.332-.425-.3-.449-.261-.456-.237-.472-.2-.488-.166-.5-.134-.5-.1-.5-.071-.519-.04-.511v-.52l.024-.519.063-.511.087-.511.126-.5.158-.5.19-.488.221-.472.253-.464.285-.449.324-.425.348-.417.379-.386.419-.37.443-.346.482-.323.506-.291v-1.8h7.663v1.8l.514.291.475.323.443.346.419.37.38.386.348.417.324.425.284.449.253.464.221.472.19.488.158.5.127.5.087.511.063.511.032.519Z" transform="translate(-473.528 -222.738)" fill="#0439a1"/>
      <path id="W-2" data-name="W" d="M622.842,300.438l2.593,4.3,3.4-5.633h.844v-1.4h-2.823v1.4h.33l-1.749,2.9-2.6-4.3-2.593,4.3-1.741-2.9h.33v-1.4H616v1.4h.852l3.4,5.633,2.593-4.3Z" transform="translate(-492.607 -270.543)" fill="#0439a1" fill-rule="evenodd"/>
      <path id="H-4" data-name="H" d="M630.354,265.963v1.412h.361v5.633l-.361-.008v1.412h2.363V273h-.353v-1.4h3.3V273h-.352v1.412h2.355V273h-.353v-5.633l.353.008v-1.412H635.31v1.412h.352v2.809h-3.3v-2.809h.353v-1.412Z" transform="translate(-503.778 -245.846)" fill="#0439a1" fill-rule="evenodd"/>
      <path id="T-2" data-name="T" d="M638.424,253.779H631.7v1.763h1.649v-.359h.882v3.29h-.353v1.412h2.355v-1.412h-.353v-3.282h.89v.351h1.649v-1.763Z" transform="translate(-504.829 -236.364)" fill="#0439a1" fill-rule="evenodd"/>
    </g>
  </g>
</svg>
