<svg xmlns="http://www.w3.org/2000/svg" width="186" height="37.57" viewBox="0 0 186 37.57">
    <g id="Gruppe_7640" data-name="Gruppe 7640" transform="translate(-71.071 -564.5)">
        <g id="Technisches_Hilf" data-name="Technisches Hilf" transform="translate(71.071 564.5)">
            <g id="Hilfswerk" transform="translate(35.047 21.329)">
                <path id="k" d="M531.239,312.112v-9.259h-1.471v-3.16h4.856v9.085l2.5-2.567h-1.366V303.26h6.164v3.148h-1.307l-2.463,2.579,2.428,3.125h1.716v3.171h-3.409l-4.261-5.39v5.39H529.7v-3.171Z" transform="translate(-437.13 -299.391)" fill="#0439a1" fill-rule="evenodd" />
                <path id="r" d="M504.351,318.725v-5.7h-1.377v-3.148H507.6v1.743l.129-.244.14-.209.14-.21.152-.186.175-.162.164-.163.187-.139.2-.128.2-.1.21-.1.234-.081.233-.07.257-.058.269-.035.28-.035.292-.011v3.334l-.2.011-.2.023-.187.024-.187.035-.175.034-.163.035-.164.047-.152.046-.14.058-.14.058-.128.07-.129.07-.117.081-.1.082-.105.081-.094.093-.093.1-.082.1-.07.1-.07.128-.07.128-.058.127-.059.14-.046.151-.035.163-.047.162-.023.163-.023.174-.023.186-.012.2-.012.2v2.637h1.389V321.9h-6.316v-3.171Z" transform="translate(-419.324 -306.005)" fill="#0439a1" fill-rule="evenodd" />
                <path id="e" d="M475.718,318.044l-.105.233-.1.22-.117.21-.129.209-.128.2-.128.2-.14.186-.14.174-.152.174-.164.174-.163.163-.164.151-.175.151-.187.151-.187.128-.2.139-.2.117-.2.116-.21.1-.2.1-.222.093-.21.081-.222.07-.221.07-.234.058-.222.058-.233.047-.245.034-.234.024-.245.023-.245.012h-.257l-.35-.012-.339-.012-.327-.035-.315-.058-.316-.058-.3-.081-.3-.093-.28-.1-.28-.116-.28-.128-.269-.151-.257-.163-.257-.186-.245-.186-.245-.209-.233-.232-.222-.221-.21-.244-.2-.233-.175-.255-.163-.256-.152-.267-.14-.279-.129-.279-.105-.279-.093-.3-.082-.291-.07-.3-.047-.314-.035-.325-.023-.314-.012-.337.012-.326.023-.313.035-.326.047-.3.07-.3.082-.3.093-.3.117-.279.129-.29.129-.267.163-.267.163-.267.175-.244.187-.244.21-.233.222-.232.233-.209.234-.21.257-.186.257-.174.269-.163.28-.151.28-.139.292-.128.3-.116.3-.093.3-.082.315-.07.3-.047.327-.046.315-.012.327-.012.408.012.409.035.2.023.2.035.2.035.186.046.2.047.187.058.187.058.187.07.187.07.176.081.186.081.175.082.175.1.175.093.163.1.164.1.163.117.151.116.152.128.152.128.14.127.14.14.14.139.129.14.128.151.116.151.117.163.117.163.129.2.117.2.105.2.1.2.094.209.082.209.082.221.07.209.059.221.047.233.047.232.035.232.023.232.024.244.012.256v.558l-.012.081v.163l-.012.081-.012.081v.093l-.012.082-.011.093-.012.093-.012.093-.011.093-.012.093h-8.92l.059.2.081.186.094.175.105.174.129.151.14.151.152.14.163.127.187.1.187.1.2.081.21.07.21.058.222.035.222.023H470l.129-.023.116-.012.117-.023.117-.035.116-.035.105-.035.117-.046.1-.047.105-.058.1-.058.105-.07.1-.069.105-.082.1-.093Zm-8.651-3.659h5.382l-.07-.232-.082-.233-.1-.209-.105-.2-.128-.174-.14-.174-.151-.151-.175-.14-.175-.116-.2-.1-.2-.093-.21-.069-.222-.059-.245-.046-.245-.023-.257-.012-.233.012-.234.023-.221.046-.21.059-.21.069-.2.093-.187.1-.175.128-.175.139-.163.163-.14.163-.129.174-.117.2-.1.209-.094.221-.082.232Z" transform="translate(-393.132 -305.73)" fill="#0439a1" fill-rule="evenodd" />
                <path id="w" d="M414.6,322.284h-3.4l-2.837-8.876h-1.051V310.26h5.394v3.148h-.969l1.3,4.717,2.1-7.865h2.942l2.1,7.865,1.308-4.717h-.969V310.26H425.9v3.148h-1.051l-2.837,8.876h-3.4l-2.008-6.924-2.008,6.924Z" transform="translate(-356.055 -306.392)" fill="#0439a1" fill-rule="evenodd" />
                <path id="s" d="M376.176,317.975h3.269l.012.151.023.151.023.128.047.128.058.116.058.116.07.093.082.093.093.082.105.069.105.047.128.058.128.035.14.023.152.012.152.011.152-.011.152-.012.128-.012.117-.034.117-.035.105-.047.093-.058.094-.07.07-.069.07-.082.059-.081.047-.093.035-.1.023-.1.023-.128v-.116l-.012-.093-.012-.093-.035-.082-.047-.081-.059-.081-.07-.082-.082-.069-.093-.07-.105-.07-.117-.07-.14-.058-.14-.07-.164-.046-.163-.058-.187-.058-.2-.047-.152-.035-.152-.035-.14-.034-.129-.035-.117-.035-.117-.023-.093-.035-.105-.023-.409-.128-.385-.14-.187-.081-.175-.07-.163-.081-.164-.093-.152-.082-.152-.093-.14-.093-.128-.1-.128-.1-.117-.1-.105-.1-.105-.1-.1-.116-.094-.128-.082-.116-.082-.128-.07-.139-.07-.128-.058-.14-.047-.151-.047-.151-.047-.151-.035-.151-.023-.163-.023-.162-.012-.175-.012-.174-.012-.174.012-.21.012-.209.023-.2.035-.2.035-.186.047-.186.058-.174.07-.175.082-.174.082-.163.093-.162.105-.151.105-.151.128-.14.129-.139.14-.128.14-.128.163-.116.152-.117.163-.1.175-.093.175-.082.175-.081.187-.07.2-.058.2-.058.2-.035.21-.046.21-.023.222-.024.234-.011h.42l.175.011.175.012.175.023.163.023.163.035.152.035.152.047.152.046.152.058.14.058.14.07.14.081.14.082.14.093.14.093v-.5h2.51v3.415h-3.187l-.035-.139-.023-.14-.047-.116-.035-.116-.047-.093-.058-.093-.047-.082-.07-.069-.07-.058-.07-.047-.082-.047-.093-.034-.105-.024-.1-.023-.117-.011H380.9l-.117.011-.117.023-.105.024-.1.034-.093.047-.093.047-.082.058-.07.069-.058.07-.058.07-.047.081-.035.082-.023.093-.012.092-.012.093.012.128.012.117.035.1.035.1.047.093.058.081.082.081.082.07.1.082.128.069.175.07.2.081.233.082.257.081.292.081.327.082.549.151.49.151.233.081.222.093.21.082.2.093.187.081.187.093.164.093.152.1.152.093.128.1.129.1.1.1.105.1.094.116.093.116.082.128.082.128.07.14.059.139.058.14.047.151.047.162.035.163.035.163.023.174.012.186.012.186v.407l-.023.209-.023.209-.035.2-.035.2-.059.186-.058.186-.07.186-.082.175-.094.174-.105.163-.1.162-.129.152-.128.151-.14.151-.14.139-.163.128-.163.128-.164.116-.175.1-.175.093-.187.093-.2.081-.187.07-.21.07-.2.058-.222.046-.222.035-.222.035-.234.012-.233.023H381.3l-.2-.012-.187-.023-.175-.023-.187-.035-.175-.035-.163-.047-.164-.058-.163-.058-.164-.07-.152-.069-.152-.082-.152-.093-.152-.093-.152-.1-.14-.116v.6h-2.65v-3.694Z" transform="translate(-335.409 -305.777)" fill="#0439a1" fill-rule="evenodd" />
                <path id="f" d="M354.346,305.815H352.8v-3.148h1.541V302.4l.012-.244.023-.244.035-.221.035-.221.047-.209.047-.209.07-.186.07-.186.082-.163.082-.163.093-.162.105-.139.117-.128.117-.128.129-.116.14-.1.152-.1.163-.093.175-.081.187-.081.2-.07.21-.07.222-.058.234-.058.245-.047.257-.035.268-.023.28-.035.292-.011.3-.012h1.051v2.765h-.059l-.128-.011-.117-.012-.093-.012H359.3l-.093-.011h-.35l-.163.011-.14.024-.128.023-.117.035-.105.035-.082.058-.082.058-.07.058-.047.081-.059.082-.035.1-.035.117-.012.116-.012.128-.012.151v.069h1.7v3.148h-1.7v5.7h1.681v3.172H352.8V311.52h1.541v-5.7Z" transform="translate(-319.941 -298.799)" fill="#0439a1" fill-rule="evenodd" />
                <path id="l" d="M331.493,312.112v-9.259H330.01v-3.16H334.9v12.419h1.529v3.171h-6.456v-3.171Z" transform="translate(-304.817 -299.391)" fill="#0439a1" fill-rule="evenodd" />
                <path id="i" d="M307.142,302.586v-2.893h3.409v2.893Zm0,9.526v-5.7h-1.471v-3.148h4.88v8.852h1.529v3.172h-6.456v-3.172Z" transform="translate(-288.684 -299.391)" fill="#0439a1" fill-rule="evenodd" />
                <path id="H" d="M256.951,312.065V302.9h-1.518v-3.206h6.783V302.9H260.8v2.823h4.611V302.9h-1.448v-3.206h6.818V302.9h-1.541v9.166h1.541v3.218h-6.818v-3.218h1.448v-3.137H260.8v3.137h1.436v3.218h-6.806v-3.218Z" transform="translate(-255.434 -299.391)" fill="#0439a1" fill-rule="evenodd" />
            </g>
            <g id="Technisches" transform="translate(0)">
                <path id="s-2" data-name="s" d="M536.224,253.851h3.258l.012.163.023.139.035.139.047.128.047.116.07.1.07.1.082.081.093.081.105.07.105.058.117.046.14.035.14.035.152.012h.3l.14-.012.14-.023.117-.035.117-.035.105-.046.093-.058.094-.058.07-.07.07-.081.059-.093.046-.093.035-.1.024-.1.012-.116.012-.128-.012-.093-.023-.081-.023-.093-.047-.081-.058-.081-.07-.07-.082-.081-.094-.07-.1-.07-.129-.058-.129-.07-.152-.058-.152-.058-.175-.058-.187-.046-.187-.046-.164-.046-.14-.035-.14-.035-.129-.035-.117-.023-.117-.035-.105-.023-.093-.035-.409-.128-.385-.139-.187-.07-.175-.081-.163-.081-.164-.081-.151-.093-.152-.093-.14-.093-.128-.093-.129-.1-.117-.1-.117-.1-.105-.116-.094-.116-.093-.116-.082-.128-.082-.128-.07-.128-.07-.139-.058-.139-.058-.139-.047-.151-.035-.151-.035-.163-.035-.163-.012-.163-.023-.163-.011-.174V249l.011-.209.011-.2.023-.2.023-.2.047-.186.047-.186.058-.186.07-.174.07-.163.093-.163.093-.163.094-.151.117-.151.117-.139.14-.139.14-.139.14-.128.152-.116.163-.1.163-.1.163-.093.175-.093.187-.07.187-.07.187-.07.2-.046.21-.046.21-.035.21-.035.222-.012.222-.012.233-.012.187.012h.187l.175.023.175.012.164.023.164.035.152.035.152.046.152.046.141.058.151.058.14.081.14.07.14.081.14.093.128.1v-.511h2.521v3.415h-3.2l-.023-.139-.035-.128-.035-.128-.035-.1-.047-.1-.058-.081-.058-.081-.058-.07-.07-.058-.07-.046-.094-.046-.093-.035-.093-.035-.105-.012-.117-.012-.128-.012-.117.012-.117.012-.117.012-.105.035-.105.035-.093.046-.094.046-.082.058-.07.07-.07.07-.047.07-.046.081-.035.081-.023.081-.023.093v.1l.012.116.012.116.023.1.047.1.047.093.058.093.07.081.093.07.093.07.14.07.163.081.2.07.234.081.268.081.292.081.327.081.537.151.5.163.233.081.222.081.21.093.2.081.187.093.175.093.175.093.152.093.14.1.14.093.128.1.105.1.105.1.093.116.094.116.082.128.07.128.07.139.07.139.059.151.046.151.047.151.035.163.023.174.023.174.023.174v.186l.011.186-.011.221-.012.209-.024.209-.035.2-.047.2-.046.2-.058.186-.082.174-.082.186-.082.163-.105.174-.117.151-.117.163-.129.151-.14.139-.152.139-.152.139-.164.116-.163.116-.175.1-.187.1-.187.093-.187.081-.2.07-.2.058-.21.058-.21.046-.222.046-.222.023-.234.023-.233.012h-.444l-.187-.012-.187-.012-.187-.023-.175-.035-.175-.046-.175-.035-.163-.058-.164-.058-.152-.07-.163-.07-.152-.093-.152-.081-.141-.1-.152-.1-.14-.116v.616h-2.65v-3.706Z" transform="translate(-406.391 -241.967)" fill="#0439a1" fill-rule="evenodd" />
                <path id="e-2" data-name="e" d="M507.945,253.933l-.093.221-.117.221-.117.209-.116.209-.129.209-.128.186-.14.186-.14.186-.152.174-.164.174-.163.151-.163.163-.175.151-.187.139-.186.139-.2.128-.2.128-.2.116-.21.1-.21.093-.21.093-.21.081-.222.081-.222.07-.233.058-.222.047-.234.047-.245.035-.234.035-.245.011-.245.012-.257.012-.35-.012-.339-.023-.326-.035-.327-.047-.3-.07-.315-.07-.292-.093-.292-.1-.269-.116-.28-.139-.269-.151-.257-.163-.257-.174-.245-.2-.245-.209-.234-.221-.221-.232-.21-.233-.2-.244-.175-.256-.163-.255-.152-.267-.14-.267-.129-.279-.1-.29-.094-.291-.081-.3-.07-.3-.047-.314-.035-.314-.023-.325-.012-.325.012-.325.023-.325.035-.314.047-.314.07-.3.081-.3.094-.29.116-.291.117-.279.14-.279.152-.267.175-.255.175-.256.187-.232.21-.244.221-.221.234-.221.234-.2.256-.186.257-.186.269-.163.268-.151.292-.139.292-.128.3-.1.292-.1.315-.081.3-.058.315-.058.327-.035.315-.023.327-.012.409.012.409.035.2.035.2.023.187.047.2.035.186.047.2.058.187.058.187.069.187.07.175.081.187.081.175.093.175.093.175.1.163.1.163.1.163.116.152.116.152.116.152.128.14.128.14.14.128.139.14.151.117.151.128.151.117.163.117.163.128.186.117.2.1.2.105.209.094.2.081.22.082.209.058.221.059.221.058.221.047.232.035.233.023.244.023.244.012.244v.558l-.012.081v.081l-.011.081v.093l-.012.081v.081l-.012.093-.012.093-.012.093-.011.093-.012.093-.012.093h-8.919l.058.2.082.186.093.174.105.163.128.163.14.139.152.139.163.128.187.116.187.093.2.093.2.07.222.047.21.035.234.023.233.012h.129l.128-.012.117-.011.128-.023.117-.023.117-.023.117-.035.1-.046.117-.035.1-.058.1-.047.105-.07.1-.07.105-.07.105-.081.1-.081Zm-8.639-3.659h5.382l-.07-.244-.082-.221-.105-.209-.105-.2-.128-.186-.14-.163-.164-.151-.163-.139-.175-.128-.2-.1-.2-.093-.21-.07-.234-.058-.233-.035-.245-.023-.257-.012-.233.012-.234.023-.222.035-.21.058-.21.081-.2.093-.187.1-.187.128-.163.139-.163.151-.14.163-.14.186-.117.2-.1.209-.082.221-.082.233Z" transform="translate(-379.442 -241.921)" fill="#0439a1" fill-rule="evenodd" />
                <path id="h-2" data-name="h" d="M454.472,248.012v-9.247H453V235.6h4.868v4.972l.152-.2.163-.186.163-.174.175-.151.187-.151.187-.128.2-.128.21-.1.21-.093.222-.081.222-.07.245-.058.233-.046.257-.023.257-.023.268-.012.245.012.245.012.233.023.222.035.21.035.21.058.21.058.2.07.187.081.187.081.175.1.163.1.164.116.152.128.14.128.14.151.128.151.128.163.117.162.105.174.093.186.093.2.07.2.082.209.058.221.058.221.047.244.035.232.023.256.023.255.012.267.012.279v4.449h1.541V251.2h-5.055v-6.947l-.023-.3-.035-.279-.047-.256-.058-.221-.082-.209-.035-.093-.047-.081-.058-.081-.047-.07-.058-.07-.058-.07-.07-.058-.07-.058-.07-.046-.081-.046-.082-.035-.093-.046-.187-.058-.21-.046-.233-.023-.245-.012-.233.012-.222.035-.1.023-.105.023-.105.035-.093.046-.105.046-.082.046-.093.046-.082.07-.082.058-.082.07-.082.081-.07.081-.07.081-.07.093-.058.093-.058.093-.093.209-.082.221-.058.232-.047.244-.035.267v3.717h1.389V251.2h-6.316v-3.183Z" transform="translate(-351.233 -235.605)" fill="#0439a1" fill-rule="evenodd" />
                <path id="c" d="M427.007,253.166l-.081.267-.082.267-.094.256-.105.256-.1.232-.129.244-.117.221-.14.221-.14.209-.152.209-.163.2-.163.186-.187.174-.175.174-.2.174-.2.151-.21.151-.21.139-.222.128-.222.128-.233.1-.234.1-.245.093-.245.081-.245.07-.257.07-.268.046-.269.046-.269.035-.28.023-.292.012-.28.012-.35-.012-.339-.023-.327-.035-.315-.046-.315-.07-.3-.081-.3-.093-.292-.1-.28-.116-.28-.139-.269-.151-.268-.163-.245-.174-.245-.186-.245-.209-.233-.221-.222-.232-.21-.232-.187-.244-.187-.255-.163-.256-.152-.267-.14-.267-.117-.279-.117-.29-.093-.29-.082-.3-.059-.3-.058-.314-.035-.314-.023-.325V251.2l.023-.325.035-.314.058-.314.059-.3.082-.291.093-.29.105-.279.117-.279.14-.267.152-.267.163-.256.187-.256.2-.255.21-.244.222-.232.222-.221.222-.2.233-.186.245-.174.245-.174.245-.139.269-.139.268-.128.269-.1.269-.093.28-.081.292-.07.28-.046.292-.035.292-.023.3-.012.233.012.245.012.233.023.222.046.222.046.222.058.222.07.21.081.2.093.21.093.187.116.2.128.187.139.175.139.175.163.175.163v-1.069h2.732v4.426H423.2l-.094-.174-.105-.151-.1-.151-.117-.128-.128-.128-.129-.116-.14-.1-.14-.093-.152-.093-.164-.07-.152-.058-.175-.046-.175-.046-.175-.023-.2-.023h-.339l-.152.012-.14.012-.14.023-.14.035-.14.035-.14.046-.128.046-.129.058-.117.07-.129.07-.117.081-.117.081-.105.093-.117.093-.105.1-.094.1-.093.116-.093.116-.082.116-.07.128-.07.116-.058.139-.058.128-.047.128-.047.139-.035.14-.023.151-.023.139-.023.151-.012.151v.314l.012.163.012.151.023.139.035.151.035.139.035.139.046.139.058.128.058.128.07.128.07.116.081.116.082.116.094.116.105.1.093.1.105.093.117.093.105.081.117.07.117.07.129.07.117.058.128.046.129.046.14.035.129.035.14.023.14.012.152.012h.327l.187-.023.175-.023.175-.035.163-.058.163-.058.152-.07.152-.081.14-.093.14-.093.129-.116.117-.116.117-.128.105-.139.094-.151.081-.151Z" transform="translate(-325.66 -241.967)" fill="#0439a1" fill-rule="evenodd" />
                <path id="s-3" data-name="s" d="M382.437,253.851h3.257l.023.163.012.139.035.139.047.128.047.116.07.1.07.1.082.081.093.081.105.07.1.058.128.046.128.035.14.035.152.012h.3l.14-.012.14-.023.117-.035.117-.035.105-.046.094-.058.093-.058.07-.07.07-.081.058-.093.047-.093.035-.1.023-.1.012-.116.012-.128-.012-.093-.012-.081-.035-.093-.047-.081-.059-.081-.07-.07-.082-.081-.093-.07-.105-.07-.128-.058-.129-.07-.14-.058-.164-.058-.175-.058-.175-.046-.2-.046-.163-.046-.14-.035-.14-.035-.129-.035-.117-.023-.117-.035-.105-.023-.093-.035-.409-.128-.385-.139-.187-.07-.175-.081-.164-.081-.163-.081-.152-.093-.152-.093-.14-.093-.128-.093-.128-.1-.117-.1-.117-.1-.105-.116-.093-.116-.093-.116-.082-.128-.082-.128-.07-.128-.07-.139-.058-.139-.059-.139-.047-.151-.035-.151-.035-.163-.023-.163-.023-.163-.023-.163-.012-.174V249l.012-.209.012-.2.023-.2.023-.2.047-.186.047-.186.058-.186.07-.174.07-.163.093-.163.093-.163.1-.151.105-.151.128-.139.128-.139.14-.139.14-.128.152-.116.163-.1.164-.1.163-.093.175-.093.187-.07.187-.07.187-.07.2-.046.21-.046.21-.035.21-.035.222-.012.233-.012.222-.012.187.012h.187l.175.023.175.012.164.023.163.035.152.035.152.046.152.046.14.058.152.058.14.081.14.07.14.081.14.093.128.1v-.511H391.6v3.415h-3.2l-.023-.139-.035-.128-.035-.128-.035-.1-.047-.1-.058-.081-.058-.081-.059-.07-.07-.058-.07-.046-.094-.046-.081-.035-.105-.035-.1-.012-.117-.012-.117-.012-.128.012-.117.012-.117.012-.105.035-.105.035-.093.046-.094.046-.082.058-.07.07-.07.07-.047.07-.047.081-.035.081-.023.081-.012.093-.012.1.012.116.012.116.023.1.047.1.047.093.058.093.07.081.093.07.105.07.128.07.163.081.21.07.222.081.268.081.292.081.327.081.537.151.5.163.234.081.222.081.21.093.2.081.187.093.175.093.175.093.152.093.152.1.128.093.129.1.105.1.105.1.093.116.094.116.082.128.082.128.059.139.07.139.058.151.047.151.047.151.035.163.023.174.023.174.023.174.012.186v.186l-.012.221-.012.209-.023.209-.035.2-.035.2-.059.2-.058.186-.082.174-.082.186-.082.163-.105.174-.1.151-.128.163-.128.151-.14.139-.14.139-.163.139-.164.116-.163.116-.175.1-.187.1-.175.093-.2.081-.2.07-.2.058-.21.058-.21.046-.222.046-.222.023-.234.023-.233.012h-.444l-.187-.012-.187-.012-.187-.023-.175-.035-.175-.046-.175-.035-.163-.058-.164-.058-.152-.07-.163-.07-.152-.093-.152-.081-.14-.1-.152-.1-.14-.116v.616h-2.65v-3.706Z" transform="translate(-304.509 -241.967)" fill="#0439a1" fill-rule="evenodd" />
                <path id="i-2" data-name="i" d="M361.24,238.5V235.6h3.409V238.5Zm0,9.514V242.32H359.77v-3.16h4.88v8.852h1.529V251.2h-6.456v-3.183Z" transform="translate(-289.477 -235.605)" fill="#0439a1" fill-rule="evenodd" />
                <path id="n" d="M316.227,254.579v-5.692h-1.483v-3.16h4.717v1.591l.152-.221.163-.2.175-.2.175-.174.187-.162.2-.151.2-.128.21-.116.222-.1.234-.093.234-.081.245-.058.257-.046.268-.035.28-.023.28-.012.257.012.234.012.233.023.234.035.21.035.222.058.2.058.2.07.187.081.187.093.175.093.164.1.163.116.152.128.152.139.14.139.129.151.128.163.105.174.117.174.093.186.094.2.07.2.082.209.058.221.059.221.047.232.035.244.035.244.012.255.023.267v4.728h1.541v3.183h-5.044v-6.622l-.012-.325-.023-.3-.035-.279-.047-.256-.058-.221-.082-.209-.035-.093-.047-.081-.047-.081-.058-.07-.059-.07-.058-.07-.07-.058-.07-.058-.07-.046-.082-.046-.082-.035-.093-.046-.187-.058-.21-.046-.234-.023-.245-.012-.234.012-.222.035-.105.023-.105.023-.1.035-.094.046-.093.046-.093.046-.094.046-.082.07-.082.058-.082.07-.082.081-.07.081-.07.081-.059.093-.07.093-.047.093-.105.209-.082.221-.058.232-.047.244-.024.267-.012.279v3.439H321v3.183h-6.316v-3.183Z" transform="translate(-259.641 -242.172)" fill="#0439a1" fill-rule="evenodd" />
                <path id="h-3" data-name="h" d="M270.707,248.012v-9.247h-1.471V235.6H274.1v4.972l.152-.2.163-.186.164-.174.175-.151.187-.151.187-.128.2-.128.21-.1.21-.093.222-.081.222-.07.234-.058.245-.046.257-.023.257-.023.269-.012.245.012.245.012.222.023.234.035.21.035.21.058.21.058.2.07.187.081.175.081.175.1.175.1.163.116.152.128.14.128.14.151.128.151.128.163.117.162.1.174.093.186.093.2.07.2.082.209.058.221.058.221.047.244.035.232.023.256.023.255.012.267.012.279v4.449h1.529V251.2h-5.043v-6.947l-.023-.3-.035-.279-.047-.256-.058-.221-.082-.209-.035-.093-.047-.081-.058-.081-.047-.07-.058-.07-.059-.07-.07-.058-.07-.058-.07-.046-.082-.046-.082-.035-.093-.046-.187-.058-.21-.046-.233-.023-.245-.012-.234.012-.222.035-.117.023-.093.023-.105.035-.1.046-.093.046-.093.046-.082.046-.082.07-.093.058-.07.07-.082.081-.07.081-.07.081-.07.093-.059.093-.058.093-.093.209-.082.221-.07.232-.035.244-.035.267v3.717h1.378V251.2h-6.316v-3.183Z" transform="translate(-229.484 -235.605)" fill="#0439a1" fill-rule="evenodd" />
                <path id="c-2" data-name="c" d="M242.608,253.166l-.082.267-.082.267-.093.256-.105.256-.105.232-.117.244-.128.221-.14.221-.14.209-.152.209-.163.2-.163.186-.187.174-.175.174-.2.174-.2.151-.21.151-.21.139-.222.128-.222.128-.233.1-.234.1-.245.093-.245.081-.245.07-.257.07-.268.046-.268.046-.269.035-.28.023-.292.012-.28.012-.35-.012-.338-.023-.327-.035-.315-.046-.315-.07-.3-.081-.3-.093-.292-.1-.28-.116-.28-.139-.269-.151-.257-.163-.257-.174-.245-.186-.245-.209-.234-.221-.222-.232-.21-.232-.187-.244-.187-.255-.163-.256-.152-.267-.14-.267-.117-.279-.117-.29-.093-.29-.082-.3-.058-.3-.059-.314-.035-.314-.023-.325V251.2l.023-.325.035-.314.059-.314.058-.3.082-.291.093-.29.105-.279.117-.279.14-.267.152-.267.164-.256.187-.256.2-.255.21-.244.222-.232.222-.221.222-.2.234-.186.245-.174.245-.174.257-.139.257-.139.268-.128.269-.1.268-.093.28-.081.292-.07.28-.046.292-.035.292-.023.3-.012.234.012.245.012.234.023.222.046.222.046.222.058.222.07.21.081.2.093.21.093.187.116.2.128.187.139.175.139.187.163.164.163v-1.069h2.732v4.426H238.8l-.093-.174-.105-.151-.105-.151-.117-.128-.129-.128-.128-.116-.14-.1-.14-.093-.152-.093-.152-.07-.163-.058-.175-.046-.175-.046-.175-.023-.187-.023h-.35l-.152.012-.14.012-.14.023-.14.035-.14.035-.14.046-.128.046-.128.058-.117.07-.128.07-.117.081-.117.081-.1.093-.105.093-.117.1-.093.1-.093.116-.093.116-.082.116-.07.128-.07.116-.058.139-.058.128-.047.128-.047.139-.035.14-.023.151-.023.139-.023.151-.012.151v.314l.012.163.023.151.012.139.035.151.035.139.035.139.059.139.047.128.058.128.07.128.07.116.082.116.082.116.093.116.1.1.093.1.117.093.1.093.117.081.105.07.117.07.129.07.117.058.128.046.129.046.14.035.129.035.14.023.152.012.14.012h.327l.187-.023.175-.023.175-.035.164-.058.163-.058.152-.07.152-.081.152-.093.129-.093.128-.116.117-.116.117-.128.1-.139.093-.151.082-.151Z" transform="translate(-203.498 -241.967)" fill="#0439a1" fill-rule="evenodd" />
                <path id="e-3" data-name="e" d="M201.823,253.933l-.1.221-.105.221-.116.209-.117.209-.129.209-.128.186-.14.186-.152.186-.152.174-.152.174-.164.151-.175.163-.175.151-.175.139-.187.139-.2.128-.2.128-.2.116-.21.1-.21.093-.21.093-.222.081-.21.081-.234.07-.222.058-.234.047-.234.047-.234.035-.245.035-.245.011-.245.012-.245.012-.35-.012-.339-.023-.327-.035-.327-.047-.315-.07-.3-.07-.292-.093-.292-.1-.28-.116-.269-.139-.268-.151-.257-.163-.257-.174-.257-.2-.234-.209-.245-.221-.222-.232-.2-.233-.2-.244-.175-.256-.175-.255-.152-.267-.14-.267-.117-.279-.116-.29-.094-.291-.082-.3-.058-.3-.058-.314-.035-.314-.023-.325v-.65l.023-.325.047-.314.047-.314.07-.3.082-.3.093-.29.1-.291.129-.279.14-.279.152-.267.164-.255.187-.256.187-.232.21-.244.21-.221.234-.221.245-.2.245-.186.269-.186.257-.163.28-.151.28-.139.3-.128.292-.1.3-.1.3-.081.315-.058.315-.058.315-.035.327-.023.327-.012.408.012.409.035.2.035.187.023.2.047.2.035.187.047.187.058.2.058.175.069.187.07.187.081.175.081.187.093.175.093.163.1.175.1.163.1.163.116.152.116.152.116.14.128.152.128.14.14.129.139.128.151.129.151.128.151.117.163.1.163.129.186.117.2.116.2.105.209.082.2.094.22.07.209.07.221.058.221.058.221.035.232.035.233.035.244.011.244.012.244.012.256v.151l-.012.081v.232l-.012.081v.093l-.011.081-.012.081-.012.093v.093l-.012.093-.011.093-.012.093-.012.093h-8.919l.058.2.082.186.082.174.117.163.117.163.14.139.152.139.175.128.187.116.187.093.2.093.2.07.21.047.222.035.234.023.234.012h.128l.129-.012.117-.011.116-.023.129-.023.117-.023.1-.035.117-.046.105-.035.116-.058.1-.047.105-.07.105-.07.1-.07.1-.081.105-.081Zm-8.651-3.659h5.394l-.07-.244-.094-.221-.093-.209-.117-.2-.129-.186-.14-.163-.152-.151-.164-.139-.187-.128-.187-.1-.2-.093-.222-.07-.222-.058-.234-.035-.245-.023-.257-.012-.245.012-.222.023-.222.035-.222.058-.2.081-.2.093-.187.1-.187.128-.175.139-.152.151-.152.163-.129.186-.117.2-.1.209-.093.221-.082.233Z" transform="translate(-176.641 -241.921)" fill="#0439a1" fill-rule="evenodd" />
                <path id="T" d="M159.72,247.966h1.459V251.2h-6.771v-3.229h1.459v-9.154h-1.459v2.126h-2.814V235.6H164v5.332H161.18v-2.126H159.72v9.154Z" transform="translate(-151.595 -235.605)" fill="#0439a1" fill-rule="evenodd" />
            </g>
        </g>
        <g id="Zahnrad" transform="translate(219.373 564.558)">
            <path id="Zahnrad-2" data-name="Zahnrad" d="M628.665,253.644l-.023-.453-.035-.441-3.888-.65-.058-.36-.082-.372-.081-.36-.094-.36-.105-.349-.105-.36-.117-.348-.128-.349,3.036-2.5-.187-.406-.2-.4-.21-.395-.222-.395-.234-.383-.233-.372-.245-.372-.257-.372-3.689,1.371-.245-.29-.245-.279-.257-.267-.257-.267-.268-.256-.269-.255-.28-.244-.292-.244,1.378-3.671-.362-.256-.385-.244-.374-.233-.385-.232-.4-.221-.4-.209-.4-.2-.409-.186-2.51,3.02-.35-.128-.35-.116-.362-.1-.35-.1-.362-.093-.362-.081-.362-.07-.373-.07-.654-3.869-.443-.035-.455-.023-.443-.023h-.9l-.444.023-.455.023-.444.035-.654,3.869-.361.07-.374.07-.362.081-.362.093-.351.1-.362.1-.35.116-.35.128-2.51-3.02-.408.186-.4.2-.4.209-.4.221-.385.232-.374.233-.373.244-.374.256,1.378,3.671-.292.244-.281.244-.269.255-.268.256-.257.267-.257.267-.245.279-.233.29-3.7-1.371-.257.372-.245.372-.234.372-.234.383-.222.395-.21.395-.2.4-.187.406,3.035,2.5-.129.349-.116.348-.105.36-.1.349-.094.36-.082.36-.07.372-.07.36-3.888.65-.035.441-.024.453-.011.441-.012.453.012.441.011.442.024.453.035.441,3.888.651.07.372.07.36.082.36.094.36.1.36.105.349.116.348.129.349-3.035,2.5.187.407.2.395.21.395.222.395.234.383.234.372.245.383.257.36,3.7-1.37.233.291.245.278.257.268.257.267.268.256.269.256.281.244.292.244-1.378,3.67.374.256.373.244.374.233.385.232.4.221.4.209.4.2.408.186,2.51-3.021.35.128.35.116.362.116.351.093.362.093.362.081.374.082.361.058.654,3.868.444.035.455.023.444.024h.9l.443-.024.455-.023.443-.035.654-3.868.373-.058.362-.082.362-.081.362-.093.35-.093.362-.116.35-.116.35-.128,2.51,3.021.409-.186.4-.2.4-.209.4-.221.385-.232.374-.233.385-.244.362-.256-1.378-3.67.292-.244.28-.244.269-.256.268-.256.257-.267.257-.268.245-.278.245-.291,3.689,1.37.257-.36.245-.383.233-.372.234-.383.222-.395.21-.395.2-.395.187-.407-3.036-2.5.128-.349.117-.348.105-.349.105-.36.094-.36.081-.36.082-.36.058-.372,3.888-.651.035-.441.023-.453.024-.442v-.894Zm-6.806,1.394-.059.755-.1.767-.152.744-.2.744-.245.732-.292.721-.35.7-.385.674-.444.663-.49.627-.537.6-.584.57-.642.535-.677.511-.736.465-2.171,3.6-1.343-2.219-.315.058-.327.058-.327.058-.327.035-.327.035-.327.023-.327.012h-.665l-.327-.012-.327-.023-.327-.035-.327-.035-.327-.058-.327-.058-.315-.058-1.343,2.219-2.171-3.6-.724-.465-.689-.511-.642-.535-.584-.57-.537-.6-.49-.627-.444-.663-.385-.674-.35-.7-.292-.721-.246-.732-.2-.744-.152-.744-.1-.767-.058-.755v-.767l.035-.767.094-.755.129-.755.187-.744.234-.732.28-.721.327-.7.374-.685.42-.662.479-.627.514-.616.56-.569.619-.546.654-.511.712-.476.747-.43v-2.66H615.5v2.66l.759.43.7.476.653.511.619.546.561.569.513.616.479.627.42.662.374.685.327.7.28.721.233.732.187.744.128.755.094.755.047.767Z" transform="translate(-590.991 -235.777)" fill="#0439a1" />
            <path id="W-2" data-name="W" d="M626.414,301.868l3.946,6.54,5.172-8.573h1.284V297.7h-4.3v2.138h.5l-2.662,4.414L626.4,297.7l-3.946,6.552-2.65-4.414h.5V297.7H616v2.138h1.3l5.172,8.573,3.946-6.54Z" transform="translate(-607.559 -276.799)" fill="#0439a1" fill-rule="evenodd" />
            <path id="H-4" data-name="H" d="M630.354,265.963v2.149h.549v8.573l-.549-.012v2.149h3.6v-2.149h-.537v-2.137h5.02v2.137H637.9v2.149h3.584v-2.149h-.537V268.1l.537.012v-2.149H637.9v2.149h.537v4.275h-5.02v-4.275h.537v-2.149Z" transform="translate(-617.069 -255.775)" fill="#0439a1" fill-rule="evenodd" />
            <path id="T-2" data-name="T" d="M641.931,253.779H631.7v2.683h2.51v-.546h1.343v5.007h-.537v2.149H638.6v-2.149h-.537v-5h1.354v.534h2.51v-2.683Z" transform="translate(-617.963 -247.703)" fill="#0439a1" fill-rule="evenodd" />
        </g>
    </g>
</svg>
  