<?xml version="1.0" encoding="utf-8"?>
<!-- Generator: Adobe Illustrator 26.5.0, SVG Export Plug-In . SVG Version: 6.00 Build 0)  -->
<svg version="1.1" id="Ebene_1" xmlns="http://www.w3.org/2000/svg" xmlns:xlink="http://www.w3.org/1999/xlink" x="0px" y="0px"
	 viewBox="0 0 172.8 37.6" style="enable-background:new 0 0 172.8 37.6;" xml:space="preserve">
<style type="text/css">
	.st0{fill-rule:evenodd;clip-rule:evenodd;fill:#0439A1;}
	.st1{fill:#0439A1;}
</style>
<rect y="0" width="172.8" height="37.6"/>
<g id="Gruppe_7640" transform="translate(-71.071 -564.5)">
	<g id="Technisches_Hilf" transform="translate(71.071 564.5)">
		<g id="Hilfswerk" transform="translate(35.047 21.329)">
			<path id="k" class="st0" d="M83.2,10.9V2.8h-1.3V0h4.3v8l2.2-2.3h-1.2V3.1h5.4v2.8h-1.2l-2.2,2.3l2.1,2.8H93v2.8h-3L86.2,9v4.8
				h-4.3v-2.8L83.2,10.9z"/>
			<path id="r" class="st0" d="M75.2,10.9v-5H74V3.1h4.1v1.5l0.1-0.2l0.1-0.2l0.1-0.2l0.1-0.2l0.2-0.1l0.1-0.1l0.2-0.1l0.2-0.1
				l0.2-0.1l0.2-0.1l0.2-0.1L80,3.1L80.2,3l0.2,0l0.2,0l0.3,0v2.9l-0.2,0l-0.2,0l-0.2,0l-0.2,0l-0.2,0L80,6l-0.1,0l-0.1,0l-0.1,0.1
				l-0.1,0.1l-0.1,0.1l-0.1,0.1l-0.1,0.1L79,6.5L79,6.6l-0.1,0.1l-0.1,0.1l-0.1,0.1l-0.1,0.1L78.6,7l-0.1,0.1l-0.1,0.1l-0.1,0.1
				l0,0.1l0,0.1l0,0.1l0,0.1l0,0.2l0,0.2l0,0.2l0,0.2v2.3h1.2v2.8h-5.6v-2.8L75.2,10.9z"/>
			<path id="e" class="st0" d="M73.1,10.6L73,10.8L72.9,11l-0.1,0.2l-0.1,0.2l-0.1,0.2l-0.1,0.2l-0.1,0.2L72.2,12l-0.1,0.2l-0.1,0.2
				l-0.1,0.1l-0.1,0.1l-0.2,0.1l-0.2,0.1L71.2,13L71,13.1l-0.2,0.1l-0.2,0.1l-0.2,0.1l-0.2,0.1l-0.2,0.1l-0.2,0.1l-0.2,0.1l-0.2,0.1
				l-0.2,0.1l-0.2,0.1l-0.2,0l-0.2,0l-0.2,0l-0.2,0L68,14h-0.2l-0.3,0l-0.3,0l-0.3,0l-0.3-0.1l-0.3-0.1l-0.3-0.1l-0.3-0.1l-0.2-0.1
				l-0.2-0.1l-0.2-0.1l-0.2-0.1l-0.2-0.1l-0.2-0.2l-0.2-0.2L64,12.6l-0.2-0.2l-0.2-0.2l-0.2-0.2l-0.2-0.2L63,11.5l-0.1-0.2l-0.1-0.2
				l-0.1-0.2l-0.1-0.2l-0.1-0.2l-0.1-0.3l-0.1-0.3l-0.1-0.3l0-0.3l0-0.3l0-0.3l0-0.3l0-0.3l0-0.3l0-0.3l0-0.3L62.3,7l0.1-0.3
				l0.1-0.3l0.1-0.2L62.7,6l0.1-0.2l0.1-0.2l0.1-0.2l0.2-0.2l0.2-0.2l0.2-0.2l0.2-0.2L64,4.3l0.2-0.2l0.2-0.2l0.2-0.2l0.2-0.1
				l0.2-0.1l0.2-0.1l0.3-0.1l0.3-0.1l0.3-0.1L66.4,3l0.3-0.1l0.3,0l0.3,0l0.3,0l0.3,0l0.4,0l0.4,0l0.2,0l0.2,0l0.2,0l0.2,0l0.2,0
				l0.2,0.1l0.2,0.1l0.2,0.1L70,3.3l0.2,0.1l0.2,0.1l0.2,0.1l0.2,0.1l0.2,0.1L71,3.7l0.1,0.1l0.1,0.1L71.4,4l0.1,0.1l0.1,0.1
				l0.1,0.1l0.1,0.1L72,4.6l0.1,0.1l0.1,0.1L72.4,5l0.1,0.1l0.1,0.1l0.1,0.2l0.1,0.2l0.1,0.2L73,6l0.1,0.2l0.1,0.2l0.1,0.2l0.1,0.2
				l0.1,0.2l0,0.2l0,0.2l0,0.2l0,0.2l0,0.2l0,0.2v0.5l0,0.1v0.1l0,0.1l0,0.1v0.1l0,0.1l0,0.1l0,0.1l0,0.1l0,0.1l0,0.1h-7.9l0.1,0.2
				l0.1,0.2l0.1,0.2l0.1,0.2l0.1,0.1l0.1,0.1l0.1,0.1l0.1,0.1l0.2,0.1l0.2,0.1l0.2,0.1l0.2,0.1l0.2,0.1l0.2,0l0.2,0H68l0.1,0l0.1,0
				l0.1,0l0.1,0l0.1,0l0.1,0l0.1,0l0.1,0l0.1-0.1l0.1-0.1l0.1-0.1l0.1-0.1l0.1-0.1l0.1-0.1L73.1,10.6z M65.5,7.3h4.7l-0.1-0.2
				l-0.1-0.2L70,6.7l-0.1-0.2l-0.1-0.2l-0.1-0.2l-0.1-0.1L69.4,6l-0.2-0.1L69,5.8l-0.2-0.1l-0.2-0.1l-0.2-0.1l-0.2,0l-0.2,0l-0.2,0
				l-0.2,0l-0.2,0l-0.2,0L67,5.7l-0.2,0.1l-0.2,0.1l-0.2,0.1L66.3,6l-0.2,0.1L66,6.3l-0.1,0.1l-0.1,0.2l-0.1,0.2l-0.1,0.2l-0.1,0.2
				L65.5,7.3L65.5,7.3z"/>
			<path id="w" class="st0" d="M51.9,13.7h-3l-2.5-7.8h-0.9V3.1h4.8v2.8h-0.9l1.1,4.2l1.9-6.9H55l1.9,6.9L58,5.9h-0.9V3.1h4.7v2.8
				h-0.9l-2.5,7.8h-3l-1.8-6.1L51.9,13.7L51.9,13.7z"/>
			<path id="s" class="st0" d="M36.2,10.5h2.9l0,0.1l0,0.1l0,0.1l0,0.1l0.1,0.1l0.1,0.1l0.1,0.1l0.1,0.1l0.1,0.1l0.1,0.1l0.1,0
				l0.1,0.1l0.1,0l0.1,0l0.1,0l0.1,0l0.1,0l0.1,0l0.1,0l0.1,0l0.1,0l0.1,0l0.1-0.1l0.1-0.1l0.1-0.1l0.1-0.1l0.1-0.1l0-0.1l0-0.1
				l0-0.1l0-0.1v-0.1l0-0.1l0-0.1l0-0.1l0-0.1l-0.1-0.1l-0.1-0.1l-0.1-0.1l-0.1-0.1L41,10L40.9,10l-0.1-0.1l-0.1-0.1l-0.1,0
				l-0.1-0.1l-0.2-0.1l-0.2,0l-0.1,0l-0.1,0l-0.1,0l-0.1,0l-0.1,0l-0.1,0l-0.1,0l-0.1,0l-0.4-0.1l-0.3-0.1l-0.2-0.1l-0.2-0.1L38,9
				l-0.1-0.1l-0.1-0.1l-0.1-0.1l-0.1-0.1l-0.1-0.1l-0.1-0.1l-0.1-0.1L37,8.4l-0.1-0.1l-0.1-0.1l-0.1-0.1l-0.1-0.1l-0.1-0.1l-0.1-0.1
				l-0.1-0.1l-0.1-0.1l0-0.1l0-0.1l0-0.1l0-0.1l0-0.1l0-0.1l0-0.2l0-0.2l0-0.2l0-0.2l0-0.2l0-0.2l0-0.2l0-0.2l0-0.2L36.4,5l0.1-0.2
				l0.1-0.2l0.1-0.1l0.1-0.1l0.1-0.1l0.1-0.1L37,4l0.1-0.1l0.1-0.1l0.1-0.1l0.1-0.1l0.1-0.1l0.1-0.1l0.2-0.1l0.2-0.1l0.2-0.1
				l0.2-0.1L38.6,3L38.7,3l0.2,0l0.2,0l0.2,0l0.2,0l0.2,0h0.4l0.2,0l0.2,0l0.2,0l0.1,0l0.1,0l0.1,0l0.1,0l0.1,0l0.1,0.1l0.1,0.1
				l0.1,0.1l0.1,0.1l0.1,0.1L42,3.5l0.1,0.1V3.1h2.2v3h-2.8l0-0.1l0-0.1l0-0.1l0-0.1l0-0.1l-0.1-0.1l0-0.1l-0.1-0.1l-0.1-0.1l-0.1,0
				l-0.1,0l-0.1,0l-0.1,0l-0.1,0l-0.1,0h-0.2l-0.1,0l-0.1,0l-0.1,0l-0.1,0l-0.1,0l-0.1,0l-0.1,0.1l-0.1,0.1l-0.1,0.1l-0.1,0.1l0,0.1
				l0,0.1l0,0.1l0,0.1l0,0.1l0,0.1l0,0.1l0,0.1l0,0.1l0,0.1l0.1,0.1l0.1,0.1l0.1,0.1l0.1,0.1L40,6.7l0.2,0.1l0.2,0.1l0.2,0.1L40.8,7
				L41,7.1l0.3,0.1l0.5,0.1l0.4,0.1l0.2,0.1l0.2,0.1l0.2,0.1L43,7.7l0.2,0.1l0.2,0.1L43.5,8l0.1,0.1l0.1,0.1l0.1,0.1L44,8.3L44,8.4
				l0.1,0.1l0.1,0.1l0.1,0.1l0.1,0.1l0.1,0.1L44.5,9l0.1,0.1l0.1,0.1l0,0.1l0,0.1l0,0.1l0,0.1l0,0.2l0,0.2l0,0.2v0.4l0,0.2l0,0.2
				l0,0.2l0,0.2l-0.1,0.2l-0.1,0.2l-0.1,0.2l-0.1,0.2l-0.1,0.2l-0.1,0.1l-0.1,0.1l-0.1,0.1L44,12.8l-0.1,0.1L43.7,13l-0.1,0.1
				l-0.1,0.1l-0.1,0.1l-0.2,0.1L43,13.5l-0.2,0.1l-0.2,0.1l-0.2,0.1l-0.2,0.1l-0.2,0.1l-0.2,0l-0.2,0l-0.2,0l-0.2,0l-0.2,0h-0.4
				l-0.2,0l-0.2,0l-0.2,0l-0.2,0l-0.2,0l-0.1,0l-0.1-0.1l-0.1-0.1l-0.1-0.1l-0.1-0.1l-0.1-0.1l-0.1-0.1l-0.1-0.1l-0.1-0.1l-0.1-0.1
				v0.5h-2.3L36.2,10.5L36.2,10.5z"/>
			<path id="f" class="st0" d="M30.6,5.9h-1.4V3.1h1.4V2.9l0-0.2l0-0.2l0-0.2l0-0.2l0-0.2l0-0.2l0.1-0.2l0.1-0.2L31,1.2L31,1.1
				l0.1-0.1l0.1-0.1l0.1-0.1l0.1-0.1l0.1-0.1l0.1-0.1l0.1-0.1l0.1-0.1l0.2-0.1l0.2-0.1L32.4,0L32.6,0l0.2-0.1L33-0.2l0.2,0l0.2,0
				l0.2,0l0.2,0l0.3,0l0.3,0h0.9v2.4h-0.1l-0.1,0l-0.1,0l-0.1,0H35l-0.1,0h-0.3l-0.1,0l-0.1,0l-0.1,0l-0.1,0l-0.1,0l-0.1,0.1
				l-0.1,0.1l-0.1,0.1l0,0.1l-0.1,0.1l0,0.1l0,0.1l0,0.1l0,0.1l0,0.1v0.1h1.5v2.8h-1.5v5h1.5v2.8h-5.9v-2.8h1.4L30.6,5.9L30.6,5.9z"
				/>
			<path id="l" class="st0" d="M23.8,10.9V2.8h-1.3V0h4.3v10.9h1.3v2.8h-5.7v-2.8H23.8z"/>
			<path id="i" class="st0" d="M16.5,2.5V0h3v2.6H16.5z M16.5,10.9v-5h-1.3V3.1h4.3v7.8h1.3v2.8h-5.7v-2.8L16.5,10.9z"/>
			<path id="H" class="st0" d="M1.6,10.9V2.8H0.3V0h6v2.8H5v2.5h4.1V2.8H7.8V0h6v2.8h-1.4v8.1h1.4v2.8h-6v-2.8h1.3V8.1H5v2.8h1.3
				v2.8h-6v-2.8L1.6,10.9z"/>
		</g>
		<g id="Technisches" transform="translate(0)">
			<path id="s-2" class="st0" d="M118.9,12.7h2.9l0,0.1l0,0.1l0,0.1l0,0.1l0,0.1l0.1,0.1l0.1,0.1l0.1,0.1l0.1,0.1l0.1,0.1l0.1,0.1
				l0.1,0l0.1,0l0.1,0l0.1,0h0.3l0.1,0l0.1,0l0.1,0l0.1,0l0.1,0l0.1-0.1l0.1-0.1l0.1-0.1l0.1-0.1l0.1-0.1l0-0.1l0-0.1l0-0.1l0-0.1
				l0-0.1l0-0.1l0-0.1l0-0.1l0-0.1l-0.1-0.1l-0.1-0.1l-0.1-0.1l-0.1-0.1l-0.1-0.1l-0.1-0.1l-0.1-0.1l-0.1-0.1l-0.1-0.1L123,12
				l-0.2,0l-0.2,0l-0.1,0l-0.1,0l-0.1,0l-0.1,0l-0.1,0l-0.1,0l-0.1,0l-0.1,0l-0.4-0.1l-0.3-0.1l-0.2-0.1l-0.2-0.1l-0.1-0.1l-0.1-0.1
				l-0.1-0.1l-0.1-0.1l-0.1-0.1l-0.1-0.1l-0.1-0.1l-0.1-0.1l-0.1-0.1l-0.1-0.1l-0.1-0.1l-0.1-0.1l-0.1-0.1l-0.1-0.1l-0.1-0.1
				l-0.1-0.1l-0.1-0.1L119,9.6l0-0.1l0-0.1l0-0.1l0-0.1l0-0.1l0-0.1l0-0.2V8.4l0-0.2l0-0.2l0-0.2l0-0.2l0-0.2l0-0.2l0.1-0.2l0.1-0.2
				l0.1-0.1l0.1-0.1l0.1-0.1l0.1-0.1l0.1-0.1l0.1-0.1l0.1-0.1l0.1-0.1l0.1-0.1l0.1-0.1l0.1-0.1l0.1-0.1l0.1-0.1l0.2-0.1l0.2-0.1
				l0.2-0.1l0.2-0.1l0.2,0l0.2,0l0.2,0l0.2,0l0.2,0l0.2,0l0.2,0l0.2,0h0.2l0.2,0l0.2,0l0.1,0l0.1,0l0.1,0l0.1,0l0.1,0l0.1,0.1
				l0.1,0.1l0.1,0.1l0.1,0.1l0.1,0.1l0.1,0.1l0.1,0.1V5.3h2.2v3h-2.8l0-0.1l0-0.1l0-0.1l0-0.1l0-0.1l-0.1-0.1l-0.1-0.1l-0.1-0.1
				l-0.1-0.1l-0.1,0l-0.1,0l-0.1,0l-0.1,0l-0.1,0l-0.1,0l-0.1,0l-0.1,0l-0.1,0l-0.1,0l-0.1,0l-0.1,0l-0.1,0l-0.1,0l-0.1,0.1
				l-0.1,0.1l-0.1,0.1l0,0.1l0,0.1l0,0.1l0,0.1l0,0.1v0.1l0,0.1l0,0.1l0,0.1l0,0.1l0,0.1l0.1,0.1l0.1,0.1l0.1,0.1l0.1,0.1l0.1,0.1
				l0.1,0.1l0.2,0.1l0.2,0.1l0.2,0.1l0.3,0.1l0.3,0.1l0.5,0.1l0.4,0.1l0.2,0.1l0.2,0.1l0.2,0.1l0.2,0.1l0.2,0.1l0.2,0.1l0.2,0.1
				l0.1,0.1l0.1,0.1l0.1,0.1l0.1,0.1l0.1,0.1l0.1,0.1l0.1,0.1l0.1,0.1L127,11l0.1,0.1l0.1,0.1l0.1,0.1l0.1,0.1l0,0.1l0,0.1l0,0.1
				l0,0.2l0,0.2l0,0.2v0.2l0,0.2l0,0.2l0,0.2l0,0.2l0,0.2l0,0.2l0,0.2l-0.1,0.2l-0.1,0.2l-0.1,0.2l-0.1,0.1l-0.1,0.2l-0.1,0.1
				l-0.1,0.1l-0.1,0.1l-0.1,0.1l-0.1,0.1l-0.1,0.1l-0.1,0.1l-0.1,0.1l-0.2,0.1l-0.2,0.1l-0.2,0.1l-0.2,0.1l-0.2,0.1l-0.2,0.1
				l-0.2,0.1l-0.2,0l-0.2,0l-0.2,0l-0.2,0l-0.2,0h-0.4l-0.2,0l-0.2,0l-0.2,0l-0.2,0l-0.2,0l-0.2,0l-0.1-0.1l-0.1-0.1l-0.1-0.1
				l-0.1-0.1l-0.1-0.1l-0.1-0.1l-0.1-0.1l-0.1-0.1l-0.1-0.1V16h-2.3L118.9,12.7L118.9,12.7z"/>
			<path id="e-2" class="st0" d="M117.7,12.8l-0.1,0.2l-0.1,0.2l-0.1,0.2l-0.1,0.2l-0.1,0.2l-0.1,0.2l-0.1,0.2l-0.1,0.2l-0.1,0.2
				l-0.1,0.2l-0.1,0.1l-0.1,0.1l-0.2,0.1l-0.2,0.1l-0.2,0.1l-0.2,0.1l-0.2,0.1l-0.2,0.1l-0.2,0.1l-0.2,0.1l-0.2,0.1l-0.2,0.1
				l-0.2,0.1l-0.2,0.1l-0.2,0.1l-0.2,0l-0.2,0l-0.2,0l-0.2,0l-0.2,0l-0.2,0l-0.2,0l-0.3,0l-0.3,0l-0.3,0l-0.3,0l-0.3-0.1l-0.3-0.1
				l-0.3-0.1l-0.3-0.1l-0.2-0.1l-0.2-0.1l-0.2-0.1l-0.2-0.1l-0.2-0.2l-0.2-0.2l-0.2-0.2l-0.2-0.2l-0.2-0.2l-0.2-0.2l-0.2-0.2
				l-0.2-0.2l-0.1-0.2l-0.1-0.2l-0.1-0.2l-0.1-0.2l-0.1-0.3l-0.1-0.3l-0.1-0.3l-0.1-0.3l0-0.3l0-0.3l0-0.3l0-0.3l0-0.3l0-0.3l0-0.3
				l0-0.3l0.1-0.3L107,9l0.1-0.3l0.1-0.3l0.1-0.2l0.1-0.2l0.1-0.2l0.2-0.2l0.2-0.2l0.2-0.2l0.2-0.2l0.2-0.2l0.2-0.2l0.2-0.2l0.2-0.2
				l0.2-0.2l0.2-0.1l0.2-0.1l0.3-0.1l0.3-0.1l0.3-0.1l0.3-0.1l0.3-0.1l0.3-0.1l0.3-0.1l0.3,0l0.3,0l0.3,0l0.4,0l0.4,0l0.2,0l0.2,0
				l0.2,0l0.2,0l0.2,0l0.2,0.1l0.2,0.1l0.2,0.1l0.2,0.1l0.2,0.1l0.2,0.1l0.2,0.1l0.2,0.1l0.2,0.1l0.1,0.1l0.1,0.1l0.1,0.1l0.1,0.1
				l0.1,0.1l0.1,0.1l0.1,0.1l0.1,0.1l0.1,0.1l0.1,0.1l0.1,0.1l0.1,0.1l0.1,0.1l0.1,0.1l0.1,0.2l0.1,0.2l0.1,0.2l0.1,0.2l0.1,0.2
				l0.1,0.2l0.1,0.2l0.1,0.2l0.1,0.2l0.1,0.2l0,0.2l0,0.2l0,0.2l0,0.2l0,0.2v0.5l0,0.1v0.1l0,0.1v0.1l0,0.1v0.1l0,0.1l0,0.1l0,0.1
				l0,0.1l0,0.1l0,0.1h-7.9l0.1,0.2l0.1,0.2l0.1,0.2l0.1,0.1l0.1,0.1l0.1,0.1l0.1,0.1L111,13l0.2,0.1l0.2,0.1l0.2,0.1l0.2,0.1l0.2,0
				l0.2,0l0.2,0l0.2,0h0.1l0.1,0l0.1,0l0.1,0l0.1,0l0.1,0l0.1,0l0.1,0l0.1,0l0.1-0.1l0.1,0l0.1-0.1l0.1-0.1l0.1-0.1l0.1-0.1l0.1-0.1
				L117.7,12.8z M110.1,9.6h4.7l-0.1-0.2l-0.1-0.2L114.6,9l-0.1-0.2l-0.1-0.2l-0.1-0.1l-0.1-0.1L114,8.3l-0.2-0.1l-0.2-0.1L113.5,8
				l-0.2-0.1l-0.2-0.1l-0.2,0l-0.2,0l-0.2,0l-0.2,0l-0.2,0l-0.2,0l-0.2,0.1L111.5,8l-0.2,0.1l-0.2,0.1L111,8.3l-0.1,0.1l-0.1,0.1
				l-0.1,0.1l-0.1,0.2L110.3,9l-0.1,0.2l-0.1,0.2L110.1,9.6L110.1,9.6z"/>
			<path id="h-2" class="st0" d="M95.4,13.2V5h-1.3V2.2h4.3v4.4l0.1-0.2l0.1-0.2l0.1-0.2L99,6l0.2-0.1l0.2-0.1l0.2-0.1l0.2-0.1
				l0.2-0.1l0.2-0.1l0.2-0.1l0.2-0.1l0.2,0l0.2,0l0.2,0l0.2,0l0.2,0l0.2,0l0.2,0l0.2,0l0.2,0l0.2,0.1l0.2,0.1l0.2,0.1l0.2,0.1
				l0.2,0.1l0.2,0.1l0.1,0.1l0.1,0.1l0.1,0.1l0.1,0.1l0.1,0.1l0.1,0.1l0.1,0.1l0.1,0.1l0.1,0.2l0.1,0.2l0.1,0.2l0.1,0.2l0.1,0.2
				l0.1,0.2l0.1,0.2l0,0.2l0,0.2l0,0.2l0,0.2l0,0.2l0,0.2v3.9h1.4V16H102V9.8l0-0.3l0-0.2l0-0.2l-0.1-0.2l-0.1-0.2l0-0.1l0-0.1
				l-0.1-0.1l0-0.1l-0.1-0.1l-0.1-0.1l-0.1-0.1l-0.1-0.1l-0.1,0l-0.1,0l-0.1,0l-0.1,0L100.9,8l-0.2,0l-0.2,0l-0.2,0l-0.2,0l-0.2,0
				l-0.1,0l-0.1,0l-0.1,0l-0.1,0l-0.1,0l-0.1,0l-0.1,0l-0.1,0.1l-0.1,0.1l-0.1,0.1L99,8.5l-0.1,0.1l-0.1,0.1l-0.1,0.1l-0.1,0.1
				l-0.1,0.1L98.6,9l-0.1,0.2l-0.1,0.2l0,0.2l0,0.2v3.3h1.2V16h-5.6v-2.8L95.4,13.2z"/>
			<path id="c" class="st0" d="M93.8,12.1l-0.1,0.2l-0.1,0.2l-0.1,0.2L93.4,13l-0.1,0.2l-0.1,0.2l-0.1,0.2L93,13.8L92.9,14l-0.1,0.2
				l-0.1,0.2l-0.1,0.2l-0.2,0.2l-0.2,0.2L92,15l-0.2,0.1l-0.2,0.1l-0.2,0.1l-0.2,0.1L91,15.6l-0.2,0.1l-0.2,0.1l-0.2,0.1l-0.2,0.1
				L90,16l-0.2,0.1l-0.2,0l-0.2,0l-0.2,0l-0.2,0l-0.3,0l-0.2,0l-0.3,0l-0.3,0l-0.3,0l-0.3,0l-0.3-0.1L86.6,16l-0.3-0.1l-0.3-0.1
				l-0.2-0.1l-0.2-0.1l-0.2-0.1l-0.2-0.1l-0.2-0.2L84.7,15l-0.2-0.2l-0.2-0.2L84,14.4l-0.2-0.2L83.7,14l-0.2-0.2l-0.1-0.2l-0.1-0.2
				l-0.1-0.2L83,12.8l-0.1-0.3l-0.1-0.3L82.8,12l-0.1-0.3l-0.1-0.3l0-0.3l0-0.3v-0.6l0-0.3l0-0.3l0.1-0.3l0.1-0.3L82.8,9l0.1-0.3
				L83,8.5l0.1-0.2L83.2,8l0.1-0.2l0.1-0.2l0.2-0.2l0.2-0.2L84,6.9l0.2-0.2l0.2-0.2l0.2-0.2l0.2-0.2L85.1,6l0.2-0.2l0.2-0.1l0.2-0.1
				L86,5.5l0.2-0.1l0.2-0.1l0.2-0.1l0.3-0.1l0.2,0l0.3,0l0.3,0l0.3,0l0.2,0l0.2,0l0.2,0l0.2,0l0.2,0l0.2,0.1l0.2,0.1l0.2,0.1
				l0.2,0.1l0.2,0.1l0.2,0.1l0.2,0.1l0.2,0.1L90.6,6l0.2,0.1l0.2,0.1V5.4h2.4v3.9h-2.9l-0.1-0.2L90.2,9l-0.1-0.1L90,8.7l-0.1-0.1
				l-0.1-0.1l-0.1-0.1l-0.1-0.1l-0.1-0.1l-0.1-0.1l-0.1-0.1l-0.2,0l-0.2,0l-0.2,0l-0.2,0h-0.3l-0.1,0L88,8l-0.1,0l-0.1,0l-0.1,0
				l-0.1,0l-0.1,0l-0.1,0.1l-0.1,0.1L87,8.4l-0.1,0.1l-0.1,0.1l-0.1,0.1l-0.1,0.1l-0.1,0.1l-0.1,0.1L86.4,9l-0.1,0.1l-0.1,0.1
				l-0.1,0.1l-0.1,0.1L86,9.5L86,9.6l0,0.1l0,0.1l0,0.1l0,0.1l0,0.1l0,0.1l0,0.1v0.3l0,0.1l0,0.1l0,0.1l0,0.1l0,0.1l0,0.1l0,0.1
				l0.1,0.1l0.1,0.1l0.1,0.1l0.1,0.1l0.1,0.1l0.1,0.1l0.1,0.1l0.1,0.1l0.1,0.1l0.1,0.1l0.1,0.1l0.1,0.1l0.1,0.1l0.1,0.1l0.1,0.1
				l0.1,0.1l0.1,0l0.1,0l0.1,0l0.1,0l0.1,0l0.1,0l0.1,0h0.3l0.2,0l0.2,0l0.2,0l0.1-0.1l0.1-0.1l0.1-0.1l0.1-0.1l0.1-0.1l0.1-0.1
				l0.1-0.1l0.1-0.1l0.1-0.1l0.1-0.1l0.1-0.1l0.1-0.1L93.8,12.1z"/>
			<path id="s-3" class="st0" d="M73.1,12.7H76l0,0.1l0,0.1l0,0.1l0,0.1l0,0.1l0.1,0.1l0.1,0.1l0.1,0.1l0.1,0.1l0.1,0.1l0.1,0.1
				l0.1,0l0.1,0l0.1,0l0.1,0h0.3l0.1,0l0.1,0l0.1,0l0.1,0l0.1,0l0.1-0.1l0.1-0.1l0.1-0.1l0.1-0.1l0.1-0.1l0-0.1l0-0.1l0-0.1l0-0.1
				l0-0.1l0-0.1l0-0.1l0-0.1l0-0.1l-0.1-0.1l-0.1-0.1l-0.1-0.1L78,12.4l-0.1-0.1l-0.1-0.1l-0.1-0.1l-0.1-0.1l-0.1-0.1L77.2,12
				l-0.2,0l-0.2,0l-0.1,0l-0.1,0l-0.1,0l-0.1,0l-0.1,0l-0.1,0l-0.1,0l-0.1,0l-0.4-0.1l-0.3-0.1l-0.2-0.1L75,11.3l-0.1-0.1l-0.1-0.1
				l-0.1-0.1L74.5,11L74.3,11l-0.1-0.1l-0.1-0.1L74,10.7l-0.1-0.1l-0.1-0.1l-0.1-0.1l-0.1-0.1l-0.1-0.1l-0.1-0.1L73.4,10l-0.1-0.1
				l-0.1-0.1l-0.1-0.1l0-0.1l0-0.1l0-0.1l0-0.1l0-0.1l0-0.1l0-0.2V8.4l0-0.2l0-0.2l0-0.2l0-0.2l0-0.2l0-0.2l0.1-0.2l0.1-0.2l0.1-0.1
				l0.1-0.1l0.1-0.1l0.1-0.1l0.1-0.1l0.1-0.1L74,6.1L74.1,6l0.1-0.1l0.1-0.1l0.1-0.1l0.1-0.1l0.1-0.1l0.2-0.1l0.2-0.1l0.2-0.1
				l0.2-0.1l0.2,0l0.2,0l0.2,0l0.2,0l0.2,0l0.2,0l0.2,0l0.2,0h0.2l0.2,0l0.2,0l0.1,0l0.1,0l0.1,0l0.1,0l0.1,0l0.1,0.1l0.1,0.1
				l0.1,0.1l0.1,0.1l0.1,0.1l0.1,0.1L79,5.8V5.3h2.2v3h-2.8l0-0.1l0-0.1l0-0.1l0-0.1l0-0.1l-0.1-0.1l-0.1-0.1l-0.1-0.1L78,7.5
				l-0.1,0l-0.1,0l-0.1,0l-0.1,0l-0.1,0l-0.1,0l-0.1,0l-0.1,0l-0.1,0l-0.1,0l-0.1,0l-0.1,0l-0.1,0l-0.1,0l-0.1,0.1l-0.1,0.1
				l-0.1,0.1l0,0.1l0,0.1l0,0.1l0,0.1l0,0.1l0,0.1l0,0.1l0,0.1l0,0.1l0,0.1l0,0.1l0.1,0.1l0.1,0.1l0.1,0.1l0.1,0.1L76.9,9L77.1,9
				l0.2,0.1l0.2,0.1l0.2,0.1l0.3,0.1l0.3,0.1l0.5,0.1l0.4,0.1l0.2,0.1l0.2,0.1l0.2,0.1l0.2,0.1l0.2,0.1l0.2,0.1l0.2,0.1l0.1,0.1
				l0.1,0.1l0.1,0.1l0.1,0.1l0.1,0.1l0.1,0.1l0.1,0.1l0.1,0.1l0.1,0.1l0.1,0.1l0.1,0.1l0.1,0.1l0.1,0.1l0,0.1l0,0.1l0,0.1l0,0.2
				l0,0.2l0,0.2l0,0.2v0.2l0,0.2l0,0.2l0,0.2l0,0.2l0,0.2l-0.1,0.2L81.5,14l-0.1,0.2l-0.1,0.2l-0.1,0.1l-0.1,0.2l-0.1,0.1L81,14.9
				L80.9,15l-0.1,0.1l-0.1,0.1l-0.1,0.1l-0.1,0.1l-0.1,0.1L80,15.7l-0.2,0.1l-0.2,0.1l-0.2,0.1L79.4,16L79.2,16L79,16.1l-0.2,0
				l-0.2,0l-0.2,0l-0.2,0l-0.2,0h-0.4l-0.2,0l-0.2,0l-0.2,0l-0.2,0l-0.2,0l-0.2,0L76.5,16L76.4,16l-0.1-0.1l-0.1-0.1L76,15.8
				l-0.1-0.1l-0.1-0.1l-0.1-0.1l-0.1-0.1V16h-2.3L73.1,12.7L73.1,12.7z"/>
			<path id="i-2" class="st0" d="M67.7,4.8V2.2h3v2.6H67.7z M67.7,13.2v-5h-1.3V5.4h4.3v7.8H72V16h-5.7v-2.8L67.7,13.2z"/>
			<path id="n" class="st0" d="M54.3,13.2v-5H53V5.4h4.2v1.4l0.1-0.2l0.1-0.2l0.2-0.2l0.2-0.2l0.2-0.1l0.2-0.1l0.2-0.1l0.2-0.1
				l0.2-0.1l0.2-0.1l0.2-0.1l0.2-0.1l0.2,0l0.2,0l0.2,0l0.2,0l0.2,0l0.2,0l0.2,0l0.2,0l0.2,0l0.2,0.1l0.2,0.1l0.2,0.1L62,5.5
				l0.2,0.1l0.2,0.1l0.1,0.1l0.1,0.1L62.7,6l0.1,0.1L63,6.2l0.1,0.1l0.1,0.1l0.1,0.2l0.1,0.2L63.5,7l0.1,0.2l0.1,0.2l0.1,0.2
				l0.1,0.2l0.1,0.2l0,0.2l0,0.2l0,0.2l0,0.2l0,0.2v4.2h1.4V16h-4.4v-5.8l0-0.3l0-0.3l0-0.2l0-0.2l-0.1-0.2l-0.1-0.2l0-0.1l0-0.1
				l0-0.1l-0.1-0.1l-0.1-0.1l-0.1-0.1l-0.1-0.1l-0.1-0.1l-0.1,0l-0.1,0l-0.1,0l-0.1,0L59.8,8l-0.2,0l-0.2,0l-0.2,0L59,8l-0.2,0
				l-0.1,0l-0.1,0l-0.1,0l-0.1,0l-0.1,0l-0.1,0l-0.1,0l-0.1,0.1L58,8.3l-0.1,0.1l-0.1,0.1l-0.1,0.1l-0.1,0.1l-0.1,0.1l-0.1,0.1
				l0,0.1L57.5,9l-0.1,0.2l-0.1,0.2l0,0.2l0,0.2l0,0.2v3h1.2V16h-5.6v-2.8L54.3,13.2z"/>
			<path id="h-3" class="st0" d="M40.8,13.2V5h-1.3V2.2h4.3v4.4l0.1-0.2L44,6.3l0.1-0.2L44.3,6l0.2-0.1l0.2-0.1l0.2-0.1L45,5.5
				l0.2-0.1l0.2-0.1l0.2-0.1l0.2-0.1l0.2,0l0.2,0l0.2,0l0.2,0l0.2,0l0.2,0l0.2,0l0.2,0l0.2,0l0.2,0.1l0.2,0.1l0.2,0.1l0.2,0.1
				l0.2,0.1l0.2,0.1l0.2,0.1l0.1,0.1L49.2,6l0.1,0.1l0.1,0.1l0.1,0.1l0.1,0.1l0.1,0.1l0.1,0.2L49.9,7L50,7.1l0.1,0.2l0.1,0.2
				l0.1,0.2l0.1,0.2l0,0.2l0,0.2l0,0.2l0,0.2l0,0.2l0,0.2v3.9h1.3V16h-4.4V9.8l0-0.3l0-0.2l0-0.2l-0.1-0.2l-0.1-0.2l0-0.1l0-0.1
				l-0.1-0.1l0-0.1l-0.1-0.1l-0.1-0.1l-0.1-0.1l-0.1-0.1l-0.1,0l-0.1,0l-0.1,0l-0.1,0L46.2,8L46,8l-0.2,0l-0.2,0l-0.2,0l-0.2,0
				l-0.1,0L45,8l-0.1,0l-0.1,0l-0.1,0l-0.1,0l-0.1,0l-0.1,0.1l-0.1,0.1l-0.1,0.1l-0.1,0.1l-0.1,0.1l-0.1,0.1l-0.1,0.1l-0.1,0.1
				L44,8.9L44,9l-0.1,0.2l-0.1,0.2l0,0.2l0,0.2v3.3H45V16h-5.6v-2.8L40.8,13.2z"/>
			<path id="c-2" class="st0" d="M38.9,12.1l-0.1,0.2l-0.1,0.2l-0.1,0.2L38.6,13l-0.1,0.2l-0.1,0.2l-0.1,0.2l-0.1,0.2L38,14
				l-0.1,0.2l-0.1,0.2l-0.1,0.2l-0.2,0.2l-0.2,0.2L37.1,15l-0.2,0.1l-0.2,0.1l-0.2,0.1l-0.2,0.1l-0.2,0.1L36,15.7l-0.2,0.1l-0.2,0.1
				l-0.2,0.1L35.1,16l-0.2,0.1l-0.2,0l-0.2,0l-0.2,0l-0.2,0l-0.3,0l-0.2,0l-0.3,0l-0.3,0l-0.3,0l-0.3,0L32,16.1L31.7,16l-0.3-0.1
				l-0.3-0.1l-0.2-0.1l-0.2-0.1l-0.2-0.1l-0.2-0.1L30,15.2L29.8,15l-0.2-0.2l-0.2-0.2l-0.2-0.2L29,14.2L28.8,14l-0.2-0.2l-0.1-0.2
				l-0.1-0.2l-0.1-0.2l-0.1-0.2l-0.1-0.3L28,12.3L27.9,12l-0.1-0.3l-0.1-0.3l0-0.3l0-0.3v-0.6l0-0.3l0-0.3l0.1-0.3l0.1-0.3L28,9
				l0.1-0.3l0.1-0.2l0.1-0.2L28.4,8l0.1-0.2l0.1-0.2l0.2-0.2L29,7.1l0.2-0.2l0.2-0.2l0.2-0.2l0.2-0.2L30,6.2L30.2,6l0.2-0.2l0.2-0.1
				l0.2-0.1l0.2-0.1l0.2-0.1l0.2-0.1l0.2-0.1l0.3-0.1l0.2,0l0.3,0l0.3,0l0.3,0l0.2,0l0.2,0l0.2,0l0.2,0l0.2,0l0.2,0.1l0.2,0.1
				l0.2,0.1l0.2,0.1l0.2,0.1l0.2,0.1l0.2,0.1l0.2,0.1L35.7,6l0.2,0.1L36,6.3V5.4h2.4v3.9h-2.9l-0.1-0.2L35.4,9l-0.1-0.1l-0.1-0.1
				l-0.1-0.1l-0.1-0.1l-0.1-0.1l-0.1-0.1l-0.1-0.1l-0.1-0.1l-0.1-0.1l-0.2,0l-0.2,0l-0.2,0l-0.2,0h-0.3l-0.1,0l-0.1,0l-0.1,0l-0.1,0
				l-0.1,0l-0.1,0l-0.1,0l-0.1,0.1l-0.1,0.1l-0.1,0.1l-0.1,0.1L32,8.5l-0.1,0.1l-0.1,0.1l-0.1,0.1l-0.1,0.1L31.5,9l-0.1,0.1
				l-0.1,0.1l-0.1,0.1l-0.1,0.1l-0.1,0.1l-0.1,0.1l0,0.1l0,0.1l0,0.1l0,0.1l0,0.1l0,0.1l0,0.1v0.3l0,0.1l0,0.1l0,0.1l0,0.1l0,0.1
				l0,0.1l0.1,0.1l0,0.1l0.1,0.1l0.1,0.1l0.1,0.1l0.1,0.1l0.1,0.1l0.1,0.1l0.1,0.1l0.1,0.1l0.1,0.1l0.1,0.1l0.1,0.1l0.1,0.1l0.1,0.1
				l0.1,0.1l0.1,0.1l0.1,0l0.1,0l0.1,0l0.1,0l0.1,0l0.1,0l0.1,0h0.3l0.2,0l0.2,0l0.2,0l0.1-0.1l0.1-0.1l0.1-0.1l0.1-0.1l0.1-0.1
				l0.1-0.1l0.1-0.1l0.1-0.1l0.1-0.1l0.1-0.1l0.1-0.1l0.1-0.1L38.9,12.1z"/>
			<path id="e-3" class="st0" d="M26.6,12.8L26.5,13l-0.1,0.2l-0.1,0.2l-0.1,0.2l-0.1,0.2L26,13.9l-0.1,0.2l-0.1,0.2l-0.1,0.2
				l-0.1,0.2l-0.1,0.1l-0.2,0.1L25,15l-0.2,0.1l-0.2,0.1l-0.2,0.1l-0.2,0.1l-0.2,0.1L24,15.6l-0.2,0.1l-0.2,0.1l-0.2,0.1l-0.2,0.1
				L23,16L22.8,16l-0.2,0l-0.2,0l-0.2,0l-0.2,0l-0.2,0l-0.2,0l-0.2,0l-0.3,0l-0.3,0l-0.3,0l-0.3,0l-0.3-0.1L19.6,16l-0.3-0.1
				l-0.3-0.1l-0.2-0.1l-0.2-0.1l-0.2-0.1l-0.2-0.1L18,15.2L17.7,15l-0.2-0.2l-0.2-0.2l-0.2-0.2l-0.2-0.2L16.8,14l-0.2-0.2l-0.2-0.2
				l-0.1-0.2l-0.1-0.2l-0.1-0.2L16,12.6l-0.1-0.3L15.8,12l-0.1-0.3l-0.1-0.3l0-0.3l0-0.3v-0.6l0-0.3l0-0.3l0-0.3l0.1-0.3L15.9,9
				L16,8.7l0.1-0.3l0.1-0.2L16.3,8l0.1-0.2l0.1-0.2l0.2-0.2l0.2-0.2l0.2-0.2l0.2-0.2l0.2-0.2l0.2-0.2l0.2-0.2L18.2,6l0.2-0.1
				l0.2-0.1l0.2-0.1l0.3-0.1l0.3-0.1l0.3-0.1l0.3-0.1l0.3-0.1l0.3-0.1l0.3,0l0.3,0l0.3,0l0.4,0l0.4,0l0.2,0l0.2,0l0.2,0l0.2,0l0.2,0
				l0.2,0.1l0.2,0.1l0.2,0.1l0.2,0.1l0.2,0.1l0.2,0.1l0.2,0.1l0.2,0.1l0.1,0.1L24.5,6l0.1,0.1l0.1,0.1l0.1,0.1l0.1,0.1l0.1,0.1
				l0.1,0.1l0.1,0.1l0.1,0.1L25.7,7l0.1,0.1l0.1,0.1L26,7.4l0.1,0.1l0.1,0.2l0.1,0.2l0.1,0.2l0.1,0.2l0.1,0.2l0.1,0.2l0.1,0.2
				L26.8,9l0.1,0.2l0.1,0.2l0,0.2l0,0.2l0,0.2l0,0.2l0,0.2l0,0.2v0.1l0,0.1v0.2l0,0.1v0.1l0,0.1l0,0.1l0,0.1v0.1l0,0.1l0,0.1l0,0.1
				l0,0.1h-7.9l0.1,0.2l0.1,0.2l0.1,0.2l0.1,0.1l0.1,0.1l0.1,0.1l0.1,0.1l0.2,0.1l0.2,0.1l0.2,0.1l0.2,0.1l0.2,0.1l0.2,0l0.2,0
				l0.2,0l0.2,0h0.1l0.1,0l0.1,0l0.1,0l0.1,0l0.1,0l0.1,0l0.1,0l0.1,0l0.1-0.1l0.1,0l0.1-0.1l0.1-0.1l0.1-0.1l0.1-0.1l0.1-0.1
				L26.6,12.8z M19,9.6h4.8l-0.1-0.2l-0.1-0.2L23.5,9l-0.1-0.2l-0.1-0.2l-0.1-0.1l-0.1-0.1l-0.1-0.1l-0.2-0.1l-0.2-0.1L22.4,8
				l-0.2-0.1L22,7.9l-0.2,0l-0.2,0l-0.2,0l-0.2,0l-0.2,0l-0.2,0l-0.2,0.1L20.4,8l-0.2,0.1L20,8.2l-0.2,0.1l-0.2,0.1l-0.1,0.1
				l-0.1,0.1l-0.1,0.2L19.2,9l-0.1,0.2l-0.1,0.2L19,9.6L19,9.6z"/>
			<path id="T" class="st0" d="M11.6,13.1h1.3V16h-6v-2.8h1.3V5.1H6.9v1.9H4.4V2.2h10.9v4.7h-2.5V5h-1.3V13.1L11.6,13.1z"/>
		</g>
	</g>
	<g id="Zahnrad" transform="translate(219.373 564.558)">
		<path id="Zahnrad-2" class="st1" d="M20.1,18l0-0.4l0-0.4l-3.4-0.6l-0.1-0.3L16.5,16l-0.1-0.3l-0.1-0.3L16.2,15l-0.1-0.3L16,14.4
			l-0.1-0.3l2.7-2.2l-0.2-0.4l-0.2-0.4l-0.2-0.3l-0.2-0.3l-0.2-0.3l-0.2-0.3l-0.2-0.3L17,9.2l-3.3,1.2l-0.2-0.3l-0.2-0.2l-0.2-0.2
			l-0.2-0.2l-0.2-0.2l-0.2-0.2l-0.2-0.2l-0.3-0.2l1.2-3.2L12.8,5l-0.3-0.2l-0.3-0.2l-0.3-0.2l-0.4-0.2L11.1,4l-0.4-0.2l-0.4-0.2
			L8.2,6.4L7.8,6.3L7.5,6.2L7.2,6.1L6.9,6L6.6,5.9L6.3,5.8L6,5.8L5.6,5.7L5,2.3l-0.4,0l-0.4,0l-0.4,0H3.1l-0.4,0l-0.4,0l-0.4,0
			L1.3,5.7L1,5.8L0.7,5.8L0.3,5.9L0,6l-0.3,0.1l-0.3,0.1l-0.3,0.1l-0.3,0.1l-2.2-2.7l-0.4,0.2L-4.1,4l-0.4,0.2l-0.4,0.2l-0.3,0.2
			l-0.3,0.2L-5.8,5l-0.3,0.2L-5,8.5l-0.3,0.2l-0.2,0.2l-0.2,0.2l-0.2,0.2l-0.2,0.2l-0.2,0.2l-0.2,0.2l-0.2,0.3l-3.3-1.2l-0.2,0.3
			l-0.2,0.3l-0.2,0.3l-0.2,0.3l-0.2,0.3l-0.2,0.3l-0.2,0.4l-0.2,0.4l2.7,2.2l-0.1,0.3l-0.1,0.3L-9.3,15l-0.1,0.3l-0.1,0.3L-9.5,16
			l-0.1,0.3l-0.1,0.3l-3.4,0.6l0,0.4l0,0.4l0,0.4l0,0.4l0,0.4l0,0.4l0,0.4l0,0.4l3.4,0.6l0.1,0.3l0.1,0.3l0.1,0.3l0.1,0.3l0.1,0.3
			l0.1,0.3l0.1,0.3l0.1,0.3l-2.7,2.2l0.2,0.4l0.2,0.3l0.2,0.3l0.2,0.3l0.2,0.3l0.2,0.3l0.2,0.3l0.2,0.3l3.3-1.2l0.2,0.3l0.2,0.2
			l0.2,0.2l0.2,0.2l0.2,0.2l0.2,0.2l0.2,0.2L-5,29l-1.2,3.2l0.3,0.2l0.3,0.2l0.3,0.2l0.3,0.2l0.4,0.2l0.4,0.2l0.4,0.2l0.4,0.2
			l2.2-2.7l0.3,0.1l0.3,0.1l0.3,0.1L0,31.5l0.3,0.1l0.3,0.1L1,31.8l0.3,0.1l0.6,3.4l0.4,0l0.4,0l0.4,0h0.8l0.4,0l0.4,0l0.4,0
			l0.6-3.4L6,31.8l0.3-0.1l0.3-0.1l0.3-0.1l0.3-0.1l0.3-0.1l0.3-0.1l0.3-0.1l2.2,2.7l0.4-0.2l0.4-0.2l0.4-0.2l0.4-0.2l0.3-0.2
			l0.3-0.2l0.3-0.2l0.3-0.2L11.9,29l0.3-0.2l0.2-0.2l0.2-0.2l0.2-0.2l0.2-0.2l0.2-0.2l0.2-0.2l0.2-0.3l3.3,1.2l0.2-0.3l0.2-0.3
			l0.2-0.3l0.2-0.3l0.2-0.3l0.2-0.3l0.2-0.3l0.2-0.4l-2.7-2.2l0.1-0.3l0.1-0.3l0.1-0.3l0.1-0.3l0.1-0.3l0.1-0.3l0.1-0.3l0.1-0.3
			l3.4-0.6l0-0.4l0-0.4l0-0.4v-0.8L20.1,18z M14.1,19.2L14,19.9l-0.1,0.7l-0.1,0.7l-0.2,0.7l-0.2,0.6l-0.3,0.6l-0.3,0.6l-0.3,0.6
			l-0.4,0.6l-0.4,0.6L11.2,26l-0.5,0.5L10.1,27l-0.6,0.5l-0.6,0.4L7,31l-1.2-2l-0.3,0.1l-0.3,0.1l-0.3,0.1l-0.3,0l-0.3,0l-0.3,0
			l-0.3,0H3.2l-0.3,0l-0.3,0l-0.3,0l-0.3,0l-0.3-0.1l-0.3-0.1l-0.3-0.1L0,31l-1.9-3.2l-0.6-0.4L-3.2,27l-0.6-0.5L-4.2,26l-0.5-0.5
			l-0.4-0.6l-0.4-0.6l-0.3-0.6l-0.3-0.6l-0.3-0.6l-0.2-0.6l-0.2-0.7L-7,20.5l-0.1-0.7l-0.1-0.7v-0.7l0-0.7l0.1-0.7l0.1-0.7l0.2-0.7
			l0.2-0.6l0.2-0.6L-6,14l0.3-0.6l0.4-0.6l0.4-0.6l0.5-0.5l0.5-0.5l0.5-0.5l0.6-0.5l0.6-0.4l0.7-0.4V7.1h10v2.3l0.7,0.4l0.6,0.4
			l0.6,0.5l0.5,0.5l0.5,0.5l0.5,0.5l0.4,0.6l0.4,0.6l0.3,0.6l0.3,0.6l0.2,0.6l0.2,0.6l0.2,0.7l0.1,0.7l0.1,0.7l0,0.7L14.1,19.2z"/>
		<path id="W-2" class="st0" d="M3.5,24.3L7,30.1l4.6-7.6h1.1v-1.9H8.9v1.9h0.4L7,26.4l-3.5-5.8L0,26.4l-2.3-3.9h0.4v-1.9h-3.8v1.9
			h1.1L0,30.1L3.5,24.3L3.5,24.3z"/>
		<path id="H-4" class="st0" d="M-1.4,11.2v1.9h0.5v7.6l-0.5,0v1.9h3.2v-1.9H1.3v-1.9h4.4v1.9H5.2v1.9h3.2v-1.9H7.9v-7.6l0.5,0v-1.9
			H5.2v1.9h0.5v3.8H1.3v-3.8h0.5v-1.9H-1.4z"/>
		<path id="T-2" class="st0" d="M8,7.6h-9v2.4h2.2V9.5h1.2v4.4H1.9v1.9h3.2v-1.9H4.6V9.5h1.2v0.5H8L8,7.6L8,7.6z"/>
	</g>
</g>
</svg>
